{"glyphs":{"0":{"ha":1389,"x_min":278,"x_max":1111,"o":"m 1085 572 l 1111 572 l 1111 261 l 1085 261 l 1085 156 l 1058 156 l 1058 104 l 1033 104 l 1033 53 l 1007 53 l 1007 0 l 981 0 l 981 -26 l 956 -26 l 956 -53 l 929 -53 l 929 -78 l 876 -78 l 876 -104 l 772 -104 l 772 -131 l 617 -131 l 617 -104 l 513 -104 l 513 -78 l 460 -78 l 460 -53 l 433 -53 l 433 -26 l 408 -26 l 408 0 l 382 0 l 382 53 l 356 53 l 356 104 l 331 104 l 331 156 l 304 156 l 304 261 l 278 261 l 278 572 l 304 572 l 304 678 l 331 678 l 331 729 l 356 729 l 356 781 l 382 781 l 382 833 l 408 833 l 408 860 l 433 860 l 433 886 l 460 886 l 460 911 l 513 911 l 513 938 l 617 938 l 617 964 l 772 964 l 772 938 l 876 938 l 876 911 l 929 911 l 929 886 l 956 886 l 956 860 l 981 860 l 981 833 l 1007 833 l 1007 781 l 1033 781 l 1033 729 l 1058 729 l 1058 678 l 1085 678 l 1085 572 m 850 235 l 876 235 l 876 599 l 850 599 l 850 678 l 825 678 l 825 729 l 799 729 l 799 756 l 747 756 l 747 781 l 642 781 l 642 756 l 590 756 l 590 729 l 564 729 l 564 678 l 539 678 l 539 599 l 513 599 l 513 235 l 539 235 l 539 156 l 564 156 l 564 104 l 590 104 l 590 78 l 642 78 l 642 53 l 747 53 l 747 78 l 799 78 l 799 104 l 825 104 l 825 156 l 850 156 l 850 235 m 590 313 l 590 521 l 799 521 l 799 313 l 590 313 z "},"1":{"ha":1389,"x_min":278,"x_max":1111,"o":"m 564 78 l 590 78 l 590 104 l 590 131 l 590 156 l 590 182 l 590 208 l 590 235 l 590 261 l 590 286 l 590 313 l 590 339 l 590 364 l 590 390 l 590 417 l 590 443 l 590 469 l 590 494 l 590 521 l 590 547 l 590 572 l 590 599 l 590 625 l 590 651 l 590 678 l 590 703 l 590 729 l 590 756 l 564 756 l 539 756 l 513 756 l 486 756 l 460 756 l 433 756 l 408 756 l 382 756 l 356 756 l 356 781 l 356 807 l 356 833 l 356 860 l 356 886 l 356 911 l 356 938 l 356 964 l 382 964 l 408 964 l 433 964 l 460 964 l 486 964 l 513 964 l 539 964 l 564 964 l 590 964 l 617 964 l 642 964 l 668 964 l 694 964 l 721 964 l 747 964 l 772 964 l 799 964 l 825 964 l 850 964 l 850 938 l 850 911 l 850 886 l 850 860 l 850 833 l 850 807 l 850 781 l 850 756 l 850 729 l 850 703 l 850 678 l 850 651 l 850 625 l 850 599 l 850 572 l 850 547 l 850 521 l 850 494 l 850 469 l 850 443 l 850 417 l 850 390 l 850 364 l 850 339 l 850 313 l 850 286 l 850 261 l 850 235 l 850 208 l 850 182 l 850 156 l 850 131 l 850 104 l 850 78 l 876 78 l 903 78 l 929 78 l 956 78 l 981 78 l 1007 78 l 1033 78 l 1058 78 l 1085 78 l 1111 78 l 1111 53 l 1111 51 l 1111 26 l 1111 0 l 1111 -26 l 1111 -53 l 1111 -78 l 1111 -104 l 1111 -131 l 1085 -131 l 1058 -131 l 1033 -131 l 1007 -131 l 981 -131 l 956 -131 l 929 -131 l 903 -131 l 876 -131 l 850 -131 l 825 -131 l 799 -131 l 772 -131 l 747 -131 l 721 -131 l 694 -131 l 668 -131 l 642 -131 l 617 -131 l 590 -131 l 564 -131 l 539 -131 l 513 -131 l 486 -131 l 460 -131 l 433 -131 l 408 -131 l 382 -131 l 356 -131 l 331 -131 l 304 -131 l 278 -131 l 278 -104 l 278 -78 l 278 -53 l 278 -26 l 278 0 l 278 26 l 278 51 l 278 53 l 278 78 l 304 78 l 331 78 l 356 78 l 382 78 l 408 78 l 433 78 l 460 78 l 486 78 l 513 78 l 539 78 l 564 78 z "},"2":{"ha":1389,"x_min":278,"x_max":1111,"o":"m 1085 964 l 1111 964 l 1111 938 l 1111 911 l 1111 886 l 1111 860 l 1111 833 l 1111 807 l 1111 781 l 1111 756 l 1111 729 l 1111 703 l 1111 678 l 1111 651 l 1111 625 l 1111 599 l 1111 572 l 1111 547 l 1111 521 l 1111 494 l 1111 469 l 1111 443 l 1111 417 l 1111 390 l 1111 364 l 1111 339 l 1111 313 l 1085 313 l 1058 313 l 1033 313 l 1007 313 l 981 313 l 956 313 l 929 313 l 903 313 l 876 313 l 850 313 l 825 313 l 799 313 l 772 313 l 747 313 l 721 313 l 694 313 l 668 313 l 642 313 l 617 313 l 590 313 l 564 313 l 539 313 l 513 313 l 513 286 l 513 261 l 513 235 l 513 208 l 513 182 l 513 156 l 513 131 l 513 104 l 513 78 l 539 78 l 564 78 l 590 78 l 617 78 l 642 78 l 668 78 l 694 78 l 721 78 l 747 78 l 772 78 l 799 78 l 825 78 l 850 78 l 876 78 l 903 78 l 929 78 l 956 78 l 981 78 l 1007 78 l 1033 78 l 1058 78 l 1085 78 l 1111 78 l 1111 53 l 1111 26 l 1111 0 l 1111 -26 l 1111 -53 l 1111 -78 l 1111 -104 l 1111 -131 l 1085 -131 l 1058 -131 l 1033 -131 l 1007 -131 l 981 -131 l 956 -131 l 929 -131 l 903 -131 l 876 -131 l 850 -131 l 825 -131 l 799 -131 l 772 -131 l 747 -131 l 721 -131 l 694 -131 l 668 -131 l 642 -131 l 617 -131 l 590 -131 l 564 -131 l 539 -131 l 513 -131 l 486 -131 l 460 -131 l 433 -131 l 408 -131 l 382 -131 l 356 -131 l 331 -131 l 304 -131 l 278 -131 l 278 -104 l 278 -78 l 278 -53 l 278 -26 l 278 0 l 278 26 l 278 53 l 278 78 l 278 104 l 278 131 l 278 156 l 278 182 l 278 208 l 278 235 l 278 261 l 278 286 l 278 313 l 278 339 l 278 364 l 278 390 l 278 417 l 278 443 l 278 469 l 278 494 l 278 521 l 304 521 l 331 521 l 356 521 l 382 521 l 408 521 l 433 521 l 460 521 l 486 521 l 513 521 l 539 521 l 564 521 l 590 521 l 617 521 l 642 521 l 668 521 l 694 521 l 721 521 l 747 521 l 772 521 l 799 521 l 825 521 l 850 521 l 850 547 l 850 572 l 850 599 l 850 625 l 850 651 l 850 678 l 850 703 l 850 729 l 850 756 l 825 756 l 799 756 l 772 756 l 747 756 l 721 756 l 694 756 l 668 756 l 642 756 l 617 756 l 590 756 l 564 756 l 539 756 l 513 756 l 486 756 l 460 756 l 433 756 l 408 756 l 382 756 l 356 756 l 331 756 l 304 756 l 278 756 l 278 781 l 278 807 l 278 833 l 278 860 l 278 886 l 278 911 l 278 938 l 278 964 l 304 964 l 331 964 l 356 964 l 382 964 l 408 964 l 433 964 l 460 964 l 486 964 l 513 964 l 539 964 l 564 964 l 590 964 l 617 964 l 642 964 l 668 964 l 694 964 l 721 964 l 747 964 l 772 964 l 799 964 l 825 964 l 850 964 l 876 964 l 903 964 l 929 964 l 956 964 l 981 964 l 1007 964 l 1033 964 l 1058 964 l 1085 964 z "},"3":{"ha":1389,"x_min":278,"x_max":1111,"o":"m 1085 964 l 1111 964 l 1111 938 l 1111 911 l 1111 886 l 1111 860 l 1111 833 l 1111 807 l 1111 781 l 1111 756 l 1111 729 l 1111 703 l 1111 678 l 1111 651 l 1111 625 l 1111 599 l 1111 572 l 1111 547 l 1111 521 l 1111 494 l 1111 469 l 1111 443 l 1111 417 l 1111 390 l 1111 364 l 1111 339 l 1111 313 l 1111 286 l 1111 261 l 1111 235 l 1111 208 l 1111 182 l 1111 156 l 1111 131 l 1111 104 l 1111 78 l 1111 53 l 1111 26 l 1111 0 l 1111 -26 l 1111 -53 l 1111 -78 l 1111 -104 l 1111 -131 l 1085 -131 l 1058 -131 l 1033 -131 l 1007 -131 l 981 -131 l 956 -131 l 929 -131 l 903 -131 l 876 -131 l 850 -131 l 825 -131 l 799 -131 l 772 -131 l 747 -131 l 721 -131 l 694 -131 l 668 -131 l 642 -131 l 617 -131 l 590 -131 l 564 -131 l 539 -131 l 513 -131 l 486 -131 l 460 -131 l 433 -131 l 408 -131 l 382 -131 l 356 -131 l 331 -131 l 304 -131 l 278 -131 l 278 -104 l 278 -78 l 278 -53 l 278 -26 l 278 0 l 278 26 l 278 53 l 278 78 l 304 78 l 331 78 l 356 78 l 382 78 l 408 78 l 433 78 l 460 78 l 486 78 l 513 78 l 539 78 l 564 78 l 590 78 l 617 78 l 642 78 l 668 78 l 694 78 l 721 78 l 747 78 l 772 78 l 799 78 l 825 78 l 850 78 l 876 78 l 876 104 l 876 131 l 876 156 l 876 182 l 876 208 l 876 235 l 876 261 l 876 286 l 876 313 l 850 313 l 825 313 l 799 313 l 772 313 l 747 313 l 721 313 l 694 313 l 668 313 l 642 313 l 617 313 l 590 313 l 564 313 l 539 313 l 513 313 l 486 313 l 460 313 l 433 313 l 408 313 l 382 313 l 356 313 l 356 339 l 356 364 l 356 390 l 356 417 l 356 443 l 356 469 l 356 494 l 356 521 l 382 521 l 408 521 l 433 521 l 460 521 l 486 521 l 513 521 l 539 521 l 564 521 l 590 521 l 617 521 l 642 521 l 668 521 l 694 521 l 721 521 l 747 521 l 772 521 l 799 521 l 825 521 l 850 521 l 850 547 l 850 572 l 850 599 l 850 625 l 850 651 l 850 678 l 850 703 l 850 729 l 850 756 l 825 756 l 799 756 l 772 756 l 747 756 l 721 756 l 694 756 l 668 756 l 642 756 l 617 756 l 590 756 l 564 756 l 539 756 l 513 756 l 486 756 l 460 756 l 433 756 l 408 756 l 382 756 l 356 756 l 331 756 l 304 756 l 278 756 l 278 781 l 278 807 l 278 833 l 278 860 l 278 886 l 278 911 l 278 938 l 278 964 l 304 964 l 331 964 l 356 964 l 382 964 l 408 964 l 433 964 l 460 964 l 486 964 l 513 964 l 539 964 l 564 964 l 590 964 l 617 964 l 642 964 l 668 964 l 694 964 l 721 964 l 747 964 l 772 964 l 799 964 l 825 964 l 850 964 l 876 964 l 903 964 l 929 964 l 956 964 l 981 964 l 1007 964 l 1033 964 l 1058 964 l 1085 964 z "},"4":{"ha":1389,"x_min":278,"x_max":1111,"o":"m 772 339 l 772 390 l 981 390 l 981 235 l 1111 235 l 1111 26 l 981 26 l 981 -131 l 772 -131 l 772 26 l 278 26 l 278 131 l 278 156 l 278 182 l 278 208 l 278 235 l 278 390 l 278 417 l 304 417 l 304 443 l 331 443 l 331 494 l 356 494 l 356 521 l 382 521 l 382 547 l 408 547 l 408 599 l 433 599 l 433 625 l 460 625 l 460 651 l 486 651 l 486 703 l 513 703 l 513 729 l 539 729 l 539 756 l 564 756 l 564 807 l 590 807 l 590 833 l 617 833 l 617 860 l 642 860 l 642 911 l 668 911 l 668 938 l 694 938 l 694 964 l 981 964 l 981 938 l 956 938 l 956 911 l 929 911 l 929 860 l 903 860 l 903 833 l 876 833 l 876 807 l 850 807 l 850 756 l 825 756 l 825 729 l 799 729 l 799 703 l 772 703 l 772 651 l 747 651 l 747 625 l 721 625 l 721 599 l 694 599 l 694 547 l 668 547 l 668 521 l 642 521 l 642 494 l 617 494 l 617 443 l 590 443 l 590 417 l 564 417 l 564 390 l 539 390 l 539 364 l 539 339 l 513 339 l 513 235 l 772 235 l 772 339 z "},"5":{"ha":1389,"x_min":278,"x_max":1111,"o":"m 1085 964 l 1111 964 l 1111 938 l 1111 911 l 1111 886 l 1111 860 l 1111 833 l 1111 807 l 1111 781 l 1111 756 l 1085 756 l 1058 756 l 1033 756 l 1007 756 l 981 756 l 956 756 l 929 756 l 903 756 l 876 756 l 850 756 l 825 756 l 799 756 l 772 756 l 747 756 l 721 756 l 694 756 l 668 756 l 642 756 l 617 756 l 590 756 l 564 756 l 539 756 l 539 729 l 539 703 l 539 678 l 539 651 l 539 625 l 539 599 l 539 572 l 539 547 l 539 521 l 564 521 l 590 521 l 617 521 l 642 521 l 668 521 l 694 521 l 721 521 l 747 521 l 772 521 l 799 521 l 825 521 l 850 521 l 876 521 l 903 521 l 929 521 l 956 521 l 981 521 l 1007 521 l 1033 521 l 1058 521 l 1085 521 l 1111 521 l 1111 494 l 1111 469 l 1111 443 l 1111 417 l 1111 390 l 1111 364 l 1111 339 l 1111 313 l 1111 286 l 1111 261 l 1111 235 l 1111 208 l 1111 182 l 1111 156 l 1111 131 l 1111 104 l 1111 78 l 1111 53 l 1111 26 l 1111 0 l 1111 -26 l 1111 -53 l 1111 -78 l 1111 -104 l 1111 -131 l 1085 -131 l 1058 -131 l 1033 -131 l 1007 -131 l 981 -131 l 956 -131 l 929 -131 l 903 -131 l 876 -131 l 850 -131 l 825 -131 l 799 -131 l 772 -131 l 747 -131 l 721 -131 l 694 -131 l 668 -131 l 642 -131 l 617 -131 l 590 -131 l 564 -131 l 539 -131 l 513 -131 l 486 -131 l 460 -131 l 433 -131 l 408 -131 l 382 -131 l 356 -131 l 331 -131 l 304 -131 l 278 -131 l 278 -104 l 278 -78 l 278 -53 l 278 -26 l 278 0 l 278 26 l 278 53 l 278 78 l 304 78 l 331 78 l 356 78 l 382 78 l 408 78 l 433 78 l 460 78 l 486 78 l 513 78 l 539 78 l 564 78 l 590 78 l 617 78 l 642 78 l 668 78 l 694 78 l 721 78 l 747 78 l 772 78 l 799 78 l 825 78 l 850 78 l 876 78 l 876 104 l 876 131 l 876 156 l 876 182 l 876 208 l 876 235 l 876 261 l 876 286 l 876 313 l 850 313 l 825 313 l 799 313 l 772 313 l 747 313 l 721 313 l 694 313 l 668 313 l 642 313 l 617 313 l 590 313 l 564 313 l 539 313 l 513 313 l 486 313 l 460 313 l 433 313 l 408 313 l 382 313 l 356 313 l 331 313 l 304 313 l 278 313 l 278 339 l 278 364 l 278 390 l 278 417 l 278 443 l 278 469 l 278 494 l 278 521 l 278 547 l 278 572 l 278 599 l 278 625 l 278 651 l 278 678 l 278 703 l 278 729 l 278 756 l 278 781 l 278 807 l 278 833 l 278 860 l 278 886 l 278 911 l 278 938 l 278 964 l 304 964 l 331 964 l 356 964 l 382 964 l 408 964 l 433 964 l 460 964 l 486 964 l 513 964 l 539 964 l 564 964 l 590 964 l 617 964 l 642 964 l 668 964 l 694 964 l 721 964 l 747 964 l 772 964 l 799 964 l 825 964 l 850 964 l 876 964 l 903 964 l 929 964 l 956 964 l 981 964 l 1007 964 l 1033 964 l 1058 964 l 1085 964 z "},"6":{"ha":1389,"x_min":278,"x_max":1111,"o":"m 1085 964 l 1111 964 l 1111 756 l 539 756 l 539 521 l 1111 521 l 1111 -131 l 278 -131 l 278 964 l 1085 964 m 876 286 l 876 313 l 539 313 l 539 78 l 876 78 l 876 286 z "},"7":{"ha":1389,"x_min":278,"x_max":1111,"o":"m 1085 964 l 1111 964 l 1111 938 l 1111 911 l 1111 886 l 1111 860 l 1111 833 l 1111 807 l 1111 781 l 1111 756 l 1111 729 l 1111 703 l 1111 678 l 1111 651 l 1085 651 l 1085 625 l 1085 599 l 1058 599 l 1058 572 l 1058 547 l 1033 547 l 1033 521 l 1033 494 l 1007 494 l 1007 469 l 1007 443 l 981 443 l 981 417 l 981 390 l 956 390 l 956 364 l 956 339 l 929 339 l 929 313 l 929 286 l 903 286 l 903 261 l 903 235 l 876 235 l 876 208 l 876 182 l 850 182 l 850 156 l 850 131 l 825 131 l 825 104 l 825 78 l 799 78 l 799 53 l 799 26 l 772 26 l 772 0 l 772 -26 l 747 -26 l 747 -53 l 747 -78 l 721 -78 l 721 -104 l 721 -131 l 694 -131 l 668 -131 l 642 -131 l 617 -131 l 590 -131 l 564 -131 l 539 -131 l 513 -131 l 486 -131 l 486 -104 l 486 -78 l 513 -78 l 513 -53 l 513 -26 l 539 -26 l 539 0 l 539 26 l 564 26 l 564 53 l 564 78 l 590 78 l 590 104 l 590 131 l 617 131 l 617 156 l 617 182 l 642 182 l 642 208 l 642 235 l 668 235 l 668 261 l 668 286 l 694 286 l 694 313 l 694 339 l 721 339 l 721 364 l 721 390 l 747 390 l 747 417 l 747 443 l 772 443 l 772 469 l 772 494 l 799 494 l 799 521 l 799 547 l 825 547 l 825 572 l 825 599 l 850 599 l 850 625 l 850 651 l 876 651 l 876 678 l 876 703 l 876 729 l 876 756 l 850 756 l 825 756 l 799 756 l 772 756 l 747 756 l 721 756 l 694 756 l 668 756 l 642 756 l 617 756 l 590 756 l 564 756 l 539 756 l 513 756 l 486 756 l 460 756 l 433 756 l 408 756 l 382 756 l 356 756 l 331 756 l 304 756 l 278 756 l 278 781 l 278 807 l 278 833 l 278 860 l 278 886 l 278 911 l 278 938 l 278 964 l 304 964 l 331 964 l 356 964 l 382 964 l 408 964 l 433 964 l 460 964 l 486 964 l 513 964 l 539 964 l 564 964 l 590 964 l 617 964 l 642 964 l 668 964 l 694 964 l 721 964 l 747 964 l 772 964 l 799 964 l 825 964 l 850 964 l 876 964 l 903 964 l 929 964 l 956 964 l 981 964 l 1007 964 l 1033 964 l 1058 964 l 1085 964 z "},"8":{"ha":1389,"x_min":278,"x_max":1111,"o":"m 1085 521 l 1111 521 l 1111 -131 l 278 -131 l 278 521 l 331 521 l 331 964 l 1058 964 l 1058 521 l 1085 521 m 513 104 l 513 78 l 876 78 l 876 313 l 513 313 l 513 104 m 825 729 l 825 756 l 564 756 l 564 521 l 825 521 l 825 729 z "},"9":{"ha":1389,"x_min":278,"x_max":1111,"o":"m 1085 964 l 1111 964 l 1111 -131 l 278 -131 l 278 78 l 850 78 l 850 313 l 278 313 l 278 964 l 1085 964 m 513 547 l 513 521 l 850 521 l 850 756 l 513 756 l 513 547 z "},"\u0000":{"ha":1389,"x_min":590,"x_max":799,"o":"m 747 78 l 772 78 l 799 78 l 799 53 l 799 26 l 799 0 l 799 -26 l 799 -53 l 799 -78 l 799 -104 l 799 -131 l 772 -131 l 747 -131 l 721 -131 l 694 -131 l 668 -131 l 642 -131 l 617 -131 l 590 -131 l 590 -104 l 590 -78 l 590 -53 l 590 -26 l 590 0 l 590 26 l 590 53 l 590 78 l 617 78 l 642 78 l 668 78 l 694 78 l 721 78 l 747 78 m 772 964 l 799 964 l 799 938 l 799 911 l 799 886 l 799 860 l 799 833 l 799 807 l 799 781 l 799 756 l 799 729 l 799 703 l 799 678 l 799 651 l 799 625 l 799 599 l 799 572 l 799 547 l 799 521 l 799 494 l 799 469 l 799 443 l 799 417 l 799 390 l 799 364 l 799 339 l 799 313 l 799 286 l 772 286 l 747 286 l 721 286 l 694 286 l 668 286 l 642 286 l 617 286 l 590 286 l 590 313 l 590 339 l 590 364 l 590 390 l 590 417 l 590 443 l 590 469 l 590 494 l 590 521 l 590 547 l 590 572 l 590 599 l 590 625 l 590 651 l 590 678 l 590 703 l 590 729 l 590 756 l 590 781 l 590 807 l 590 833 l 590 860 l 590 886 l 590 911 l 590 938 l 590 964 l 617 964 l 642 964 l 668 964 l 694 964 l 721 964 l 747 964 l 772 964 z "},"\r":{"ha":1389,"x_min":590,"x_max":799,"o":"m 590 313 l 590 521 l 799 521 l 799 313 l 590 313 z "},"\u0001":{"ha":1389,"x_min":382,"x_max":1007,"o":"m 539 964 l 564 964 l 590 964 l 590 938 l 590 911 l 590 886 l 590 860 l 590 833 l 590 807 l 590 781 l 590 756 l 590 729 l 590 703 l 564 703 l 539 703 l 513 703 l 486 703 l 460 703 l 433 703 l 408 703 l 382 703 l 382 729 l 382 756 l 382 781 l 382 807 l 382 833 l 382 860 l 382 886 l 382 911 l 382 938 l 382 964 l 408 964 l 433 964 l 460 964 l 486 964 l 513 964 l 539 964 m 981 964 l 1007 964 l 1007 938 l 1007 911 l 1007 886 l 1007 860 l 1007 833 l 1007 807 l 1007 781 l 1007 756 l 1007 729 l 1007 703 l 981 703 l 956 703 l 929 703 l 903 703 l 876 703 l 850 703 l 825 703 l 799 703 l 799 729 l 799 756 l 799 781 l 799 807 l 799 833 l 799 860 l 799 886 l 799 911 l 799 938 l 799 964 l 825 964 l 850 964 l 876 964 l 903 964 l 929 964 l 956 964 l 981 964 z "},"\u0002":{"ha":1389,"x_min":278,"x_max":1111,"o":"m 1085 678 l 1111 678 l 1111 469 l 956 469 l 956 364 l 1111 364 l 1111 156 l 956 156 l 956 0 l 747 0 l 747 156 l 642 156 l 642 0 l 433 0 l 433 156 l 278 156 l 278 364 l 433 364 l 433 469 l 278 469 l 278 678 l 433 678 l 433 833 l 642 833 l 642 678 l 747 678 l 747 833 l 956 833 l 956 678 l 1085 678 m 747 443 l 747 469 l 642 469 l 642 364 l 747 364 l 747 443 z "},"\u0003":{"ha":1389,"x_min":276,"x_max":1111,"o":"m 981 676 l 981 678 l 954 678 l 954 703 l 929 703 l 929 729 l 876 729 l 876 756 l 825 756 l 825 494 l 929 494 l 929 469 l 981 469 l 981 443 l 1007 443 l 1007 417 l 1033 417 l 1033 390 l 1058 390 l 1058 364 l 1085 364 l 1085 313 l 1111 313 l 1111 104 l 1085 104 l 1085 53 l 1058 53 l 1058 0 l 1033 0 l 1033 -26 l 1007 -26 l 1007 -53 l 981 -53 l 981 -78 l 929 -78 l 929 -104 l 850 -104 l 850 -131 l 825 -131 l 825 -208 l 617 -208 l 617 -131 l 513 -131 l 513 -104 l 433 -104 l 433 -78 l 382 -78 l 382 -53 l 356 -53 l 356 -26 l 329 -26 l 329 0 l 304 0 l 304 26 l 278 26 l 278 53 l 304 53 l 304 78 l 329 78 l 329 104 l 356 104 l 356 131 l 382 131 l 382 156 l 408 156 l 408 182 l 433 182 l 433 156 l 460 156 l 460 131 l 486 131 l 486 104 l 538 104 l 538 78 l 590 78 l 590 53 l 617 53 l 617 339 l 538 339 l 538 364 l 460 364 l 460 390 l 433 390 l 433 417 l 408 417 l 408 443 l 382 443 l 382 468 l 356 468 l 356 521 l 329 521 l 329 756 l 356 756 l 356 807 l 382 807 l 382 833 l 408 833 l 408 860 l 433 860 l 433 885 l 460 885 l 460 911 l 513 911 l 513 938 l 617 938 l 617 1042 l 825 1042 l 825 964 l 850 964 l 850 938 l 929 938 l 929 911 l 1007 911 l 1007 885 l 1033 885 l 1033 860 l 1085 860 l 1085 833 l 1111 833 l 1111 807 l 1085 807 l 1085 781 l 1058 781 l 1058 756 l 1033 756 l 1033 729 l 1007 729 l 1007 703 l 981 703 l 981 676 m 850 131 l 876 131 l 876 235 l 850 235 l 850 261 l 825 261 l 825 104 l 850 104 l 850 131 m 590 703 l 564 703 l 564 599 l 590 599 l 590 572 l 617 572 l 617 756 l 590 756 l 590 703 z "},"\u0004":{"ha":1389,"x_min":278,"x_max":1111,"o":"m 850 521 l 850 494 l 825 494 l 825 469 l 825 443 l 799 443 l 799 417 l 799 390 l 772 390 l 772 364 l 772 339 l 747 339 l 747 313 l 747 286 l 721 286 l 721 261 l 721 235 l 694 235 l 694 208 l 694 182 l 668 182 l 668 156 l 668 131 l 642 131 l 642 104 l 642 78 l 617 78 l 617 53 l 617 26 l 590 26 l 590 0 l 590 -26 l 564 -26 l 564 -53 l 564 -78 l 539 -78 l 539 -104 l 539 -131 l 513 -131 l 486 -131 l 460 -131 l 433 -131 l 408 -131 l 382 -131 l 356 -131 l 331 -131 l 331 -104 l 331 -78 l 356 -78 l 356 -53 l 356 -26 l 382 -26 l 382 0 l 382 26 l 408 26 l 408 53 l 408 78 l 433 78 l 433 104 l 433 131 l 460 131 l 460 156 l 460 182 l 486 182 l 486 208 l 486 235 l 513 235 l 513 261 l 513 286 l 539 286 l 539 313 l 539 339 l 564 339 l 564 364 l 564 390 l 590 390 l 590 417 l 590 443 l 617 443 l 617 469 l 617 494 l 642 494 l 642 521 l 642 547 l 668 547 l 668 572 l 668 599 l 694 599 l 694 625 l 694 651 l 721 651 l 721 678 l 721 703 l 747 703 l 747 729 l 747 756 l 772 756 l 772 781 l 772 807 l 799 807 l 799 833 l 799 860 l 825 860 l 825 886 l 825 911 l 850 911 l 850 938 l 850 964 l 876 964 l 903 964 l 929 964 l 956 964 l 981 964 l 1007 964 l 1033 964 l 1058 964 l 1058 938 l 1058 911 l 1033 911 l 1033 886 l 1033 860 l 1007 860 l 1007 833 l 1007 807 l 981 807 l 981 781 l 981 756 l 956 756 l 956 729 l 956 703 l 929 703 l 929 678 l 929 651 l 903 651 l 903 625 l 903 599 l 876 599 l 876 572 l 876 547 l 850 547 l 850 521 m 564 860 l 564 572 l 278 572 l 278 860 l 564 860 m 486 651 l 486 781 l 356 781 l 356 651 l 486 651 m 825 261 l 1111 261 l 1111 -26 l 825 -26 l 825 261 m 1033 53 l 1033 182 l 903 182 l 903 53 l 1033 53 z "},"\u0005":{"ha":1389,"x_min":278,"x_max":1111,"o":"m 1085 521 l 1111 521 l 1111 104 l 1085 104 l 1085 78 l 1058 78 l 1058 53 l 1033 53 l 1033 26 l 1058 26 l 1058 -26 l 1085 -26 l 1085 -78 l 1111 -78 l 1111 -131 l 1007 -131 l 1007 -78 l 981 -78 l 981 -26 l 956 -26 l 956 -53 l 929 -53 l 929 -78 l 903 -78 l 903 -104 l 876 -104 l 876 -131 l 278 -131 l 278 521 l 331 521 l 331 729 l 356 729 l 356 756 l 382 756 l 382 781 l 408 781 l 408 807 l 433 807 l 433 833 l 460 833 l 460 860 l 486 860 l 486 886 l 513 886 l 513 911 l 539 911 l 539 938 l 564 938 l 564 964 l 747 964 l 772 964 l 799 964 l 825 964 l 876 964 l 903 964 l 1058 964 l 1058 521 l 1085 521 m 799 78 l 799 104 l 772 104 l 772 156 l 747 156 l 747 182 l 747 208 l 721 208 l 721 235 l 721 261 l 825 261 l 825 235 l 825 208 l 850 208 l 850 182 l 850 156 l 876 156 l 876 182 l 876 313 l 513 313 l 513 78 l 799 78 m 590 756 l 564 756 l 564 521 l 825 521 l 825 756 l 799 756 l 772 756 l 590 756 z "},"\u0006":{"ha":1389,"x_min":590,"x_max":799,"o":"m 747 964 l 772 964 l 799 964 l 799 938 l 799 911 l 799 886 l 799 860 l 799 833 l 799 807 l 799 781 l 799 756 l 799 729 l 799 703 l 772 703 l 747 703 l 721 703 l 694 703 l 668 703 l 642 703 l 617 703 l 590 703 l 590 729 l 590 756 l 590 781 l 590 807 l 590 833 l 590 860 l 590 886 l 590 911 l 590 938 l 590 964 l 617 964 l 642 964 l 668 964 l 694 964 l 721 964 l 747 964 z "},"\u0007":{"ha":1389,"x_min":486,"x_max":903,"o":"m 876 860 l 903 860 l 903 833 l 903 807 l 903 781 l 876 781 l 850 781 l 850 756 l 825 756 l 799 756 l 799 729 l 772 729 l 772 703 l 772 678 l 747 678 l 747 651 l 747 625 l 747 599 l 721 599 l 721 572 l 721 547 l 721 521 l 721 494 l 721 469 l 721 443 l 721 417 l 721 390 l 721 364 l 721 339 l 721 313 l 721 286 l 721 261 l 721 235 l 747 235 l 747 208 l 747 182 l 747 156 l 772 156 l 772 131 l 772 104 l 799 104 l 799 78 l 825 78 l 850 78 l 850 53 l 876 53 l 903 53 l 903 26 l 903 0 l 903 -26 l 876 -26 l 876 -53 l 876 -78 l 850 -78 l 850 -104 l 850 -131 l 825 -131 l 799 -131 l 799 -104 l 772 -104 l 747 -104 l 721 -104 l 721 -78 l 694 -78 l 668 -78 l 668 -53 l 642 -53 l 642 -26 l 617 -26 l 617 0 l 590 0 l 590 26 l 590 53 l 564 53 l 564 78 l 564 104 l 539 104 l 539 131 l 539 156 l 513 156 l 513 182 l 513 208 l 513 235 l 513 261 l 486 261 l 486 286 l 486 313 l 486 339 l 486 364 l 486 390 l 486 417 l 486 443 l 486 469 l 486 494 l 486 521 l 486 547 l 486 572 l 513 572 l 513 599 l 513 625 l 513 651 l 513 678 l 539 678 l 539 703 l 539 729 l 564 729 l 564 756 l 564 781 l 590 781 l 590 807 l 590 833 l 617 833 l 617 860 l 642 860 l 642 886 l 668 886 l 668 911 l 694 911 l 721 911 l 721 938 l 747 938 l 772 938 l 799 938 l 799 964 l 825 964 l 850 964 l 850 938 l 850 911 l 876 911 l 876 886 l 876 860 z "},"\b":{"ha":1389,"x_min":486,"x_max":903,"o":"m 513 860 l 513 886 l 513 911 l 539 911 l 539 938 l 539 964 l 564 964 l 590 964 l 590 938 l 617 938 l 642 938 l 668 938 l 668 911 l 694 911 l 721 911 l 721 886 l 747 886 l 747 860 l 772 860 l 772 833 l 799 833 l 799 807 l 799 781 l 825 781 l 825 756 l 825 729 l 850 729 l 850 703 l 850 678 l 876 678 l 876 651 l 876 625 l 876 599 l 876 572 l 903 572 l 903 547 l 903 521 l 903 494 l 903 469 l 903 443 l 903 417 l 903 390 l 903 364 l 903 339 l 903 313 l 903 286 l 903 261 l 876 261 l 876 235 l 876 208 l 876 182 l 876 156 l 850 156 l 850 131 l 850 104 l 825 104 l 825 78 l 825 53 l 799 53 l 799 26 l 799 0 l 772 0 l 772 -26 l 747 -26 l 747 -53 l 721 -53 l 721 -78 l 694 -78 l 668 -78 l 668 -104 l 642 -104 l 617 -104 l 590 -104 l 590 -131 l 564 -131 l 539 -131 l 539 -104 l 539 -78 l 513 -78 l 513 -53 l 513 -26 l 486 -26 l 486 0 l 486 26 l 486 53 l 513 53 l 539 53 l 539 78 l 564 78 l 590 78 l 590 104 l 617 104 l 617 131 l 617 156 l 642 156 l 642 182 l 642 208 l 642 235 l 668 235 l 668 261 l 668 286 l 668 313 l 668 339 l 668 364 l 668 390 l 668 417 l 668 443 l 668 469 l 668 494 l 668 521 l 668 547 l 668 572 l 668 599 l 642 599 l 642 625 l 642 651 l 642 678 l 617 678 l 617 703 l 617 729 l 590 729 l 590 756 l 564 756 l 539 756 l 539 781 l 513 781 l 486 781 l 486 807 l 486 833 l 486 860 l 513 860 z "},"\t":{"ha":1389,"x_min":510,"x_max":879,"o":"m 869 678 l 879 669 l 869 660 l 860 650 l 851 642 l 842 632 l 832 622 l 824 614 l 814 604 l 806 596 l 796 604 l 786 614 l 778 622 l 768 632 l 758 642 l 750 650 l 740 660 l 732 669 l 722 678 l 713 688 l 704 697 l 694 706 l 685 697 l 676 688 l 667 678 l 657 669 l 649 660 l 639 650 l 631 642 l 621 632 l 611 622 l 603 614 l 593 604 l 583 596 l 575 604 l 565 614 l 557 622 l 547 632 l 538 642 l 529 650 l 519 660 l 510 669 l 519 678 l 529 688 l 538 697 l 547 706 l 557 715 l 565 724 l 575 733 l 583 743 l 593 751 l 603 761 l 611 771 l 621 779 l 611 789 l 603 797 l 593 807 l 583 817 l 575 825 l 565 835 l 557 844 l 547 853 l 538 863 l 529 871 l 519 881 l 510 890 l 519 899 l 529 908 l 538 918 l 547 926 l 557 936 l 565 944 l 575 954 l 583 964 l 593 954 l 603 944 l 611 936 l 621 926 l 631 918 l 639 908 l 649 899 l 657 890 l 667 881 l 676 871 l 685 863 l 694 853 l 704 863 l 713 871 l 722 881 l 732 890 l 740 899 l 750 908 l 758 918 l 768 926 l 778 936 l 786 944 l 796 954 l 806 964 l 814 954 l 824 944 l 832 936 l 842 926 l 851 918 l 860 908 l 869 899 l 879 890 l 869 881 l 860 871 l 851 863 l 842 853 l 832 844 l 824 835 l 814 825 l 806 817 l 796 807 l 786 797 l 778 789 l 768 779 l 778 771 l 786 761 l 796 751 l 806 743 l 814 733 l 824 724 l 832 715 l 842 706 l 851 697 l 860 688 l 869 678 z "},"\n":{"ha":1389,"x_min":278,"x_max":1111,"o":"m 1085 521 l 1111 521 l 1111 494 l 1111 469 l 1111 443 l 1111 417 l 1111 390 l 1111 364 l 1111 339 l 1111 313 l 1085 313 l 1058 313 l 1033 313 l 1007 313 l 981 313 l 956 313 l 929 313 l 903 313 l 876 313 l 850 313 l 825 313 l 799 313 l 799 286 l 799 261 l 799 235 l 799 208 l 799 182 l 799 156 l 799 131 l 799 104 l 799 78 l 799 53 l 799 26 l 799 0 l 772 0 l 747 0 l 721 0 l 694 0 l 668 0 l 642 0 l 617 0 l 590 0 l 590 26 l 590 53 l 590 78 l 590 104 l 590 131 l 590 156 l 590 182 l 590 208 l 590 235 l 590 261 l 590 286 l 590 313 l 564 313 l 539 313 l 513 313 l 486 313 l 460 313 l 433 313 l 408 313 l 382 313 l 356 313 l 331 313 l 304 313 l 278 313 l 278 339 l 278 364 l 278 390 l 278 417 l 278 443 l 278 469 l 278 494 l 278 521 l 304 521 l 331 521 l 356 521 l 382 521 l 408 521 l 433 521 l 460 521 l 486 521 l 513 521 l 539 521 l 564 521 l 590 521 l 590 547 l 590 572 l 590 599 l 590 625 l 590 651 l 590 678 l 590 703 l 590 729 l 590 756 l 590 781 l 590 807 l 590 833 l 617 833 l 642 833 l 668 833 l 694 833 l 721 833 l 747 833 l 772 833 l 799 833 l 799 807 l 799 781 l 799 756 l 799 729 l 799 703 l 799 678 l 799 651 l 799 625 l 799 599 l 799 572 l 799 547 l 799 521 l 825 521 l 850 521 l 876 521 l 903 521 l 929 521 l 956 521 l 981 521 l 1007 521 l 1033 521 l 1058 521 l 1085 521 z "},"\u000b":{"ha":1389,"x_min":538,"x_max":851,"o":"m 825 131 l 850 131 l 850 104 l 850 78 l 825 78 l 825 53 l 825 26 l 799 26 l 799 0 l 799 -26 l 772 -26 l 772 -53 l 772 -78 l 747 -78 l 747 -104 l 747 -131 l 721 -131 l 694 -131 l 668 -131 l 642 -131 l 617 -131 l 590 -131 l 564 -131 l 539 -131 l 539 -104 l 539 -78 l 564 -78 l 564 -53 l 564 -26 l 590 -26 l 590 0 l 590 26 l 617 26 l 617 53 l 617 78 l 642 78 l 642 104 l 642 131 l 668 131 l 694 131 l 721 131 l 747 131 l 772 131 l 799 131 l 825 131 z "},"\f":{"ha":1389,"x_min":278,"x_max":1111,"o":"m 1085 521 l 1111 521 l 1111 494 l 1111 469 l 1111 443 l 1111 417 l 1111 390 l 1111 364 l 1111 339 l 1111 313 l 1085 313 l 1058 313 l 1033 313 l 1007 313 l 981 313 l 956 313 l 929 313 l 903 313 l 876 313 l 850 313 l 825 313 l 799 313 l 772 313 l 747 313 l 721 313 l 694 313 l 668 313 l 642 313 l 617 313 l 590 313 l 564 313 l 539 313 l 513 313 l 486 313 l 460 313 l 433 313 l 408 313 l 382 313 l 356 313 l 331 313 l 304 313 l 278 313 l 278 339 l 278 364 l 278 390 l 278 417 l 278 443 l 278 469 l 278 494 l 278 521 l 304 521 l 331 521 l 356 521 l 382 521 l 408 521 l 433 521 l 460 521 l 486 521 l 513 521 l 539 521 l 564 521 l 590 521 l 617 521 l 642 521 l 668 521 l 694 521 l 721 521 l 747 521 l 772 521 l 799 521 l 825 521 l 850 521 l 876 521 l 903 521 l 929 521 l 956 521 l 981 521 l 1007 521 l 1033 521 l 1058 521 l 1085 521 z "},"\u000e":{"ha":1389,"x_min":278,"x_max":1111,"o":"m 1085 964 l 1111 964 l 1111 911 l 1085 911 l 1085 860 l 1058 860 l 1058 807 l 1033 807 l 1033 756 l 1007 756 l 1007 703 l 981 703 l 981 651 l 956 651 l 956 599 l 929 599 l 929 547 l 903 547 l 903 494 l 876 494 l 876 443 l 850 443 l 850 390 l 825 390 l 825 339 l 799 339 l 799 286 l 772 286 l 772 235 l 747 235 l 747 182 l 721 182 l 721 131 l 694 131 l 694 78 l 668 78 l 668 26 l 642 26 l 642 -26 l 617 -26 l 617 -78 l 590 -78 l 590 -131 l 278 -131 l 278 -78 l 304 -78 l 304 -26 l 331 -26 l 331 26 l 356 26 l 356 78 l 382 78 l 382 131 l 408 131 l 408 182 l 433 182 l 433 235 l 460 235 l 460 286 l 486 286 l 486 339 l 513 339 l 513 390 l 539 390 l 539 443 l 564 443 l 564 494 l 590 494 l 590 547 l 617 547 l 617 599 l 642 599 l 642 651 l 668 651 l 668 703 l 694 703 l 694 756 l 721 756 l 721 807 l 747 807 l 747 860 l 772 860 l 772 911 l 799 911 l 799 964 l 1085 964 z "},"\u000f":{"ha":1389,"x_min":278,"x_max":1111,"o":"m 1085 572 l 1111 572 l 1111 261 l 1085 261 l 1085 156 l 1058 156 l 1058 104 l 1033 104 l 1033 53 l 1007 53 l 1007 0 l 981 0 l 981 -26 l 956 -26 l 956 -53 l 929 -53 l 929 -78 l 876 -78 l 876 -104 l 772 -104 l 772 -131 l 617 -131 l 617 -104 l 513 -104 l 513 -78 l 460 -78 l 460 -53 l 433 -53 l 433 -26 l 408 -26 l 408 0 l 382 0 l 382 53 l 356 53 l 356 104 l 331 104 l 331 156 l 304 156 l 304 261 l 278 261 l 278 572 l 304 572 l 304 678 l 331 678 l 331 729 l 356 729 l 356 781 l 382 781 l 382 833 l 408 833 l 408 860 l 433 860 l 433 886 l 460 886 l 460 911 l 513 911 l 513 938 l 617 938 l 617 964 l 772 964 l 772 938 l 876 938 l 876 911 l 929 911 l 929 886 l 956 886 l 956 860 l 981 860 l 981 833 l 1007 833 l 1007 781 l 1033 781 l 1033 729 l 1058 729 l 1058 678 l 1085 678 l 1085 572 m 850 235 l 876 235 l 876 599 l 850 599 l 850 678 l 825 678 l 825 729 l 799 729 l 799 756 l 747 756 l 747 781 l 642 781 l 642 756 l 590 756 l 590 729 l 564 729 l 564 678 l 539 678 l 539 599 l 513 599 l 513 235 l 539 235 l 539 156 l 564 156 l 564 104 l 590 104 l 590 78 l 642 78 l 642 53 l 747 53 l 747 78 l 799 78 l 799 104 l 825 104 l 825 156 l 850 156 l 850 235 m 590 313 l 590 521 l 799 521 l 799 313 l 590 313 z "},"\u0010":{"ha":1389,"x_min":278,"x_max":1111,"o":"m 564 78 l 590 78 l 590 104 l 590 131 l 590 156 l 590 182 l 590 208 l 590 235 l 590 261 l 590 286 l 590 313 l 590 339 l 590 364 l 590 390 l 590 417 l 590 443 l 590 469 l 590 494 l 590 521 l 590 547 l 590 572 l 590 599 l 590 625 l 590 651 l 590 678 l 590 703 l 590 729 l 590 756 l 564 756 l 539 756 l 513 756 l 486 756 l 460 756 l 433 756 l 408 756 l 382 756 l 356 756 l 356 781 l 356 807 l 356 833 l 356 860 l 356 886 l 356 911 l 356 938 l 356 964 l 382 964 l 408 964 l 433 964 l 460 964 l 486 964 l 513 964 l 539 964 l 564 964 l 590 964 l 617 964 l 642 964 l 668 964 l 694 964 l 721 964 l 747 964 l 772 964 l 799 964 l 825 964 l 850 964 l 850 938 l 850 911 l 850 886 l 850 860 l 850 833 l 850 807 l 850 781 l 850 756 l 850 729 l 850 703 l 850 678 l 850 651 l 850 625 l 850 599 l 850 572 l 850 547 l 850 521 l 850 494 l 850 469 l 850 443 l 850 417 l 850 390 l 850 364 l 850 339 l 850 313 l 850 286 l 850 261 l 850 235 l 850 208 l 850 182 l 850 156 l 850 131 l 850 104 l 850 78 l 876 78 l 903 78 l 929 78 l 956 78 l 981 78 l 1007 78 l 1033 78 l 1058 78 l 1085 78 l 1111 78 l 1111 53 l 1111 51 l 1111 26 l 1111 0 l 1111 -26 l 1111 -53 l 1111 -78 l 1111 -104 l 1111 -131 l 1085 -131 l 1058 -131 l 1033 -131 l 1007 -131 l 981 -131 l 956 -131 l 929 -131 l 903 -131 l 876 -131 l 850 -131 l 825 -131 l 799 -131 l 772 -131 l 747 -131 l 721 -131 l 694 -131 l 668 -131 l 642 -131 l 617 -131 l 590 -131 l 564 -131 l 539 -131 l 513 -131 l 486 -131 l 460 -131 l 433 -131 l 408 -131 l 382 -131 l 356 -131 l 331 -131 l 304 -131 l 278 -131 l 278 -104 l 278 -78 l 278 -53 l 278 -26 l 278 0 l 278 26 l 278 51 l 278 53 l 278 78 l 304 78 l 331 78 l 356 78 l 382 78 l 408 78 l 433 78 l 460 78 l 486 78 l 513 78 l 539 78 l 564 78 z "},"\u0011":{"ha":1389,"x_min":278,"x_max":1111,"o":"m 1085 964 l 1111 964 l 1111 938 l 1111 911 l 1111 886 l 1111 860 l 1111 833 l 1111 807 l 1111 781 l 1111 756 l 1111 729 l 1111 703 l 1111 678 l 1111 651 l 1111 625 l 1111 599 l 1111 572 l 1111 547 l 1111 521 l 1111 494 l 1111 469 l 1111 443 l 1111 417 l 1111 390 l 1111 364 l 1111 339 l 1111 313 l 1085 313 l 1058 313 l 1033 313 l 1007 313 l 981 313 l 956 313 l 929 313 l 903 313 l 876 313 l 850 313 l 825 313 l 799 313 l 772 313 l 747 313 l 721 313 l 694 313 l 668 313 l 642 313 l 617 313 l 590 313 l 564 313 l 539 313 l 513 313 l 513 286 l 513 261 l 513 235 l 513 208 l 513 182 l 513 156 l 513 131 l 513 104 l 513 78 l 539 78 l 564 78 l 590 78 l 617 78 l 642 78 l 668 78 l 694 78 l 721 78 l 747 78 l 772 78 l 799 78 l 825 78 l 850 78 l 876 78 l 903 78 l 929 78 l 956 78 l 981 78 l 1007 78 l 1033 78 l 1058 78 l 1085 78 l 1111 78 l 1111 53 l 1111 26 l 1111 0 l 1111 -26 l 1111 -53 l 1111 -78 l 1111 -104 l 1111 -131 l 1085 -131 l 1058 -131 l 1033 -131 l 1007 -131 l 981 -131 l 956 -131 l 929 -131 l 903 -131 l 876 -131 l 850 -131 l 825 -131 l 799 -131 l 772 -131 l 747 -131 l 721 -131 l 694 -131 l 668 -131 l 642 -131 l 617 -131 l 590 -131 l 564 -131 l 539 -131 l 513 -131 l 486 -131 l 460 -131 l 433 -131 l 408 -131 l 382 -131 l 356 -131 l 331 -131 l 304 -131 l 278 -131 l 278 -104 l 278 -78 l 278 -53 l 278 -26 l 278 0 l 278 26 l 278 53 l 278 78 l 278 104 l 278 131 l 278 156 l 278 182 l 278 208 l 278 235 l 278 261 l 278 286 l 278 313 l 278 339 l 278 364 l 278 390 l 278 417 l 278 443 l 278 469 l 278 494 l 278 521 l 304 521 l 331 521 l 356 521 l 382 521 l 408 521 l 433 521 l 460 521 l 486 521 l 513 521 l 539 521 l 564 521 l 590 521 l 617 521 l 642 521 l 668 521 l 694 521 l 721 521 l 747 521 l 772 521 l 799 521 l 825 521 l 850 521 l 850 547 l 850 572 l 850 599 l 850 625 l 850 651 l 850 678 l 850 703 l 850 729 l 850 756 l 825 756 l 799 756 l 772 756 l 747 756 l 721 756 l 694 756 l 668 756 l 642 756 l 617 756 l 590 756 l 564 756 l 539 756 l 513 756 l 486 756 l 460 756 l 433 756 l 408 756 l 382 756 l 356 756 l 331 756 l 304 756 l 278 756 l 278 781 l 278 807 l 278 833 l 278 860 l 278 886 l 278 911 l 278 938 l 278 964 l 304 964 l 331 964 l 356 964 l 382 964 l 408 964 l 433 964 l 460 964 l 486 964 l 513 964 l 539 964 l 564 964 l 590 964 l 617 964 l 642 964 l 668 964 l 694 964 l 721 964 l 747 964 l 772 964 l 799 964 l 825 964 l 850 964 l 876 964 l 903 964 l 929 964 l 956 964 l 981 964 l 1007 964 l 1033 964 l 1058 964 l 1085 964 z "},"\u0012":{"ha":1389,"x_min":278,"x_max":1111,"o":"m 1085 964 l 1111 964 l 1111 938 l 1111 911 l 1111 886 l 1111 860 l 1111 833 l 1111 807 l 1111 781 l 1111 756 l 1111 729 l 1111 703 l 1111 678 l 1111 651 l 1111 625 l 1111 599 l 1111 572 l 1111 547 l 1111 521 l 1111 494 l 1111 469 l 1111 443 l 1111 417 l 1111 390 l 1111 364 l 1111 339 l 1111 313 l 1111 286 l 1111 261 l 1111 235 l 1111 208 l 1111 182 l 1111 156 l 1111 131 l 1111 104 l 1111 78 l 1111 53 l 1111 26 l 1111 0 l 1111 -26 l 1111 -53 l 1111 -78 l 1111 -104 l 1111 -131 l 1085 -131 l 1058 -131 l 1033 -131 l 1007 -131 l 981 -131 l 956 -131 l 929 -131 l 903 -131 l 876 -131 l 850 -131 l 825 -131 l 799 -131 l 772 -131 l 747 -131 l 721 -131 l 694 -131 l 668 -131 l 642 -131 l 617 -131 l 590 -131 l 564 -131 l 539 -131 l 513 -131 l 486 -131 l 460 -131 l 433 -131 l 408 -131 l 382 -131 l 356 -131 l 331 -131 l 304 -131 l 278 -131 l 278 -104 l 278 -78 l 278 -53 l 278 -26 l 278 0 l 278 26 l 278 53 l 278 78 l 304 78 l 331 78 l 356 78 l 382 78 l 408 78 l 433 78 l 460 78 l 486 78 l 513 78 l 539 78 l 564 78 l 590 78 l 617 78 l 642 78 l 668 78 l 694 78 l 721 78 l 747 78 l 772 78 l 799 78 l 825 78 l 850 78 l 876 78 l 876 104 l 876 131 l 876 156 l 876 182 l 876 208 l 876 235 l 876 261 l 876 286 l 876 313 l 850 313 l 825 313 l 799 313 l 772 313 l 747 313 l 721 313 l 694 313 l 668 313 l 642 313 l 617 313 l 590 313 l 564 313 l 539 313 l 513 313 l 486 313 l 460 313 l 433 313 l 408 313 l 382 313 l 356 313 l 356 339 l 356 364 l 356 390 l 356 417 l 356 443 l 356 469 l 356 494 l 356 521 l 382 521 l 408 521 l 433 521 l 460 521 l 486 521 l 513 521 l 539 521 l 564 521 l 590 521 l 617 521 l 642 521 l 668 521 l 694 521 l 721 521 l 747 521 l 772 521 l 799 521 l 825 521 l 850 521 l 850 547 l 850 572 l 850 599 l 850 625 l 850 651 l 850 678 l 850 703 l 850 729 l 850 756 l 825 756 l 799 756 l 772 756 l 747 756 l 721 756 l 694 756 l 668 756 l 642 756 l 617 756 l 590 756 l 564 756 l 539 756 l 513 756 l 486 756 l 460 756 l 433 756 l 408 756 l 382 756 l 356 756 l 331 756 l 304 756 l 278 756 l 278 781 l 278 807 l 278 833 l 278 860 l 278 886 l 278 911 l 278 938 l 278 964 l 304 964 l 331 964 l 356 964 l 382 964 l 408 964 l 433 964 l 460 964 l 486 964 l 513 964 l 539 964 l 564 964 l 590 964 l 617 964 l 642 964 l 668 964 l 694 964 l 721 964 l 747 964 l 772 964 l 799 964 l 825 964 l 850 964 l 876 964 l 903 964 l 929 964 l 956 964 l 981 964 l 1007 964 l 1033 964 l 1058 964 l 1085 964 z "},"\u0013":{"ha":1389,"x_min":278,"x_max":1111,"o":"m 772 339 l 772 390 l 981 390 l 981 235 l 1111 235 l 1111 26 l 981 26 l 981 -131 l 772 -131 l 772 26 l 278 26 l 278 131 l 278 156 l 278 182 l 278 208 l 278 235 l 278 390 l 278 417 l 304 417 l 304 443 l 331 443 l 331 494 l 356 494 l 356 521 l 382 521 l 382 547 l 408 547 l 408 599 l 433 599 l 433 625 l 460 625 l 460 651 l 486 651 l 486 703 l 513 703 l 513 729 l 539 729 l 539 756 l 564 756 l 564 807 l 590 807 l 590 833 l 617 833 l 617 860 l 642 860 l 642 911 l 668 911 l 668 938 l 694 938 l 694 964 l 981 964 l 981 938 l 956 938 l 956 911 l 929 911 l 929 860 l 903 860 l 903 833 l 876 833 l 876 807 l 850 807 l 850 756 l 825 756 l 825 729 l 799 729 l 799 703 l 772 703 l 772 651 l 747 651 l 747 625 l 721 625 l 721 599 l 694 599 l 694 547 l 668 547 l 668 521 l 642 521 l 642 494 l 617 494 l 617 443 l 590 443 l 590 417 l 564 417 l 564 390 l 539 390 l 539 364 l 539 339 l 513 339 l 513 235 l 772 235 l 772 339 z "},"\u0014":{"ha":1389,"x_min":278,"x_max":1111,"o":"m 1085 964 l 1111 964 l 1111 938 l 1111 911 l 1111 886 l 1111 860 l 1111 833 l 1111 807 l 1111 781 l 1111 756 l 1085 756 l 1058 756 l 1033 756 l 1007 756 l 981 756 l 956 756 l 929 756 l 903 756 l 876 756 l 850 756 l 825 756 l 799 756 l 772 756 l 747 756 l 721 756 l 694 756 l 668 756 l 642 756 l 617 756 l 590 756 l 564 756 l 539 756 l 539 729 l 539 703 l 539 678 l 539 651 l 539 625 l 539 599 l 539 572 l 539 547 l 539 521 l 564 521 l 590 521 l 617 521 l 642 521 l 668 521 l 694 521 l 721 521 l 747 521 l 772 521 l 799 521 l 825 521 l 850 521 l 876 521 l 903 521 l 929 521 l 956 521 l 981 521 l 1007 521 l 1033 521 l 1058 521 l 1085 521 l 1111 521 l 1111 494 l 1111 469 l 1111 443 l 1111 417 l 1111 390 l 1111 364 l 1111 339 l 1111 313 l 1111 286 l 1111 261 l 1111 235 l 1111 208 l 1111 182 l 1111 156 l 1111 131 l 1111 104 l 1111 78 l 1111 53 l 1111 26 l 1111 0 l 1111 -26 l 1111 -53 l 1111 -78 l 1111 -104 l 1111 -131 l 1085 -131 l 1058 -131 l 1033 -131 l 1007 -131 l 981 -131 l 956 -131 l 929 -131 l 903 -131 l 876 -131 l 850 -131 l 825 -131 l 799 -131 l 772 -131 l 747 -131 l 721 -131 l 694 -131 l 668 -131 l 642 -131 l 617 -131 l 590 -131 l 564 -131 l 539 -131 l 513 -131 l 486 -131 l 460 -131 l 433 -131 l 408 -131 l 382 -131 l 356 -131 l 331 -131 l 304 -131 l 278 -131 l 278 -104 l 278 -78 l 278 -53 l 278 -26 l 278 0 l 278 26 l 278 53 l 278 78 l 304 78 l 331 78 l 356 78 l 382 78 l 408 78 l 433 78 l 460 78 l 486 78 l 513 78 l 539 78 l 564 78 l 590 78 l 617 78 l 642 78 l 668 78 l 694 78 l 721 78 l 747 78 l 772 78 l 799 78 l 825 78 l 850 78 l 876 78 l 876 104 l 876 131 l 876 156 l 876 182 l 876 208 l 876 235 l 876 261 l 876 286 l 876 313 l 850 313 l 825 313 l 799 313 l 772 313 l 747 313 l 721 313 l 694 313 l 668 313 l 642 313 l 617 313 l 590 313 l 564 313 l 539 313 l 513 313 l 486 313 l 460 313 l 433 313 l 408 313 l 382 313 l 356 313 l 331 313 l 304 313 l 278 313 l 278 339 l 278 364 l 278 390 l 278 417 l 278 443 l 278 469 l 278 494 l 278 521 l 278 547 l 278 572 l 278 599 l 278 625 l 278 651 l 278 678 l 278 703 l 278 729 l 278 756 l 278 781 l 278 807 l 278 833 l 278 860 l 278 886 l 278 911 l 278 938 l 278 964 l 304 964 l 331 964 l 356 964 l 382 964 l 408 964 l 433 964 l 460 964 l 486 964 l 513 964 l 539 964 l 564 964 l 590 964 l 617 964 l 642 964 l 668 964 l 694 964 l 721 964 l 747 964 l 772 964 l 799 964 l 825 964 l 850 964 l 876 964 l 903 964 l 929 964 l 956 964 l 981 964 l 1007 964 l 1033 964 l 1058 964 l 1085 964 z "},"\u0015":{"ha":1389,"x_min":278,"x_max":1111,"o":"m 1085 964 l 1111 964 l 1111 756 l 539 756 l 539 521 l 1111 521 l 1111 -131 l 278 -131 l 278 964 l 1085 964 m 876 286 l 876 313 l 539 313 l 539 78 l 876 78 l 876 286 z "},"\u0016":{"ha":1389,"x_min":278,"x_max":1111,"o":"m 1085 964 l 1111 964 l 1111 938 l 1111 911 l 1111 886 l 1111 860 l 1111 833 l 1111 807 l 1111 781 l 1111 756 l 1111 729 l 1111 703 l 1111 678 l 1111 651 l 1085 651 l 1085 625 l 1085 599 l 1058 599 l 1058 572 l 1058 547 l 1033 547 l 1033 521 l 1033 494 l 1007 494 l 1007 469 l 1007 443 l 981 443 l 981 417 l 981 390 l 956 390 l 956 364 l 956 339 l 929 339 l 929 313 l 929 286 l 903 286 l 903 261 l 903 235 l 876 235 l 876 208 l 876 182 l 850 182 l 850 156 l 850 131 l 825 131 l 825 104 l 825 78 l 799 78 l 799 53 l 799 26 l 772 26 l 772 0 l 772 -26 l 747 -26 l 747 -53 l 747 -78 l 721 -78 l 721 -104 l 721 -131 l 694 -131 l 668 -131 l 642 -131 l 617 -131 l 590 -131 l 564 -131 l 539 -131 l 513 -131 l 486 -131 l 486 -104 l 486 -78 l 513 -78 l 513 -53 l 513 -26 l 539 -26 l 539 0 l 539 26 l 564 26 l 564 53 l 564 78 l 590 78 l 590 104 l 590 131 l 617 131 l 617 156 l 617 182 l 642 182 l 642 208 l 642 235 l 668 235 l 668 261 l 668 286 l 694 286 l 694 313 l 694 339 l 721 339 l 721 364 l 721 390 l 747 390 l 747 417 l 747 443 l 772 443 l 772 469 l 772 494 l 799 494 l 799 521 l 799 547 l 825 547 l 825 572 l 825 599 l 850 599 l 850 625 l 850 651 l 876 651 l 876 678 l 876 703 l 876 729 l 876 756 l 850 756 l 825 756 l 799 756 l 772 756 l 747 756 l 721 756 l 694 756 l 668 756 l 642 756 l 617 756 l 590 756 l 564 756 l 539 756 l 513 756 l 486 756 l 460 756 l 433 756 l 408 756 l 382 756 l 356 756 l 331 756 l 304 756 l 278 756 l 278 781 l 278 807 l 278 833 l 278 860 l 278 886 l 278 911 l 278 938 l 278 964 l 304 964 l 331 964 l 356 964 l 382 964 l 408 964 l 433 964 l 460 964 l 486 964 l 513 964 l 539 964 l 564 964 l 590 964 l 617 964 l 642 964 l 668 964 l 694 964 l 721 964 l 747 964 l 772 964 l 799 964 l 825 964 l 850 964 l 876 964 l 903 964 l 929 964 l 956 964 l 981 964 l 1007 964 l 1033 964 l 1058 964 l 1085 964 z "},"\u0017":{"ha":1389,"x_min":278,"x_max":1111,"o":"m 1085 521 l 1111 521 l 1111 -131 l 278 -131 l 278 521 l 331 521 l 331 964 l 1058 964 l 1058 521 l 1085 521 m 513 104 l 513 78 l 876 78 l 876 313 l 513 313 l 513 104 m 825 729 l 825 756 l 564 756 l 564 521 l 825 521 l 825 729 z "},"\u0018":{"ha":1389,"x_min":278,"x_max":1111,"o":"m 1085 964 l 1111 964 l 1111 -131 l 278 -131 l 278 78 l 850 78 l 850 313 l 278 313 l 278 964 l 1085 964 m 513 547 l 513 521 l 850 521 l 850 756 l 513 756 l 513 547 z "},"\u0019":{"ha":1389,"x_min":590,"x_max":799,"o":"m 590 104 l 590 313 l 799 313 l 799 104 l 590 104 m 590 521 l 590 729 l 799 729 l 799 521 l 590 521 z "},"\u001a":{"ha":1389,"x_min":550,"x_max":839,"o":"m 629 521 l 629 729 l 838 729 l 838 521 l 629 521 m 786 313 l 811 313 l 838 313 l 838 286 l 838 261 l 811 261 l 811 235 l 811 208 l 786 208 l 786 182 l 786 156 l 760 156 l 760 131 l 760 104 l 733 104 l 707 104 l 682 104 l 656 104 l 629 104 l 603 104 l 578 104 l 551 104 l 551 131 l 551 156 l 578 156 l 578 182 l 578 208 l 603 208 l 603 235 l 603 261 l 629 261 l 629 286 l 629 313 l 656 313 l 682 313 l 707 313 l 733 313 l 760 313 l 786 313 z "},"\u001b":{"ha":1389,"x_min":278,"x_max":1111,"o":"m 1067 746 l 1111 746 l 1111 701 l 1111 658 l 1111 614 l 1111 571 l 1111 526 l 1067 526 l 1024 526 l 1024 482 l 979 482 l 936 482 l 892 482 l 849 482 l 849 439 l 804 439 l 760 439 l 717 439 l 672 439 l 672 394 l 717 394 l 760 394 l 804 394 l 849 394 l 849 351 l 892 351 l 936 351 l 979 351 l 1024 351 l 1024 307 l 1067 307 l 1111 307 l 1111 263 l 1111 219 l 1111 175 l 1111 132 l 1111 88 l 1067 88 l 1024 88 l 979 88 l 936 88 l 936 132 l 892 132 l 849 132 l 804 132 l 760 132 l 760 175 l 717 175 l 672 175 l 629 175 l 585 175 l 585 219 l 540 219 l 497 219 l 453 219 l 410 219 l 410 263 l 365 263 l 322 263 l 278 263 l 278 307 l 278 351 l 278 394 l 278 439 l 278 482 l 278 526 l 278 571 l 322 571 l 365 571 l 410 571 l 410 614 l 453 614 l 497 614 l 540 614 l 585 614 l 585 658 l 629 658 l 672 658 l 717 658 l 760 658 l 760 701 l 804 701 l 849 701 l 892 701 l 936 701 l 936 746 l 979 746 l 1024 746 l 1067 746 z "},"\u001c":{"ha":1389,"x_min":278,"x_max":1111,"o":"m 1085 729 l 1111 729 l 1111 703 l 1111 678 l 1111 651 l 1111 625 l 1111 599 l 1111 572 l 1111 547 l 1111 521 l 1085 521 l 1058 521 l 1033 521 l 1007 521 l 981 521 l 956 521 l 929 521 l 903 521 l 876 521 l 850 521 l 825 521 l 799 521 l 772 521 l 747 521 l 721 521 l 694 521 l 668 521 l 642 521 l 617 521 l 590 521 l 564 521 l 539 521 l 513 521 l 486 521 l 460 521 l 433 521 l 408 521 l 382 521 l 356 521 l 331 521 l 304 521 l 278 521 l 278 547 l 278 572 l 278 599 l 278 625 l 278 651 l 278 678 l 278 703 l 278 729 l 304 729 l 331 729 l 356 729 l 382 729 l 408 729 l 433 729 l 460 729 l 486 729 l 513 729 l 539 729 l 564 729 l 590 729 l 617 729 l 642 729 l 668 729 l 694 729 l 721 729 l 747 729 l 772 729 l 799 729 l 825 729 l 850 729 l 876 729 l 903 729 l 929 729 l 956 729 l 981 729 l 1007 729 l 1033 729 l 1058 729 l 1085 729 m 1058 313 l 1085 313 l 1111 313 l 1111 286 l 1111 261 l 1111 235 l 1111 208 l 1111 182 l 1111 156 l 1111 131 l 1111 104 l 1085 104 l 1058 104 l 1033 104 l 1007 104 l 981 104 l 956 104 l 929 104 l 903 104 l 876 104 l 850 104 l 825 104 l 799 104 l 772 104 l 747 104 l 721 104 l 694 104 l 668 104 l 642 104 l 617 104 l 590 104 l 564 104 l 539 104 l 513 104 l 486 104 l 460 104 l 433 104 l 408 104 l 382 104 l 356 104 l 331 104 l 304 104 l 278 104 l 278 131 l 278 156 l 278 182 l 278 208 l 278 235 l 278 261 l 278 286 l 278 313 l 304 313 l 331 313 l 356 313 l 382 313 l 408 313 l 433 313 l 460 313 l 486 313 l 513 313 l 539 313 l 564 313 l 590 313 l 617 313 l 642 313 l 668 313 l 694 313 l 721 313 l 747 313 l 772 313 l 799 313 l 825 313 l 850 313 l 876 313 l 903 313 l 929 313 l 956 313 l 981 313 l 1007 313 l 1033 313 l 1058 313 z "},"\u001d":{"ha":1389,"x_min":278,"x_max":1111,"o":"m 1067 571 l 1111 571 l 1111 526 l 1111 482 l 1111 439 l 1111 394 l 1111 351 l 1111 307 l 1111 263 l 1067 263 l 1024 263 l 979 263 l 979 219 l 936 219 l 892 219 l 849 219 l 804 219 l 804 175 l 760 175 l 717 175 l 672 175 l 629 175 l 629 132 l 585 132 l 540 132 l 497 132 l 453 132 l 453 88 l 410 88 l 365 88 l 322 88 l 278 88 l 278 132 l 278 175 l 278 219 l 278 263 l 278 307 l 322 307 l 365 307 l 365 351 l 410 351 l 453 351 l 497 351 l 540 351 l 540 394 l 585 394 l 629 394 l 672 394 l 717 394 l 717 439 l 672 439 l 629 439 l 585 439 l 540 439 l 540 482 l 497 482 l 453 482 l 410 482 l 365 482 l 365 526 l 322 526 l 278 526 l 278 571 l 278 614 l 278 658 l 278 701 l 278 746 l 322 746 l 365 746 l 410 746 l 453 746 l 453 701 l 497 701 l 540 701 l 585 701 l 629 701 l 629 658 l 672 658 l 717 658 l 760 658 l 804 658 l 804 614 l 849 614 l 892 614 l 936 614 l 979 614 l 979 571 l 1024 571 l 1067 571 z "},"\u001e":{"ha":1389,"x_min":278,"x_max":1111,"o":"m 694 -131 l 694 -104 l 721 -104 l 721 -131 l 694 -131 m 668 -131 l 668 -104 l 694 -104 l 694 -131 l 668 -131 m 642 -131 l 642 -104 l 668 -104 l 668 -131 l 642 -131 m 617 -131 l 617 -104 l 642 -104 l 642 -131 l 617 -131 m 590 -131 l 590 -104 l 617 -104 l 617 -131 l 590 -131 m 564 -131 l 564 -104 l 590 -104 l 590 -131 l 564 -131 m 539 -131 l 539 -104 l 564 -104 l 564 -131 l 539 -131 m 513 -131 l 513 -104 l 539 -104 l 539 -131 l 513 -131 m 694 -104 l 694 -78 l 721 -78 l 721 -104 l 694 -104 m 668 -104 l 668 -78 l 694 -78 l 694 -104 l 668 -104 m 642 -104 l 642 -78 l 668 -78 l 668 -104 l 642 -104 m 617 -104 l 617 -78 l 642 -78 l 642 -104 l 617 -104 m 590 -104 l 590 -78 l 617 -78 l 617 -104 l 590 -104 m 564 -104 l 564 -78 l 590 -78 l 590 -104 l 564 -104 m 539 -104 l 539 -78 l 564 -78 l 564 -104 l 539 -104 m 513 -104 l 513 -78 l 539 -78 l 539 -104 l 513 -104 m 694 -78 l 694 -53 l 721 -53 l 721 -78 l 694 -78 m 668 -78 l 668 -53 l 694 -53 l 694 -78 l 668 -78 m 642 -78 l 642 -53 l 668 -53 l 668 -78 l 642 -78 m 617 -78 l 617 -53 l 642 -53 l 642 -78 l 617 -78 m 590 -78 l 590 -53 l 617 -53 l 617 -78 l 590 -78 m 564 -78 l 564 -53 l 590 -53 l 590 -78 l 564 -78 m 539 -78 l 539 -53 l 564 -53 l 564 -78 l 539 -78 m 513 -78 l 513 -53 l 539 -53 l 539 -78 l 513 -78 m 694 -53 l 694 -26 l 721 -26 l 721 -53 l 694 -53 m 668 -53 l 668 -26 l 694 -26 l 694 -53 l 668 -53 m 642 -53 l 642 -26 l 668 -26 l 668 -53 l 642 -53 m 617 -53 l 617 -26 l 642 -26 l 642 -53 l 617 -53 m 590 -53 l 590 -26 l 617 -26 l 617 -53 l 590 -53 m 564 -53 l 564 -26 l 590 -26 l 590 -53 l 564 -53 m 539 -53 l 539 -26 l 564 -26 l 564 -53 l 539 -53 m 513 -53 l 513 -26 l 539 -26 l 539 -53 l 513 -53 m 694 -26 l 694 0 l 721 0 l 721 -26 l 694 -26 m 668 -26 l 668 0 l 694 0 l 694 -26 l 668 -26 m 642 -26 l 642 0 l 668 0 l 668 -26 l 642 -26 m 617 -26 l 617 0 l 642 0 l 642 -26 l 617 -26 m 590 -26 l 590 0 l 617 0 l 617 -26 l 590 -26 m 564 -26 l 564 0 l 590 0 l 590 -26 l 564 -26 m 539 -26 l 539 0 l 564 0 l 564 -26 l 539 -26 m 513 -26 l 513 0 l 539 0 l 539 -26 l 513 -26 m 694 0 l 694 26 l 721 26 l 721 0 l 694 0 m 668 0 l 668 26 l 694 26 l 694 0 l 668 0 m 642 0 l 642 26 l 668 26 l 668 0 l 642 0 m 617 0 l 617 26 l 642 26 l 642 0 l 617 0 m 590 0 l 590 26 l 617 26 l 617 0 l 590 0 m 564 0 l 564 26 l 590 26 l 590 0 l 564 0 m 539 0 l 539 26 l 564 26 l 564 0 l 539 0 m 513 0 l 513 26 l 539 26 l 539 0 l 513 0 m 694 26 l 694 53 l 721 53 l 721 26 l 694 26 m 668 26 l 668 53 l 694 53 l 694 26 l 668 26 m 642 26 l 642 53 l 668 53 l 668 26 l 642 26 m 617 26 l 617 53 l 642 53 l 642 26 l 617 26 m 590 26 l 590 53 l 617 53 l 617 26 l 590 26 m 564 26 l 564 53 l 590 53 l 590 26 l 564 26 m 539 26 l 539 53 l 564 53 l 564 26 l 539 26 m 513 26 l 513 53 l 539 53 l 539 26 l 513 26 m 694 53 l 694 78 l 721 78 l 721 53 l 694 53 m 668 53 l 668 78 l 694 78 l 694 53 l 668 53 m 642 53 l 642 78 l 668 78 l 668 53 l 642 53 m 617 53 l 617 78 l 642 78 l 642 53 l 617 53 m 590 53 l 590 78 l 617 78 l 617 53 l 590 53 m 564 53 l 564 78 l 590 78 l 590 53 l 564 53 m 539 53 l 539 78 l 564 78 l 564 53 l 539 53 m 513 53 l 513 78 l 539 78 l 539 53 l 513 53 m 694 156 l 694 182 l 721 182 l 721 156 l 694 156 m 668 156 l 668 182 l 694 182 l 694 156 l 668 156 m 642 156 l 642 182 l 668 182 l 668 156 l 642 156 m 617 156 l 617 182 l 642 182 l 642 156 l 617 156 m 590 156 l 590 182 l 617 182 l 617 156 l 590 156 m 564 156 l 564 182 l 590 182 l 590 156 l 564 156 m 539 156 l 539 182 l 564 182 l 564 156 l 539 156 m 513 156 l 513 182 l 539 182 l 539 156 l 513 156 m 694 182 l 694 208 l 721 208 l 721 182 l 694 182 m 668 182 l 668 208 l 694 208 l 694 182 l 668 182 m 642 182 l 642 208 l 668 208 l 668 182 l 642 182 m 617 182 l 617 208 l 642 208 l 642 182 l 617 182 m 590 182 l 590 208 l 617 208 l 617 182 l 590 182 m 564 182 l 564 208 l 590 208 l 590 182 l 564 182 m 539 182 l 539 208 l 564 208 l 564 182 l 539 182 m 513 182 l 513 208 l 539 208 l 539 182 l 513 182 m 694 208 l 694 235 l 721 235 l 721 208 l 694 208 m 668 208 l 668 235 l 694 235 l 694 208 l 668 208 m 642 208 l 642 235 l 668 235 l 668 208 l 642 208 m 617 208 l 617 235 l 642 235 l 642 208 l 617 208 m 590 208 l 590 235 l 617 235 l 617 208 l 590 208 m 564 208 l 564 235 l 590 235 l 590 208 l 564 208 m 539 208 l 539 235 l 564 235 l 564 208 l 539 208 m 513 208 l 513 235 l 539 235 l 539 208 l 513 208 m 694 235 l 694 261 l 721 261 l 721 235 l 694 235 m 668 235 l 668 261 l 694 261 l 694 235 l 668 235 m 642 235 l 642 261 l 668 261 l 668 235 l 642 235 m 617 235 l 617 261 l 642 261 l 642 235 l 617 235 m 590 235 l 590 261 l 617 261 l 617 235 l 590 235 m 564 235 l 564 261 l 590 261 l 590 235 l 564 235 m 539 235 l 539 261 l 564 261 l 564 235 l 539 235 m 513 235 l 513 261 l 539 261 l 539 235 l 513 235 m 694 261 l 694 286 l 721 286 l 721 261 l 694 261 m 668 261 l 668 286 l 694 286 l 694 261 l 668 261 m 642 261 l 642 286 l 668 286 l 668 261 l 642 261 m 617 261 l 617 286 l 642 286 l 642 261 l 617 261 m 590 261 l 590 286 l 617 286 l 617 261 l 590 261 m 564 261 l 564 286 l 590 286 l 590 261 l 564 261 m 539 261 l 539 286 l 564 286 l 564 261 l 539 261 m 513 261 l 513 286 l 539 286 l 539 261 l 513 261 m 694 286 l 694 313 l 721 313 l 721 286 l 694 286 m 668 286 l 668 313 l 694 313 l 694 286 l 668 286 m 642 286 l 642 313 l 668 313 l 668 286 l 642 286 m 617 286 l 617 313 l 642 313 l 642 286 l 617 286 m 590 286 l 590 313 l 617 313 l 617 286 l 590 286 m 564 286 l 564 313 l 590 313 l 590 286 l 564 286 m 539 286 l 539 313 l 564 313 l 564 286 l 539 286 m 513 286 l 513 313 l 539 313 l 539 286 l 513 286 m 1085 313 l 1085 339 l 1111 339 l 1111 313 l 1085 313 m 1058 313 l 1058 339 l 1085 339 l 1085 313 l 1058 313 m 1033 313 l 1033 339 l 1058 339 l 1058 313 l 1033 313 m 1007 313 l 1007 339 l 1033 339 l 1033 313 l 1007 313 m 981 313 l 981 339 l 1007 339 l 1007 313 l 981 313 m 956 313 l 956 339 l 981 339 l 981 313 l 956 313 m 929 313 l 929 339 l 956 339 l 956 313 l 929 313 m 903 313 l 903 339 l 929 339 l 929 313 l 903 313 m 876 313 l 876 339 l 903 339 l 903 313 l 876 313 m 850 313 l 850 339 l 876 339 l 876 313 l 850 313 m 825 313 l 825 339 l 850 339 l 850 313 l 825 313 m 799 313 l 799 339 l 825 339 l 825 313 l 799 313 m 772 313 l 772 339 l 799 339 l 799 313 l 772 313 m 747 313 l 747 339 l 772 339 l 772 313 l 747 313 m 721 313 l 721 339 l 747 339 l 747 313 l 721 313 m 694 313 l 694 339 l 721 339 l 721 313 l 694 313 m 668 313 l 668 339 l 694 339 l 694 313 l 668 313 m 642 313 l 642 339 l 668 339 l 668 313 l 642 313 m 617 313 l 617 339 l 642 339 l 642 313 l 617 313 m 590 313 l 590 339 l 617 339 l 617 313 l 590 313 m 564 313 l 564 339 l 590 339 l 590 313 l 564 313 m 694 313 l 694 339 l 721 339 l 721 313 l 694 313 m 668 313 l 668 339 l 694 339 l 694 313 l 668 313 m 642 313 l 642 339 l 668 339 l 668 313 l 642 313 m 617 313 l 617 339 l 642 339 l 642 313 l 617 313 m 590 313 l 590 339 l 617 339 l 617 313 l 590 313 m 564 313 l 564 339 l 590 339 l 590 313 l 564 313 m 539 313 l 539 339 l 564 339 l 564 313 l 539 313 m 513 313 l 513 339 l 539 339 l 539 313 l 513 313 m 1085 339 l 1085 364 l 1111 364 l 1111 339 l 1085 339 m 1058 339 l 1058 364 l 1085 364 l 1085 339 l 1058 339 m 1033 339 l 1033 364 l 1058 364 l 1058 339 l 1033 339 m 1007 339 l 1007 364 l 1033 364 l 1033 339 l 1007 339 m 981 339 l 981 364 l 1007 364 l 1007 339 l 981 339 m 956 339 l 956 364 l 981 364 l 981 339 l 956 339 m 929 339 l 929 364 l 956 364 l 956 339 l 929 339 m 903 339 l 903 364 l 929 364 l 929 339 l 903 339 m 876 339 l 876 364 l 903 364 l 903 339 l 876 339 m 850 339 l 850 364 l 876 364 l 876 339 l 850 339 m 825 339 l 825 364 l 850 364 l 850 339 l 825 339 m 799 339 l 799 364 l 825 364 l 825 339 l 799 339 m 772 339 l 772 364 l 799 364 l 799 339 l 772 339 m 747 339 l 747 364 l 772 364 l 772 339 l 747 339 m 721 339 l 721 364 l 747 364 l 747 339 l 721 339 m 694 339 l 694 364 l 721 364 l 721 339 l 694 339 m 668 339 l 668 364 l 694 364 l 694 339 l 668 339 m 642 339 l 642 364 l 668 364 l 668 339 l 642 339 m 617 339 l 617 364 l 642 364 l 642 339 l 617 339 m 590 339 l 590 364 l 617 364 l 617 339 l 590 339 m 564 339 l 564 364 l 590 364 l 590 339 l 564 339 m 694 339 l 694 364 l 721 364 l 721 339 l 694 339 m 668 339 l 668 364 l 694 364 l 694 339 l 668 339 m 642 339 l 642 364 l 668 364 l 668 339 l 642 339 m 617 339 l 617 364 l 642 364 l 642 339 l 617 339 m 590 339 l 590 364 l 617 364 l 617 339 l 590 339 m 564 339 l 564 364 l 590 364 l 590 339 l 564 339 m 539 339 l 539 364 l 564 364 l 564 339 l 539 339 m 513 339 l 513 364 l 539 364 l 539 339 l 513 339 m 1085 364 l 1085 390 l 1111 390 l 1111 364 l 1085 364 m 1058 364 l 1058 390 l 1085 390 l 1085 364 l 1058 364 m 1033 364 l 1033 390 l 1058 390 l 1058 364 l 1033 364 m 1007 364 l 1007 390 l 1033 390 l 1033 364 l 1007 364 m 981 364 l 981 390 l 1007 390 l 1007 364 l 981 364 m 956 364 l 956 390 l 981 390 l 981 364 l 956 364 m 929 364 l 929 390 l 956 390 l 956 364 l 929 364 m 903 364 l 903 390 l 929 390 l 929 364 l 903 364 m 876 364 l 876 390 l 903 390 l 903 364 l 876 364 m 850 364 l 850 390 l 876 390 l 876 364 l 850 364 m 825 364 l 825 390 l 850 390 l 850 364 l 825 364 m 799 364 l 799 390 l 825 390 l 825 364 l 799 364 m 772 364 l 772 390 l 799 390 l 799 364 l 772 364 m 747 364 l 747 390 l 772 390 l 772 364 l 747 364 m 721 364 l 721 390 l 747 390 l 747 364 l 721 364 m 694 364 l 694 390 l 721 390 l 721 364 l 694 364 m 668 364 l 668 390 l 694 390 l 694 364 l 668 364 m 642 364 l 642 390 l 668 390 l 668 364 l 642 364 m 617 364 l 617 390 l 642 390 l 642 364 l 617 364 m 590 364 l 590 390 l 617 390 l 617 364 l 590 364 m 564 364 l 564 390 l 590 390 l 590 364 l 564 364 m 694 364 l 694 390 l 721 390 l 721 364 l 694 364 m 668 364 l 668 390 l 694 390 l 694 364 l 668 364 m 642 364 l 642 390 l 668 390 l 668 364 l 642 364 m 617 364 l 617 390 l 642 390 l 642 364 l 617 364 m 590 364 l 590 390 l 617 390 l 617 364 l 590 364 m 564 364 l 564 390 l 590 390 l 590 364 l 564 364 m 539 364 l 539 390 l 564 390 l 564 364 l 539 364 m 513 364 l 513 390 l 539 390 l 539 364 l 513 364 m 1085 390 l 1085 417 l 1111 417 l 1111 390 l 1085 390 m 1058 390 l 1058 417 l 1085 417 l 1085 390 l 1058 390 m 1033 390 l 1033 417 l 1058 417 l 1058 390 l 1033 390 m 1007 390 l 1007 417 l 1033 417 l 1033 390 l 1007 390 m 981 390 l 981 417 l 1007 417 l 1007 390 l 981 390 m 956 390 l 956 417 l 981 417 l 981 390 l 956 390 m 929 390 l 929 417 l 956 417 l 956 390 l 929 390 m 903 390 l 903 417 l 929 417 l 929 390 l 903 390 m 876 390 l 876 417 l 903 417 l 903 390 l 876 390 m 850 390 l 850 417 l 876 417 l 876 390 l 850 390 m 825 390 l 825 417 l 850 417 l 850 390 l 825 390 m 799 390 l 799 417 l 825 417 l 825 390 l 799 390 m 772 390 l 772 417 l 799 417 l 799 390 l 772 390 m 747 390 l 747 417 l 772 417 l 772 390 l 747 390 m 721 390 l 721 417 l 747 417 l 747 390 l 721 390 m 694 390 l 694 417 l 721 417 l 721 390 l 694 390 m 668 390 l 668 417 l 694 417 l 694 390 l 668 390 m 642 390 l 642 417 l 668 417 l 668 390 l 642 390 m 617 390 l 617 417 l 642 417 l 642 390 l 617 390 m 590 390 l 590 417 l 617 417 l 617 390 l 590 390 m 564 390 l 564 417 l 590 417 l 590 390 l 564 390 m 694 390 l 694 417 l 721 417 l 721 390 l 694 390 m 668 390 l 668 417 l 694 417 l 694 390 l 668 390 m 642 390 l 642 417 l 668 417 l 668 390 l 642 390 m 617 390 l 617 417 l 642 417 l 642 390 l 617 390 m 590 390 l 590 417 l 617 417 l 617 390 l 590 390 m 564 390 l 564 417 l 590 417 l 590 390 l 564 390 m 539 390 l 539 417 l 564 417 l 564 390 l 539 390 m 513 390 l 513 417 l 539 417 l 539 390 l 513 390 m 1085 417 l 1085 443 l 1111 443 l 1111 417 l 1085 417 m 1058 417 l 1058 443 l 1085 443 l 1085 417 l 1058 417 m 1033 417 l 1033 443 l 1058 443 l 1058 417 l 1033 417 m 1007 417 l 1007 443 l 1033 443 l 1033 417 l 1007 417 m 981 417 l 981 443 l 1007 443 l 1007 417 l 981 417 m 956 417 l 956 443 l 981 443 l 981 417 l 956 417 m 929 417 l 929 443 l 956 443 l 956 417 l 929 417 m 903 417 l 903 443 l 929 443 l 929 417 l 903 417 m 876 417 l 876 443 l 903 443 l 903 417 l 876 417 m 850 417 l 850 443 l 876 443 l 876 417 l 850 417 m 825 417 l 825 443 l 850 443 l 850 417 l 825 417 m 799 417 l 799 443 l 825 443 l 825 417 l 799 417 m 772 417 l 772 443 l 799 443 l 799 417 l 772 417 m 747 417 l 747 443 l 772 443 l 772 417 l 747 417 m 721 417 l 721 443 l 747 443 l 747 417 l 721 417 m 694 417 l 694 443 l 721 443 l 721 417 l 694 417 m 668 417 l 668 443 l 694 443 l 694 417 l 668 417 m 642 417 l 642 443 l 668 443 l 668 417 l 642 417 m 617 417 l 617 443 l 642 443 l 642 417 l 617 417 m 590 417 l 590 443 l 617 443 l 617 417 l 590 417 m 564 417 l 564 443 l 590 443 l 590 417 l 564 417 m 694 417 l 694 443 l 721 443 l 721 417 l 694 417 m 668 417 l 668 443 l 694 443 l 694 417 l 668 417 m 642 417 l 642 443 l 668 443 l 668 417 l 642 417 m 617 417 l 617 443 l 642 443 l 642 417 l 617 417 m 590 417 l 590 443 l 617 443 l 617 417 l 590 417 m 564 417 l 564 443 l 590 443 l 590 417 l 564 417 m 539 417 l 539 443 l 564 443 l 564 417 l 539 417 m 513 417 l 513 443 l 539 443 l 539 417 l 513 417 m 1085 443 l 1085 469 l 1111 469 l 1111 443 l 1085 443 m 1058 443 l 1058 469 l 1085 469 l 1085 443 l 1058 443 m 1033 443 l 1033 469 l 1058 469 l 1058 443 l 1033 443 m 1007 443 l 1007 469 l 1033 469 l 1033 443 l 1007 443 m 981 443 l 981 469 l 1007 469 l 1007 443 l 981 443 m 956 443 l 956 469 l 981 469 l 981 443 l 956 443 m 929 443 l 929 469 l 956 469 l 956 443 l 929 443 m 903 443 l 903 469 l 929 469 l 929 443 l 903 443 m 876 443 l 876 469 l 903 469 l 903 443 l 876 443 m 850 443 l 850 469 l 876 469 l 876 443 l 850 443 m 825 443 l 825 469 l 850 469 l 850 443 l 825 443 m 799 443 l 799 469 l 825 469 l 825 443 l 799 443 m 772 443 l 772 469 l 799 469 l 799 443 l 772 443 m 747 443 l 747 469 l 772 469 l 772 443 l 747 443 m 721 443 l 721 469 l 747 469 l 747 443 l 721 443 m 694 443 l 694 469 l 721 469 l 721 443 l 694 443 m 668 443 l 668 469 l 694 469 l 694 443 l 668 443 m 642 443 l 642 469 l 668 469 l 668 443 l 642 443 m 617 443 l 617 469 l 642 469 l 642 443 l 617 443 m 590 443 l 590 469 l 617 469 l 617 443 l 590 443 m 564 443 l 564 469 l 590 469 l 590 443 l 564 443 m 694 443 l 694 469 l 721 469 l 721 443 l 694 443 m 668 443 l 668 469 l 694 469 l 694 443 l 668 443 m 642 443 l 642 469 l 668 469 l 668 443 l 642 443 m 617 443 l 617 469 l 642 469 l 642 443 l 617 443 m 590 443 l 590 469 l 617 469 l 617 443 l 590 443 m 564 443 l 564 469 l 590 469 l 590 443 l 564 443 m 539 443 l 539 469 l 564 469 l 564 443 l 539 443 m 513 443 l 513 469 l 539 469 l 539 443 l 513 443 m 1085 469 l 1085 494 l 1111 494 l 1111 469 l 1085 469 m 1058 469 l 1058 494 l 1085 494 l 1085 469 l 1058 469 m 1033 469 l 1033 494 l 1058 494 l 1058 469 l 1033 469 m 1007 469 l 1007 494 l 1033 494 l 1033 469 l 1007 469 m 981 469 l 981 494 l 1007 494 l 1007 469 l 981 469 m 956 469 l 956 494 l 981 494 l 981 469 l 956 469 m 929 469 l 929 494 l 956 494 l 956 469 l 929 469 m 903 469 l 903 494 l 929 494 l 929 469 l 903 469 m 876 469 l 876 494 l 903 494 l 903 469 l 876 469 m 850 469 l 850 494 l 876 494 l 876 469 l 850 469 m 825 469 l 825 494 l 850 494 l 850 469 l 825 469 m 799 469 l 799 494 l 825 494 l 825 469 l 799 469 m 772 469 l 772 494 l 799 494 l 799 469 l 772 469 m 747 469 l 747 494 l 772 494 l 772 469 l 747 469 m 721 469 l 721 494 l 747 494 l 747 469 l 721 469 m 694 469 l 694 494 l 721 494 l 721 469 l 694 469 m 668 469 l 668 494 l 694 494 l 694 469 l 668 469 m 642 469 l 642 494 l 668 494 l 668 469 l 642 469 m 617 469 l 617 494 l 642 494 l 642 469 l 617 469 m 590 469 l 590 494 l 617 494 l 617 469 l 590 469 m 564 469 l 564 494 l 590 494 l 590 469 l 564 469 m 694 469 l 694 494 l 721 494 l 721 469 l 694 469 m 668 469 l 668 494 l 694 494 l 694 469 l 668 469 m 642 469 l 642 494 l 668 494 l 668 469 l 642 469 m 617 469 l 617 494 l 642 494 l 642 469 l 617 469 m 590 469 l 590 494 l 617 494 l 617 469 l 590 469 m 564 469 l 564 494 l 590 494 l 590 469 l 564 469 m 539 469 l 539 494 l 564 494 l 564 469 l 539 469 m 513 469 l 513 494 l 539 494 l 539 469 l 513 469 m 1085 494 l 1085 521 l 1111 521 l 1111 494 l 1085 494 m 1058 494 l 1058 521 l 1085 521 l 1085 494 l 1058 494 m 1033 494 l 1033 521 l 1058 521 l 1058 494 l 1033 494 m 1007 494 l 1007 521 l 1033 521 l 1033 494 l 1007 494 m 981 494 l 981 521 l 1007 521 l 1007 494 l 981 494 m 956 494 l 956 521 l 981 521 l 981 494 l 956 494 m 929 494 l 929 521 l 956 521 l 956 494 l 929 494 m 903 494 l 903 521 l 929 521 l 929 494 l 903 494 m 876 494 l 876 521 l 903 521 l 903 494 l 876 494 m 850 494 l 850 521 l 876 521 l 876 494 l 850 494 m 825 494 l 825 521 l 850 521 l 850 494 l 825 494 m 799 494 l 799 521 l 825 521 l 825 494 l 799 494 m 772 494 l 772 521 l 799 521 l 799 494 l 772 494 m 747 494 l 747 521 l 772 521 l 772 494 l 747 494 m 721 494 l 721 521 l 747 521 l 747 494 l 721 494 m 694 494 l 694 521 l 721 521 l 721 494 l 694 494 m 668 494 l 668 521 l 694 521 l 694 494 l 668 494 m 642 494 l 642 521 l 668 521 l 668 494 l 642 494 m 617 494 l 617 521 l 642 521 l 642 494 l 617 494 m 590 494 l 590 521 l 617 521 l 617 494 l 590 494 m 564 494 l 564 521 l 590 521 l 590 494 l 564 494 m 694 494 l 694 521 l 721 521 l 721 494 l 694 494 m 668 494 l 668 521 l 694 521 l 694 494 l 668 494 m 642 494 l 642 521 l 668 521 l 668 494 l 642 494 m 617 494 l 617 521 l 642 521 l 642 494 l 617 494 m 590 494 l 590 521 l 617 521 l 617 494 l 590 494 m 564 494 l 564 521 l 590 521 l 590 494 l 564 494 m 539 494 l 539 521 l 564 521 l 564 494 l 539 494 m 513 494 l 513 521 l 539 521 l 539 494 l 513 494 m 1085 521 l 1085 547 l 1111 547 l 1111 521 l 1085 521 m 1058 521 l 1058 547 l 1085 547 l 1085 521 l 1058 521 m 1033 521 l 1033 547 l 1058 547 l 1058 521 l 1033 521 m 1007 521 l 1007 547 l 1033 547 l 1033 521 l 1007 521 m 981 521 l 981 547 l 1007 547 l 1007 521 l 981 521 m 956 521 l 956 547 l 981 547 l 981 521 l 956 521 m 929 521 l 929 547 l 956 547 l 956 521 l 929 521 m 903 521 l 903 547 l 929 547 l 929 521 l 903 521 m 1085 547 l 1085 572 l 1111 572 l 1111 547 l 1085 547 m 1058 547 l 1058 572 l 1085 572 l 1085 547 l 1058 547 m 1033 547 l 1033 572 l 1058 572 l 1058 547 l 1033 547 m 1007 547 l 1007 572 l 1033 572 l 1033 547 l 1007 547 m 981 547 l 981 572 l 1007 572 l 1007 547 l 981 547 m 956 547 l 956 572 l 981 572 l 981 547 l 956 547 m 929 547 l 929 572 l 956 572 l 956 547 l 929 547 m 903 547 l 903 572 l 929 572 l 929 547 l 903 547 m 1085 572 l 1085 599 l 1111 599 l 1111 572 l 1085 572 m 1058 572 l 1058 599 l 1085 599 l 1085 572 l 1058 572 m 1033 572 l 1033 599 l 1058 599 l 1058 572 l 1033 572 m 1007 572 l 1007 599 l 1033 599 l 1033 572 l 1007 572 m 981 572 l 981 599 l 1007 599 l 1007 572 l 981 572 m 956 572 l 956 599 l 981 599 l 981 572 l 956 572 m 929 572 l 929 599 l 956 599 l 956 572 l 929 572 m 903 572 l 903 599 l 929 599 l 929 572 l 903 572 m 1085 599 l 1085 625 l 1111 625 l 1111 599 l 1085 599 m 1058 599 l 1058 625 l 1085 625 l 1085 599 l 1058 599 m 1033 599 l 1033 625 l 1058 625 l 1058 599 l 1033 599 m 1007 599 l 1007 625 l 1033 625 l 1033 599 l 1007 599 m 981 599 l 981 625 l 1007 625 l 1007 599 l 981 599 m 956 599 l 956 625 l 981 625 l 981 599 l 956 599 m 929 599 l 929 625 l 956 625 l 956 599 l 929 599 m 903 599 l 903 625 l 929 625 l 929 599 l 903 599 m 1085 625 l 1085 651 l 1111 651 l 1111 625 l 1085 625 m 1058 625 l 1058 651 l 1085 651 l 1085 625 l 1058 625 m 1033 625 l 1033 651 l 1058 651 l 1058 625 l 1033 625 m 1007 625 l 1007 651 l 1033 651 l 1033 625 l 1007 625 m 981 625 l 981 651 l 1007 651 l 1007 625 l 981 625 m 956 625 l 956 651 l 981 651 l 981 625 l 956 625 m 929 625 l 929 651 l 956 651 l 956 625 l 929 625 m 903 625 l 903 651 l 929 651 l 929 625 l 903 625 m 1085 651 l 1085 678 l 1111 678 l 1111 651 l 1085 651 m 1058 651 l 1058 678 l 1085 678 l 1085 651 l 1058 651 m 1033 651 l 1033 678 l 1058 678 l 1058 651 l 1033 651 m 1007 651 l 1007 678 l 1033 678 l 1033 651 l 1007 651 m 981 651 l 981 678 l 1007 678 l 1007 651 l 981 651 m 956 651 l 956 678 l 981 678 l 981 651 l 956 651 m 929 651 l 929 678 l 956 678 l 956 651 l 929 651 m 903 651 l 903 678 l 929 678 l 929 651 l 903 651 m 1085 678 l 1085 703 l 1111 703 l 1111 678 l 1085 678 m 1058 678 l 1058 703 l 1085 703 l 1085 678 l 1058 678 m 1033 678 l 1033 703 l 1058 703 l 1058 678 l 1033 678 m 1007 678 l 1007 703 l 1033 703 l 1033 678 l 1007 678 m 981 678 l 981 703 l 1007 703 l 1007 678 l 981 678 m 956 678 l 956 703 l 981 703 l 981 678 l 956 678 m 929 678 l 929 703 l 956 703 l 956 678 l 929 678 m 903 678 l 903 703 l 929 703 l 929 678 l 903 678 m 1085 703 l 1085 729 l 1111 729 l 1111 703 l 1085 703 m 1058 703 l 1058 729 l 1085 729 l 1085 703 l 1058 703 m 1033 703 l 1033 729 l 1058 729 l 1058 703 l 1033 703 m 1007 703 l 1007 729 l 1033 729 l 1033 703 l 1007 703 m 981 703 l 981 729 l 1007 729 l 1007 703 l 981 703 m 956 703 l 956 729 l 981 729 l 981 703 l 956 703 m 929 703 l 929 729 l 956 729 l 956 703 l 929 703 m 903 703 l 903 729 l 929 729 l 929 703 l 903 703 m 1085 729 l 1085 756 l 1111 756 l 1111 729 l 1085 729 m 1058 729 l 1058 756 l 1085 756 l 1085 729 l 1058 729 m 1033 729 l 1033 756 l 1058 756 l 1058 729 l 1033 729 m 1007 729 l 1007 756 l 1033 756 l 1033 729 l 1007 729 m 981 729 l 981 756 l 1007 756 l 1007 729 l 981 729 m 956 729 l 956 756 l 981 756 l 981 729 l 956 729 m 929 729 l 929 756 l 956 756 l 956 729 l 929 729 m 903 729 l 903 756 l 929 756 l 929 729 l 903 729 m 1085 756 l 1085 781 l 1111 781 l 1111 756 l 1085 756 m 1058 756 l 1058 781 l 1085 781 l 1085 756 l 1058 756 m 1033 756 l 1033 781 l 1058 781 l 1058 756 l 1033 756 m 1007 756 l 1007 781 l 1033 781 l 1033 756 l 1007 756 m 981 756 l 981 781 l 1007 781 l 1007 756 l 981 756 m 956 756 l 956 781 l 981 781 l 981 756 l 956 756 m 929 756 l 929 781 l 956 781 l 956 756 l 929 756 m 903 756 l 903 781 l 929 781 l 929 756 l 903 756 m 876 756 l 876 781 l 903 781 l 903 756 l 876 756 m 850 756 l 850 781 l 876 781 l 876 756 l 850 756 m 486 756 l 486 781 l 513 781 l 513 756 l 486 756 m 460 756 l 460 781 l 486 781 l 486 756 l 460 756 m 433 756 l 433 781 l 460 781 l 460 756 l 433 756 m 408 756 l 408 781 l 433 781 l 433 756 l 408 756 m 382 756 l 382 781 l 408 781 l 408 756 l 382 756 m 356 756 l 356 781 l 382 781 l 382 756 l 356 756 m 331 756 l 331 781 l 356 781 l 356 756 l 331 756 m 304 756 l 304 781 l 331 781 l 331 756 l 304 756 m 278 756 l 278 781 l 304 781 l 304 756 l 278 756 m 1085 781 l 1085 807 l 1111 807 l 1111 781 l 1085 781 m 1058 781 l 1058 807 l 1085 807 l 1085 781 l 1058 781 m 1033 781 l 1033 807 l 1058 807 l 1058 781 l 1033 781 m 1007 781 l 1007 807 l 1033 807 l 1033 781 l 1007 781 m 981 781 l 981 807 l 1007 807 l 1007 781 l 981 781 m 956 781 l 956 807 l 981 807 l 981 781 l 956 781 m 929 781 l 929 807 l 956 807 l 956 781 l 929 781 m 903 781 l 903 807 l 929 807 l 929 781 l 903 781 m 876 781 l 876 807 l 903 807 l 903 781 l 876 781 m 850 781 l 850 807 l 876 807 l 876 781 l 850 781 m 486 781 l 486 807 l 513 807 l 513 781 l 486 781 m 460 781 l 460 807 l 486 807 l 486 781 l 460 781 m 433 781 l 433 807 l 460 807 l 460 781 l 433 781 m 408 781 l 408 807 l 433 807 l 433 781 l 408 781 m 382 781 l 382 807 l 408 807 l 408 781 l 382 781 m 356 781 l 356 807 l 382 807 l 382 781 l 356 781 m 331 781 l 331 807 l 356 807 l 356 781 l 331 781 m 304 781 l 304 807 l 331 807 l 331 781 l 304 781 m 278 781 l 278 807 l 304 807 l 304 781 l 278 781 m 1085 807 l 1085 833 l 1111 833 l 1111 807 l 1085 807 m 1058 807 l 1058 833 l 1085 833 l 1085 807 l 1058 807 m 1033 807 l 1033 833 l 1058 833 l 1058 807 l 1033 807 m 1007 807 l 1007 833 l 1033 833 l 1033 807 l 1007 807 m 981 807 l 981 833 l 1007 833 l 1007 807 l 981 807 m 956 807 l 956 833 l 981 833 l 981 807 l 956 807 m 929 807 l 929 833 l 956 833 l 956 807 l 929 807 m 903 807 l 903 833 l 929 833 l 929 807 l 903 807 m 876 807 l 876 833 l 903 833 l 903 807 l 876 807 m 850 807 l 850 833 l 876 833 l 876 807 l 850 807 m 486 807 l 486 833 l 513 833 l 513 807 l 486 807 m 460 807 l 460 833 l 486 833 l 486 807 l 460 807 m 433 807 l 433 833 l 460 833 l 460 807 l 433 807 m 408 807 l 408 833 l 433 833 l 433 807 l 408 807 m 382 807 l 382 833 l 408 833 l 408 807 l 382 807 m 356 807 l 356 833 l 382 833 l 382 807 l 356 807 m 331 807 l 331 833 l 356 833 l 356 807 l 331 807 m 304 807 l 304 833 l 331 833 l 331 807 l 304 807 m 278 807 l 278 833 l 304 833 l 304 807 l 278 807 m 1085 833 l 1085 860 l 1111 860 l 1111 833 l 1085 833 m 1058 833 l 1058 860 l 1085 860 l 1085 833 l 1058 833 m 1033 833 l 1033 860 l 1058 860 l 1058 833 l 1033 833 m 1007 833 l 1007 860 l 1033 860 l 1033 833 l 1007 833 m 981 833 l 981 860 l 1007 860 l 1007 833 l 981 833 m 956 833 l 956 860 l 981 860 l 981 833 l 956 833 m 929 833 l 929 860 l 956 860 l 956 833 l 929 833 m 903 833 l 903 860 l 929 860 l 929 833 l 903 833 m 876 833 l 876 860 l 903 860 l 903 833 l 876 833 m 850 833 l 850 860 l 876 860 l 876 833 l 850 833 m 486 833 l 486 860 l 513 860 l 513 833 l 486 833 m 460 833 l 460 860 l 486 860 l 486 833 l 460 833 m 433 833 l 433 860 l 460 860 l 460 833 l 433 833 m 408 833 l 408 860 l 433 860 l 433 833 l 408 833 m 382 833 l 382 860 l 408 860 l 408 833 l 382 833 m 356 833 l 356 860 l 382 860 l 382 833 l 356 833 m 331 833 l 331 860 l 356 860 l 356 833 l 331 833 m 304 833 l 304 860 l 331 860 l 331 833 l 304 833 m 278 833 l 278 860 l 304 860 l 304 833 l 278 833 m 1085 860 l 1085 886 l 1111 886 l 1111 860 l 1085 860 m 1058 860 l 1058 886 l 1085 886 l 1085 860 l 1058 860 m 1033 860 l 1033 886 l 1058 886 l 1058 860 l 1033 860 m 1007 860 l 1007 886 l 1033 886 l 1033 860 l 1007 860 m 981 860 l 981 886 l 1007 886 l 1007 860 l 981 860 m 956 860 l 956 886 l 981 886 l 981 860 l 956 860 m 929 860 l 929 886 l 956 886 l 956 860 l 929 860 m 903 860 l 903 886 l 929 886 l 929 860 l 903 860 m 876 860 l 876 886 l 903 886 l 903 860 l 876 860 m 850 860 l 850 886 l 876 886 l 876 860 l 850 860 m 486 860 l 486 886 l 513 886 l 513 860 l 486 860 m 460 860 l 460 886 l 486 886 l 486 860 l 460 860 m 433 860 l 433 886 l 460 886 l 460 860 l 433 860 m 408 860 l 408 886 l 433 886 l 433 860 l 408 860 m 382 860 l 382 886 l 408 886 l 408 860 l 382 860 m 356 860 l 356 886 l 382 886 l 382 860 l 356 860 m 331 860 l 331 886 l 356 886 l 356 860 l 331 860 m 304 860 l 304 886 l 331 886 l 331 860 l 304 860 m 278 860 l 278 886 l 304 886 l 304 860 l 278 860 m 1085 886 l 1085 911 l 1111 911 l 1111 886 l 1085 886 m 1058 886 l 1058 911 l 1085 911 l 1085 886 l 1058 886 m 1033 886 l 1033 911 l 1058 911 l 1058 886 l 1033 886 m 1007 886 l 1007 911 l 1033 911 l 1033 886 l 1007 886 m 981 886 l 981 911 l 1007 911 l 1007 886 l 981 886 m 956 886 l 956 911 l 981 911 l 981 886 l 956 886 m 929 886 l 929 911 l 956 911 l 956 886 l 929 886 m 903 886 l 903 911 l 929 911 l 929 886 l 903 886 m 876 886 l 876 911 l 903 911 l 903 886 l 876 886 m 850 886 l 850 911 l 876 911 l 876 886 l 850 886 m 486 886 l 486 911 l 513 911 l 513 886 l 486 886 m 460 886 l 460 911 l 486 911 l 486 886 l 460 886 m 433 886 l 433 911 l 460 911 l 460 886 l 433 886 m 408 886 l 408 911 l 433 911 l 433 886 l 408 886 m 382 886 l 382 911 l 408 911 l 408 886 l 382 886 m 356 886 l 356 911 l 382 911 l 382 886 l 356 886 m 331 886 l 331 911 l 356 911 l 356 886 l 331 886 m 304 886 l 304 911 l 331 911 l 331 886 l 304 886 m 278 886 l 278 911 l 304 911 l 304 886 l 278 886 m 1085 911 l 1085 938 l 1111 938 l 1111 911 l 1085 911 m 1058 911 l 1058 938 l 1085 938 l 1085 911 l 1058 911 m 1033 911 l 1033 938 l 1058 938 l 1058 911 l 1033 911 m 1007 911 l 1007 938 l 1033 938 l 1033 911 l 1007 911 m 981 911 l 981 938 l 1007 938 l 1007 911 l 981 911 m 956 911 l 956 938 l 981 938 l 981 911 l 956 911 m 929 911 l 929 938 l 956 938 l 956 911 l 929 911 m 903 911 l 903 938 l 929 938 l 929 911 l 903 911 m 876 911 l 876 938 l 903 938 l 903 911 l 876 911 m 850 911 l 850 938 l 876 938 l 876 911 l 850 911 m 486 911 l 486 938 l 513 938 l 513 911 l 486 911 m 460 911 l 460 938 l 486 938 l 486 911 l 460 911 m 433 911 l 433 938 l 460 938 l 460 911 l 433 911 m 408 911 l 408 938 l 433 938 l 433 911 l 408 911 m 382 911 l 382 938 l 408 938 l 408 911 l 382 911 m 356 911 l 356 938 l 382 938 l 382 911 l 356 911 m 331 911 l 331 938 l 356 938 l 356 911 l 331 911 m 304 911 l 304 938 l 331 938 l 331 911 l 304 911 m 278 911 l 278 938 l 304 938 l 304 911 l 278 911 m 1085 938 l 1085 964 l 1111 964 l 1111 938 l 1085 938 m 1058 938 l 1058 964 l 1085 964 l 1085 938 l 1058 938 m 1033 938 l 1033 964 l 1058 964 l 1058 938 l 1033 938 m 1007 938 l 1007 964 l 1033 964 l 1033 938 l 1007 938 m 981 938 l 981 964 l 1007 964 l 1007 938 l 981 938 m 956 938 l 956 964 l 981 964 l 981 938 l 956 938 m 929 938 l 929 964 l 956 964 l 956 938 l 929 938 m 903 938 l 903 964 l 929 964 l 929 938 l 903 938 m 876 938 l 876 964 l 903 964 l 903 938 l 876 938 m 850 938 l 850 964 l 876 964 l 876 938 l 850 938 m 486 938 l 486 964 l 513 964 l 513 938 l 486 938 m 460 938 l 460 964 l 486 964 l 486 938 l 460 938 m 433 938 l 433 964 l 460 964 l 460 938 l 433 938 m 408 938 l 408 964 l 433 964 l 433 938 l 408 938 m 382 938 l 382 964 l 408 964 l 408 938 l 382 938 m 356 938 l 356 964 l 382 964 l 382 938 l 356 938 m 331 938 l 331 964 l 356 964 l 356 938 l 331 938 m 304 938 l 304 964 l 331 964 l 331 938 l 304 938 m 278 938 l 278 964 l 304 964 l 304 938 l 278 938 m 539 313 l 539 339 l 564 339 l 564 313 l 539 313 m 513 313 l 513 339 l 539 339 l 539 313 l 513 313 m 539 339 l 539 364 l 564 364 l 564 339 l 539 339 m 513 339 l 513 364 l 539 364 l 539 339 l 513 339 m 539 364 l 539 390 l 564 390 l 564 364 l 539 364 m 513 364 l 513 390 l 539 390 l 539 364 l 513 364 m 539 390 l 539 417 l 564 417 l 564 390 l 539 390 m 513 390 l 513 417 l 539 417 l 539 390 l 513 390 m 539 417 l 539 443 l 564 443 l 564 417 l 539 417 m 513 417 l 513 443 l 539 443 l 539 417 l 513 417 m 539 443 l 539 469 l 564 469 l 564 443 l 539 443 m 513 443 l 513 469 l 539 469 l 539 443 l 513 443 m 539 469 l 539 494 l 564 494 l 564 469 l 539 469 m 513 469 l 513 494 l 539 494 l 539 469 l 513 469 m 539 494 l 539 521 l 564 521 l 564 494 l 539 494 m 513 494 l 513 521 l 539 521 l 539 494 l 513 494 m 825 756 l 825 781 l 850 781 l 850 756 l 825 756 m 799 756 l 799 781 l 825 781 l 825 756 l 799 756 m 772 756 l 772 781 l 799 781 l 799 756 l 772 756 m 747 756 l 747 781 l 772 781 l 772 756 l 747 756 m 721 756 l 721 781 l 747 781 l 747 756 l 721 756 m 694 756 l 694 781 l 721 781 l 721 756 l 694 756 m 668 756 l 668 781 l 694 781 l 694 756 l 668 756 m 642 756 l 642 781 l 668 781 l 668 756 l 642 756 m 617 756 l 617 781 l 642 781 l 642 756 l 617 756 m 590 756 l 590 781 l 617 781 l 617 756 l 590 756 m 564 756 l 564 781 l 590 781 l 590 756 l 564 756 m 825 781 l 825 807 l 850 807 l 850 781 l 825 781 m 799 781 l 799 807 l 825 807 l 825 781 l 799 781 m 772 781 l 772 807 l 799 807 l 799 781 l 772 781 m 747 781 l 747 807 l 772 807 l 772 781 l 747 781 m 721 781 l 721 807 l 747 807 l 747 781 l 721 781 m 694 781 l 694 807 l 721 807 l 721 781 l 694 781 m 668 781 l 668 807 l 694 807 l 694 781 l 668 781 m 642 781 l 642 807 l 668 807 l 668 781 l 642 781 m 617 781 l 617 807 l 642 807 l 642 781 l 617 781 m 590 781 l 590 807 l 617 807 l 617 781 l 590 781 m 564 781 l 564 807 l 590 807 l 590 781 l 564 781 m 825 807 l 825 833 l 850 833 l 850 807 l 825 807 m 799 807 l 799 833 l 825 833 l 825 807 l 799 807 m 772 807 l 772 833 l 799 833 l 799 807 l 772 807 m 747 807 l 747 833 l 772 833 l 772 807 l 747 807 m 721 807 l 721 833 l 747 833 l 747 807 l 721 807 m 694 807 l 694 833 l 721 833 l 721 807 l 694 807 m 668 807 l 668 833 l 694 833 l 694 807 l 668 807 m 642 807 l 642 833 l 668 833 l 668 807 l 642 807 m 617 807 l 617 833 l 642 833 l 642 807 l 617 807 m 590 807 l 590 833 l 617 833 l 617 807 l 590 807 m 564 807 l 564 833 l 590 833 l 590 807 l 564 807 m 825 833 l 825 860 l 850 860 l 850 833 l 825 833 m 799 833 l 799 860 l 825 860 l 825 833 l 799 833 m 772 833 l 772 860 l 799 860 l 799 833 l 772 833 m 747 833 l 747 860 l 772 860 l 772 833 l 747 833 m 721 833 l 721 860 l 747 860 l 747 833 l 721 833 m 694 833 l 694 860 l 721 860 l 721 833 l 694 833 m 668 833 l 668 860 l 694 860 l 694 833 l 668 833 m 642 833 l 642 860 l 668 860 l 668 833 l 642 833 m 617 833 l 617 860 l 642 860 l 642 833 l 617 833 m 590 833 l 590 860 l 617 860 l 617 833 l 590 833 m 564 833 l 564 860 l 590 860 l 590 833 l 564 833 m 825 860 l 825 886 l 850 886 l 850 860 l 825 860 m 799 860 l 799 886 l 825 886 l 825 860 l 799 860 m 772 860 l 772 886 l 799 886 l 799 860 l 772 860 m 747 860 l 747 886 l 772 886 l 772 860 l 747 860 m 721 860 l 721 886 l 747 886 l 747 860 l 721 860 m 694 860 l 694 886 l 721 886 l 721 860 l 694 860 m 668 860 l 668 886 l 694 886 l 694 860 l 668 860 m 642 860 l 642 886 l 668 886 l 668 860 l 642 860 m 617 860 l 617 886 l 642 886 l 642 860 l 617 860 m 590 860 l 590 886 l 617 886 l 617 860 l 590 860 m 564 860 l 564 886 l 590 886 l 590 860 l 564 860 m 825 886 l 825 911 l 850 911 l 850 886 l 825 886 m 799 886 l 799 911 l 825 911 l 825 886 l 799 886 m 772 886 l 772 911 l 799 911 l 799 886 l 772 886 m 747 886 l 747 911 l 772 911 l 772 886 l 747 886 m 721 886 l 721 911 l 747 911 l 747 886 l 721 886 m 694 886 l 694 911 l 721 911 l 721 886 l 694 886 m 668 886 l 668 911 l 694 911 l 694 886 l 668 886 m 642 886 l 642 911 l 668 911 l 668 886 l 642 886 m 617 886 l 617 911 l 642 911 l 642 886 l 617 886 m 590 886 l 590 911 l 617 911 l 617 886 l 590 886 m 564 886 l 564 911 l 590 911 l 590 886 l 564 886 m 825 911 l 825 938 l 850 938 l 850 911 l 825 911 m 799 911 l 799 938 l 825 938 l 825 911 l 799 911 m 772 911 l 772 938 l 799 938 l 799 911 l 772 911 m 747 911 l 747 938 l 772 938 l 772 911 l 747 911 m 721 911 l 721 938 l 747 938 l 747 911 l 721 911 m 694 911 l 694 938 l 721 938 l 721 911 l 694 911 m 668 911 l 668 938 l 694 938 l 694 911 l 668 911 m 642 911 l 642 938 l 668 938 l 668 911 l 642 911 m 617 911 l 617 938 l 642 938 l 642 911 l 617 911 m 590 911 l 590 938 l 617 938 l 617 911 l 590 911 m 564 911 l 564 938 l 590 938 l 590 911 l 564 911 m 825 938 l 825 964 l 850 964 l 850 938 l 825 938 m 799 938 l 799 964 l 825 964 l 825 938 l 799 938 m 772 938 l 772 964 l 799 964 l 799 938 l 772 938 m 747 938 l 747 964 l 772 964 l 772 938 l 747 938 m 721 938 l 721 964 l 747 964 l 747 938 l 721 938 m 694 938 l 694 964 l 721 964 l 721 938 l 694 938 m 668 938 l 668 964 l 694 964 l 694 938 l 668 938 m 642 938 l 642 964 l 668 964 l 668 938 l 642 938 m 617 938 l 617 964 l 642 964 l 642 938 l 617 938 m 590 938 l 590 964 l 617 964 l 617 938 l 590 938 m 564 938 l 564 964 l 590 964 l 590 938 l 564 938 m 539 756 l 539 781 l 564 781 l 564 756 l 539 756 m 513 756 l 513 781 l 539 781 l 539 756 l 513 756 m 539 781 l 539 807 l 564 807 l 564 781 l 539 781 m 513 781 l 513 807 l 539 807 l 539 781 l 513 781 m 539 807 l 539 833 l 564 833 l 564 807 l 539 807 m 513 807 l 513 833 l 539 833 l 539 807 l 513 807 m 539 833 l 539 860 l 564 860 l 564 833 l 539 833 m 513 833 l 513 860 l 539 860 l 539 833 l 513 833 m 539 860 l 539 886 l 564 886 l 564 860 l 539 860 m 513 860 l 513 886 l 539 886 l 539 860 l 513 860 m 539 886 l 539 911 l 564 911 l 564 886 l 539 886 m 513 886 l 513 911 l 539 911 l 539 886 l 513 886 m 539 911 l 539 938 l 564 938 l 564 911 l 539 911 m 513 911 l 513 938 l 539 938 l 539 911 l 513 911 m 539 938 l 539 964 l 564 964 l 564 938 l 539 938 m 513 938 l 513 964 l 539 964 l 539 938 l 513 938 m 460 678 l 460 703 l 486 703 l 486 678 l 460 678 m 433 678 l 433 703 l 460 703 l 460 678 l 433 678 m 408 678 l 408 703 l 433 703 l 433 678 l 408 678 m 382 678 l 382 703 l 408 703 l 408 678 l 382 678 m 356 678 l 356 703 l 382 703 l 382 678 l 356 678 m 331 678 l 331 703 l 356 703 l 356 678 l 331 678 m 304 678 l 304 703 l 331 703 l 331 678 l 304 678 m 278 678 l 278 703 l 304 703 l 304 678 l 278 678 m 460 703 l 460 729 l 486 729 l 486 703 l 460 703 m 433 703 l 433 729 l 460 729 l 460 703 l 433 703 m 408 703 l 408 729 l 433 729 l 433 703 l 408 703 m 382 703 l 382 729 l 408 729 l 408 703 l 382 703 m 356 703 l 356 729 l 382 729 l 382 703 l 356 703 m 331 703 l 331 729 l 356 729 l 356 703 l 331 703 m 304 703 l 304 729 l 331 729 l 331 703 l 304 703 m 278 703 l 278 729 l 304 729 l 304 703 l 278 703 m 460 729 l 460 756 l 486 756 l 486 729 l 460 729 m 433 729 l 433 756 l 460 756 l 460 729 l 433 729 m 408 729 l 408 756 l 433 756 l 433 729 l 408 729 m 382 729 l 382 756 l 408 756 l 408 729 l 382 729 m 356 729 l 356 756 l 382 756 l 382 729 l 356 729 m 331 729 l 331 756 l 356 756 l 356 729 l 331 729 m 304 729 l 304 756 l 331 756 l 331 729 l 304 729 m 278 729 l 278 756 l 304 756 l 304 729 l 278 729 z "},"\u001f":{"ha":1389,"x_min":278,"x_max":1111,"o":"m 590 131 l 539 131 l 539 26 l 513 26 l 513 -78 l 486 -78 l 486 -131 l 278 -131 l 278 -26 l 304 -26 l 304 78 l 331 78 l 331 182 l 356 182 l 356 235 l 356 286 l 382 286 l 382 390 l 408 390 l 408 469 l 408 494 l 433 494 l 433 599 l 460 599 l 460 678 l 460 703 l 486 703 l 486 807 l 513 807 l 513 886 l 513 911 l 539 911 l 539 964 l 850 964 l 850 911 l 876 911 l 876 886 l 876 807 l 903 807 l 903 703 l 929 703 l 929 678 l 929 599 l 956 599 l 956 494 l 981 494 l 981 469 l 981 390 l 1007 390 l 1007 286 l 1033 286 l 1033 235 l 1033 182 l 1058 182 l 1058 78 l 1085 78 l 1085 -26 l 1111 -26 l 1111 -131 l 903 -131 l 903 -78 l 876 -78 l 876 26 l 850 26 l 850 131 l 590 131 m 617 443 l 617 390 l 617 339 l 772 339 l 772 390 l 772 417 l 772 443 l 747 443 l 747 547 l 721 547 l 721 651 l 668 651 l 668 547 l 642 547 l 642 443 l 617 443 z "}," ":{"ha":1389,"x_min":0,"x_max":0,"o":""},"!":{"ha":1389,"x_min":590,"x_max":799,"o":"m 747 78 l 772 78 l 799 78 l 799 53 l 799 26 l 799 0 l 799 -26 l 799 -53 l 799 -78 l 799 -104 l 799 -131 l 772 -131 l 747 -131 l 721 -131 l 694 -131 l 668 -131 l 642 -131 l 617 -131 l 590 -131 l 590 -104 l 590 -78 l 590 -53 l 590 -26 l 590 0 l 590 26 l 590 53 l 590 78 l 617 78 l 642 78 l 668 78 l 694 78 l 721 78 l 747 78 m 772 964 l 799 964 l 799 938 l 799 911 l 799 886 l 799 860 l 799 833 l 799 807 l 799 781 l 799 756 l 799 729 l 799 703 l 799 678 l 799 651 l 799 625 l 799 599 l 799 572 l 799 547 l 799 521 l 799 494 l 799 469 l 799 443 l 799 417 l 799 390 l 799 364 l 799 339 l 799 313 l 799 286 l 772 286 l 747 286 l 721 286 l 694 286 l 668 286 l 642 286 l 617 286 l 590 286 l 590 313 l 590 339 l 590 364 l 590 390 l 590 417 l 590 443 l 590 469 l 590 494 l 590 521 l 590 547 l 590 572 l 590 599 l 590 625 l 590 651 l 590 678 l 590 703 l 590 729 l 590 756 l 590 781 l 590 807 l 590 833 l 590 860 l 590 886 l 590 911 l 590 938 l 590 964 l 617 964 l 642 964 l 668 964 l 694 964 l 721 964 l 747 964 l 772 964 z "},"\"":{"ha":1389,"x_min":382,"x_max":1007,"o":"m 539 964 l 564 964 l 590 964 l 590 938 l 590 911 l 590 886 l 590 860 l 590 833 l 590 807 l 590 781 l 590 756 l 590 729 l 590 703 l 564 703 l 539 703 l 513 703 l 486 703 l 460 703 l 433 703 l 408 703 l 382 703 l 382 729 l 382 756 l 382 781 l 382 807 l 382 833 l 382 860 l 382 886 l 382 911 l 382 938 l 382 964 l 408 964 l 433 964 l 460 964 l 486 964 l 513 964 l 539 964 m 981 964 l 1007 964 l 1007 938 l 1007 911 l 1007 886 l 1007 860 l 1007 833 l 1007 807 l 1007 781 l 1007 756 l 1007 729 l 1007 703 l 981 703 l 956 703 l 929 703 l 903 703 l 876 703 l 850 703 l 825 703 l 799 703 l 799 729 l 799 756 l 799 781 l 799 807 l 799 833 l 799 860 l 799 886 l 799 911 l 799 938 l 799 964 l 825 964 l 850 964 l 876 964 l 903 964 l 929 964 l 956 964 l 981 964 z "},"#":{"ha":1389,"x_min":278,"x_max":1111,"o":"m 1085 678 l 1111 678 l 1111 469 l 956 469 l 956 364 l 1111 364 l 1111 156 l 956 156 l 956 0 l 747 0 l 747 156 l 642 156 l 642 0 l 433 0 l 433 156 l 278 156 l 278 364 l 433 364 l 433 469 l 278 469 l 278 678 l 433 678 l 433 833 l 642 833 l 642 678 l 747 678 l 747 833 l 956 833 l 956 678 l 1085 678 m 747 443 l 747 469 l 642 469 l 642 364 l 747 364 l 747 443 z "},"$":{"ha":1389,"x_min":276,"x_max":1111,"o":"m 981 676 l 981 678 l 954 678 l 954 703 l 929 703 l 929 729 l 876 729 l 876 756 l 825 756 l 825 494 l 929 494 l 929 469 l 981 469 l 981 443 l 1007 443 l 1007 417 l 1033 417 l 1033 390 l 1058 390 l 1058 364 l 1085 364 l 1085 313 l 1111 313 l 1111 104 l 1085 104 l 1085 53 l 1058 53 l 1058 0 l 1033 0 l 1033 -26 l 1007 -26 l 1007 -53 l 981 -53 l 981 -78 l 929 -78 l 929 -104 l 850 -104 l 850 -131 l 825 -131 l 825 -208 l 617 -208 l 617 -131 l 513 -131 l 513 -104 l 433 -104 l 433 -78 l 382 -78 l 382 -53 l 356 -53 l 356 -26 l 329 -26 l 329 0 l 304 0 l 304 26 l 278 26 l 278 53 l 304 53 l 304 78 l 329 78 l 329 104 l 356 104 l 356 131 l 382 131 l 382 156 l 408 156 l 408 182 l 433 182 l 433 156 l 460 156 l 460 131 l 486 131 l 486 104 l 538 104 l 538 78 l 590 78 l 590 53 l 617 53 l 617 339 l 538 339 l 538 364 l 460 364 l 460 390 l 433 390 l 433 417 l 408 417 l 408 443 l 382 443 l 382 468 l 356 468 l 356 521 l 329 521 l 329 756 l 356 756 l 356 807 l 382 807 l 382 833 l 408 833 l 408 860 l 433 860 l 433 885 l 460 885 l 460 911 l 513 911 l 513 938 l 617 938 l 617 1042 l 825 1042 l 825 964 l 850 964 l 850 938 l 929 938 l 929 911 l 1007 911 l 1007 885 l 1033 885 l 1033 860 l 1085 860 l 1085 833 l 1111 833 l 1111 807 l 1085 807 l 1085 781 l 1058 781 l 1058 756 l 1033 756 l 1033 729 l 1007 729 l 1007 703 l 981 703 l 981 676 m 850 131 l 876 131 l 876 235 l 850 235 l 850 261 l 825 261 l 825 104 l 850 104 l 850 131 m 590 703 l 564 703 l 564 599 l 590 599 l 590 572 l 617 572 l 617 756 l 590 756 l 590 703 z "},"%":{"ha":1389,"x_min":278,"x_max":1111,"o":"m 850 521 l 850 494 l 825 494 l 825 469 l 825 443 l 799 443 l 799 417 l 799 390 l 772 390 l 772 364 l 772 339 l 747 339 l 747 313 l 747 286 l 721 286 l 721 261 l 721 235 l 694 235 l 694 208 l 694 182 l 668 182 l 668 156 l 668 131 l 642 131 l 642 104 l 642 78 l 617 78 l 617 53 l 617 26 l 590 26 l 590 0 l 590 -26 l 564 -26 l 564 -53 l 564 -78 l 539 -78 l 539 -104 l 539 -131 l 513 -131 l 486 -131 l 460 -131 l 433 -131 l 408 -131 l 382 -131 l 356 -131 l 331 -131 l 331 -104 l 331 -78 l 356 -78 l 356 -53 l 356 -26 l 382 -26 l 382 0 l 382 26 l 408 26 l 408 53 l 408 78 l 433 78 l 433 104 l 433 131 l 460 131 l 460 156 l 460 182 l 486 182 l 486 208 l 486 235 l 513 235 l 513 261 l 513 286 l 539 286 l 539 313 l 539 339 l 564 339 l 564 364 l 564 390 l 590 390 l 590 417 l 590 443 l 617 443 l 617 469 l 617 494 l 642 494 l 642 521 l 642 547 l 668 547 l 668 572 l 668 599 l 694 599 l 694 625 l 694 651 l 721 651 l 721 678 l 721 703 l 747 703 l 747 729 l 747 756 l 772 756 l 772 781 l 772 807 l 799 807 l 799 833 l 799 860 l 825 860 l 825 886 l 825 911 l 850 911 l 850 938 l 850 964 l 876 964 l 903 964 l 929 964 l 956 964 l 981 964 l 1007 964 l 1033 964 l 1058 964 l 1058 938 l 1058 911 l 1033 911 l 1033 886 l 1033 860 l 1007 860 l 1007 833 l 1007 807 l 981 807 l 981 781 l 981 756 l 956 756 l 956 729 l 956 703 l 929 703 l 929 678 l 929 651 l 903 651 l 903 625 l 903 599 l 876 599 l 876 572 l 876 547 l 850 547 l 850 521 m 564 860 l 564 572 l 278 572 l 278 860 l 564 860 m 486 651 l 486 781 l 356 781 l 356 651 l 486 651 m 825 261 l 1111 261 l 1111 -26 l 825 -26 l 825 261 m 1033 53 l 1033 182 l 903 182 l 903 53 l 1033 53 z "},"&":{"ha":1389,"x_min":278,"x_max":1111,"o":"m 1085 521 l 1111 521 l 1111 104 l 1085 104 l 1085 78 l 1058 78 l 1058 53 l 1033 53 l 1033 26 l 1058 26 l 1058 -26 l 1085 -26 l 1085 -78 l 1111 -78 l 1111 -131 l 1007 -131 l 1007 -78 l 981 -78 l 981 -26 l 956 -26 l 956 -53 l 929 -53 l 929 -78 l 903 -78 l 903 -104 l 876 -104 l 876 -131 l 278 -131 l 278 521 l 331 521 l 331 729 l 356 729 l 356 756 l 382 756 l 382 781 l 408 781 l 408 807 l 433 807 l 433 833 l 460 833 l 460 860 l 486 860 l 486 886 l 513 886 l 513 911 l 539 911 l 539 938 l 564 938 l 564 964 l 747 964 l 772 964 l 799 964 l 825 964 l 876 964 l 903 964 l 1058 964 l 1058 521 l 1085 521 m 799 78 l 799 104 l 772 104 l 772 156 l 747 156 l 747 182 l 747 208 l 721 208 l 721 235 l 721 261 l 825 261 l 825 235 l 825 208 l 850 208 l 850 182 l 850 156 l 876 156 l 876 182 l 876 313 l 513 313 l 513 78 l 799 78 m 590 756 l 564 756 l 564 521 l 825 521 l 825 756 l 799 756 l 772 756 l 590 756 z "},"'":{"ha":1389,"x_min":590,"x_max":799,"o":"m 747 964 l 772 964 l 799 964 l 799 938 l 799 911 l 799 886 l 799 860 l 799 833 l 799 807 l 799 781 l 799 756 l 799 729 l 799 703 l 772 703 l 747 703 l 721 703 l 694 703 l 668 703 l 642 703 l 617 703 l 590 703 l 590 729 l 590 756 l 590 781 l 590 807 l 590 833 l 590 860 l 590 886 l 590 911 l 590 938 l 590 964 l 617 964 l 642 964 l 668 964 l 694 964 l 721 964 l 747 964 z "},"(":{"ha":1389,"x_min":486,"x_max":903,"o":"m 876 860 l 903 860 l 903 833 l 903 807 l 903 781 l 876 781 l 850 781 l 850 756 l 825 756 l 799 756 l 799 729 l 772 729 l 772 703 l 772 678 l 747 678 l 747 651 l 747 625 l 747 599 l 721 599 l 721 572 l 721 547 l 721 521 l 721 494 l 721 469 l 721 443 l 721 417 l 721 390 l 721 364 l 721 339 l 721 313 l 721 286 l 721 261 l 721 235 l 747 235 l 747 208 l 747 182 l 747 156 l 772 156 l 772 131 l 772 104 l 799 104 l 799 78 l 825 78 l 850 78 l 850 53 l 876 53 l 903 53 l 903 26 l 903 0 l 903 -26 l 876 -26 l 876 -53 l 876 -78 l 850 -78 l 850 -104 l 850 -131 l 825 -131 l 799 -131 l 799 -104 l 772 -104 l 747 -104 l 721 -104 l 721 -78 l 694 -78 l 668 -78 l 668 -53 l 642 -53 l 642 -26 l 617 -26 l 617 0 l 590 0 l 590 26 l 590 53 l 564 53 l 564 78 l 564 104 l 539 104 l 539 131 l 539 156 l 513 156 l 513 182 l 513 208 l 513 235 l 513 261 l 486 261 l 486 286 l 486 313 l 486 339 l 486 364 l 486 390 l 486 417 l 486 443 l 486 469 l 486 494 l 486 521 l 486 547 l 486 572 l 513 572 l 513 599 l 513 625 l 513 651 l 513 678 l 539 678 l 539 703 l 539 729 l 564 729 l 564 756 l 564 781 l 590 781 l 590 807 l 590 833 l 617 833 l 617 860 l 642 860 l 642 886 l 668 886 l 668 911 l 694 911 l 721 911 l 721 938 l 747 938 l 772 938 l 799 938 l 799 964 l 825 964 l 850 964 l 850 938 l 850 911 l 876 911 l 876 886 l 876 860 z "},")":{"ha":1389,"x_min":486,"x_max":903,"o":"m 513 860 l 513 886 l 513 911 l 539 911 l 539 938 l 539 964 l 564 964 l 590 964 l 590 938 l 617 938 l 642 938 l 668 938 l 668 911 l 694 911 l 721 911 l 721 886 l 747 886 l 747 860 l 772 860 l 772 833 l 799 833 l 799 807 l 799 781 l 825 781 l 825 756 l 825 729 l 850 729 l 850 703 l 850 678 l 876 678 l 876 651 l 876 625 l 876 599 l 876 572 l 903 572 l 903 547 l 903 521 l 903 494 l 903 469 l 903 443 l 903 417 l 903 390 l 903 364 l 903 339 l 903 313 l 903 286 l 903 261 l 876 261 l 876 235 l 876 208 l 876 182 l 876 156 l 850 156 l 850 131 l 850 104 l 825 104 l 825 78 l 825 53 l 799 53 l 799 26 l 799 0 l 772 0 l 772 -26 l 747 -26 l 747 -53 l 721 -53 l 721 -78 l 694 -78 l 668 -78 l 668 -104 l 642 -104 l 617 -104 l 590 -104 l 590 -131 l 564 -131 l 539 -131 l 539 -104 l 539 -78 l 513 -78 l 513 -53 l 513 -26 l 486 -26 l 486 0 l 486 26 l 486 53 l 513 53 l 539 53 l 539 78 l 564 78 l 590 78 l 590 104 l 617 104 l 617 131 l 617 156 l 642 156 l 642 182 l 642 208 l 642 235 l 668 235 l 668 261 l 668 286 l 668 313 l 668 339 l 668 364 l 668 390 l 668 417 l 668 443 l 668 469 l 668 494 l 668 521 l 668 547 l 668 572 l 668 599 l 642 599 l 642 625 l 642 651 l 642 678 l 617 678 l 617 703 l 617 729 l 590 729 l 590 756 l 564 756 l 539 756 l 539 781 l 513 781 l 486 781 l 486 807 l 486 833 l 486 860 l 513 860 z "},"*":{"ha":1389,"x_min":510,"x_max":879,"o":"m 869 678 l 879 669 l 869 660 l 860 650 l 851 642 l 842 632 l 832 622 l 824 614 l 814 604 l 806 596 l 796 604 l 786 614 l 778 622 l 768 632 l 758 642 l 750 650 l 740 660 l 732 669 l 722 678 l 713 688 l 704 697 l 694 706 l 685 697 l 676 688 l 667 678 l 657 669 l 649 660 l 639 650 l 631 642 l 621 632 l 611 622 l 603 614 l 593 604 l 583 596 l 575 604 l 565 614 l 557 622 l 547 632 l 538 642 l 529 650 l 519 660 l 510 669 l 519 678 l 529 688 l 538 697 l 547 706 l 557 715 l 565 724 l 575 733 l 583 743 l 593 751 l 603 761 l 611 771 l 621 779 l 611 789 l 603 797 l 593 807 l 583 817 l 575 825 l 565 835 l 557 844 l 547 853 l 538 863 l 529 871 l 519 881 l 510 890 l 519 899 l 529 908 l 538 918 l 547 926 l 557 936 l 565 944 l 575 954 l 583 964 l 593 954 l 603 944 l 611 936 l 621 926 l 631 918 l 639 908 l 649 899 l 657 890 l 667 881 l 676 871 l 685 863 l 694 853 l 704 863 l 713 871 l 722 881 l 732 890 l 740 899 l 750 908 l 758 918 l 768 926 l 778 936 l 786 944 l 796 954 l 806 964 l 814 954 l 824 944 l 832 936 l 842 926 l 851 918 l 860 908 l 869 899 l 879 890 l 869 881 l 860 871 l 851 863 l 842 853 l 832 844 l 824 835 l 814 825 l 806 817 l 796 807 l 786 797 l 778 789 l 768 779 l 778 771 l 786 761 l 796 751 l 806 743 l 814 733 l 824 724 l 832 715 l 842 706 l 851 697 l 860 688 l 869 678 z "},"+":{"ha":1389,"x_min":278,"x_max":1111,"o":"m 1085 521 l 1111 521 l 1111 494 l 1111 469 l 1111 443 l 1111 417 l 1111 390 l 1111 364 l 1111 339 l 1111 313 l 1085 313 l 1058 313 l 1033 313 l 1007 313 l 981 313 l 956 313 l 929 313 l 903 313 l 876 313 l 850 313 l 825 313 l 799 313 l 799 286 l 799 261 l 799 235 l 799 208 l 799 182 l 799 156 l 799 131 l 799 104 l 799 78 l 799 53 l 799 26 l 799 0 l 772 0 l 747 0 l 721 0 l 694 0 l 668 0 l 642 0 l 617 0 l 590 0 l 590 26 l 590 53 l 590 78 l 590 104 l 590 131 l 590 156 l 590 182 l 590 208 l 590 235 l 590 261 l 590 286 l 590 313 l 564 313 l 539 313 l 513 313 l 486 313 l 460 313 l 433 313 l 408 313 l 382 313 l 356 313 l 331 313 l 304 313 l 278 313 l 278 339 l 278 364 l 278 390 l 278 417 l 278 443 l 278 469 l 278 494 l 278 521 l 304 521 l 331 521 l 356 521 l 382 521 l 408 521 l 433 521 l 460 521 l 486 521 l 513 521 l 539 521 l 564 521 l 590 521 l 590 547 l 590 572 l 590 599 l 590 625 l 590 651 l 590 678 l 590 703 l 590 729 l 590 756 l 590 781 l 590 807 l 590 833 l 617 833 l 642 833 l 668 833 l 694 833 l 721 833 l 747 833 l 772 833 l 799 833 l 799 807 l 799 781 l 799 756 l 799 729 l 799 703 l 799 678 l 799 651 l 799 625 l 799 599 l 799 572 l 799 547 l 799 521 l 825 521 l 850 521 l 876 521 l 903 521 l 929 521 l 956 521 l 981 521 l 1007 521 l 1033 521 l 1058 521 l 1085 521 z "},",":{"ha":1389,"x_min":538,"x_max":851,"o":"m 825 131 l 850 131 l 850 104 l 850 78 l 825 78 l 825 53 l 825 26 l 799 26 l 799 0 l 799 -26 l 772 -26 l 772 -53 l 772 -78 l 747 -78 l 747 -104 l 747 -131 l 721 -131 l 694 -131 l 668 -131 l 642 -131 l 617 -131 l 590 -131 l 564 -131 l 539 -131 l 539 -104 l 539 -78 l 564 -78 l 564 -53 l 564 -26 l 590 -26 l 590 0 l 590 26 l 617 26 l 617 53 l 617 78 l 642 78 l 642 104 l 642 131 l 668 131 l 694 131 l 721 131 l 747 131 l 772 131 l 799 131 l 825 131 z "},"-":{"ha":1389,"x_min":278,"x_max":1111,"o":"m 1085 521 l 1111 521 l 1111 494 l 1111 469 l 1111 443 l 1111 417 l 1111 390 l 1111 364 l 1111 339 l 1111 313 l 1085 313 l 1058 313 l 1033 313 l 1007 313 l 981 313 l 956 313 l 929 313 l 903 313 l 876 313 l 850 313 l 825 313 l 799 313 l 772 313 l 747 313 l 721 313 l 694 313 l 668 313 l 642 313 l 617 313 l 590 313 l 564 313 l 539 313 l 513 313 l 486 313 l 460 313 l 433 313 l 408 313 l 382 313 l 356 313 l 331 313 l 304 313 l 278 313 l 278 339 l 278 364 l 278 390 l 278 417 l 278 443 l 278 469 l 278 494 l 278 521 l 304 521 l 331 521 l 356 521 l 382 521 l 408 521 l 433 521 l 460 521 l 486 521 l 513 521 l 539 521 l 564 521 l 590 521 l 617 521 l 642 521 l 668 521 l 694 521 l 721 521 l 747 521 l 772 521 l 799 521 l 825 521 l 850 521 l 876 521 l 903 521 l 929 521 l 956 521 l 981 521 l 1007 521 l 1033 521 l 1058 521 l 1085 521 z "},".":{"ha":1389,"x_min":590,"x_max":799,"o":"m 590 313 l 590 521 l 799 521 l 799 313 l 590 313 z "},"/":{"ha":1389,"x_min":278,"x_max":1111,"o":"m 1085 964 l 1111 964 l 1111 911 l 1085 911 l 1085 860 l 1058 860 l 1058 807 l 1033 807 l 1033 756 l 1007 756 l 1007 703 l 981 703 l 981 651 l 956 651 l 956 599 l 929 599 l 929 547 l 903 547 l 903 494 l 876 494 l 876 443 l 850 443 l 850 390 l 825 390 l 825 339 l 799 339 l 799 286 l 772 286 l 772 235 l 747 235 l 747 182 l 721 182 l 721 131 l 694 131 l 694 78 l 668 78 l 668 26 l 642 26 l 642 -26 l 617 -26 l 617 -78 l 590 -78 l 590 -131 l 278 -131 l 278 -78 l 304 -78 l 304 -26 l 331 -26 l 331 26 l 356 26 l 356 78 l 382 78 l 382 131 l 408 131 l 408 182 l 433 182 l 433 235 l 460 235 l 460 286 l 486 286 l 486 339 l 513 339 l 513 390 l 539 390 l 539 443 l 564 443 l 564 494 l 590 494 l 590 547 l 617 547 l 617 599 l 642 599 l 642 651 l 668 651 l 668 703 l 694 703 l 694 756 l 721 756 l 721 807 l 747 807 l 747 860 l 772 860 l 772 911 l 799 911 l 799 964 l 1085 964 z "},":":{"ha":1389,"x_min":590,"x_max":799,"o":"m 590 104 l 590 313 l 799 313 l 799 104 l 590 104 m 590 521 l 590 729 l 799 729 l 799 521 l 590 521 z "},";":{"ha":1389,"x_min":550,"x_max":839,"o":"m 629 521 l 629 729 l 838 729 l 838 521 l 629 521 m 786 313 l 811 313 l 838 313 l 838 286 l 838 261 l 811 261 l 811 235 l 811 208 l 786 208 l 786 182 l 786 156 l 760 156 l 760 131 l 760 104 l 733 104 l 707 104 l 682 104 l 656 104 l 629 104 l 603 104 l 578 104 l 551 104 l 551 131 l 551 156 l 578 156 l 578 182 l 578 208 l 603 208 l 603 235 l 603 261 l 629 261 l 629 286 l 629 313 l 656 313 l 682 313 l 707 313 l 733 313 l 760 313 l 786 313 z "},"<":{"ha":1389,"x_min":278,"x_max":1111,"o":"m 1067 746 l 1111 746 l 1111 701 l 1111 658 l 1111 614 l 1111 571 l 1111 526 l 1067 526 l 1024 526 l 1024 482 l 979 482 l 936 482 l 892 482 l 849 482 l 849 439 l 804 439 l 760 439 l 717 439 l 672 439 l 672 394 l 717 394 l 760 394 l 804 394 l 849 394 l 849 351 l 892 351 l 936 351 l 979 351 l 1024 351 l 1024 307 l 1067 307 l 1111 307 l 1111 263 l 1111 219 l 1111 175 l 1111 132 l 1111 88 l 1067 88 l 1024 88 l 979 88 l 936 88 l 936 132 l 892 132 l 849 132 l 804 132 l 760 132 l 760 175 l 717 175 l 672 175 l 629 175 l 585 175 l 585 219 l 540 219 l 497 219 l 453 219 l 410 219 l 410 263 l 365 263 l 322 263 l 278 263 l 278 307 l 278 351 l 278 394 l 278 439 l 278 482 l 278 526 l 278 571 l 322 571 l 365 571 l 410 571 l 410 614 l 453 614 l 497 614 l 540 614 l 585 614 l 585 658 l 629 658 l 672 658 l 717 658 l 760 658 l 760 701 l 804 701 l 849 701 l 892 701 l 936 701 l 936 746 l 979 746 l 1024 746 l 1067 746 z "},"=":{"ha":1389,"x_min":278,"x_max":1111,"o":"m 1085 729 l 1111 729 l 1111 703 l 1111 678 l 1111 651 l 1111 625 l 1111 599 l 1111 572 l 1111 547 l 1111 521 l 1085 521 l 1058 521 l 1033 521 l 1007 521 l 981 521 l 956 521 l 929 521 l 903 521 l 876 521 l 850 521 l 825 521 l 799 521 l 772 521 l 747 521 l 721 521 l 694 521 l 668 521 l 642 521 l 617 521 l 590 521 l 564 521 l 539 521 l 513 521 l 486 521 l 460 521 l 433 521 l 408 521 l 382 521 l 356 521 l 331 521 l 304 521 l 278 521 l 278 547 l 278 572 l 278 599 l 278 625 l 278 651 l 278 678 l 278 703 l 278 729 l 304 729 l 331 729 l 356 729 l 382 729 l 408 729 l 433 729 l 460 729 l 486 729 l 513 729 l 539 729 l 564 729 l 590 729 l 617 729 l 642 729 l 668 729 l 694 729 l 721 729 l 747 729 l 772 729 l 799 729 l 825 729 l 850 729 l 876 729 l 903 729 l 929 729 l 956 729 l 981 729 l 1007 729 l 1033 729 l 1058 729 l 1085 729 m 1058 313 l 1085 313 l 1111 313 l 1111 286 l 1111 261 l 1111 235 l 1111 208 l 1111 182 l 1111 156 l 1111 131 l 1111 104 l 1085 104 l 1058 104 l 1033 104 l 1007 104 l 981 104 l 956 104 l 929 104 l 903 104 l 876 104 l 850 104 l 825 104 l 799 104 l 772 104 l 747 104 l 721 104 l 694 104 l 668 104 l 642 104 l 617 104 l 590 104 l 564 104 l 539 104 l 513 104 l 486 104 l 460 104 l 433 104 l 408 104 l 382 104 l 356 104 l 331 104 l 304 104 l 278 104 l 278 131 l 278 156 l 278 182 l 278 208 l 278 235 l 278 261 l 278 286 l 278 313 l 304 313 l 331 313 l 356 313 l 382 313 l 408 313 l 433 313 l 460 313 l 486 313 l 513 313 l 539 313 l 564 313 l 590 313 l 617 313 l 642 313 l 668 313 l 694 313 l 721 313 l 747 313 l 772 313 l 799 313 l 825 313 l 850 313 l 876 313 l 903 313 l 929 313 l 956 313 l 981 313 l 1007 313 l 1033 313 l 1058 313 z "},">":{"ha":1389,"x_min":278,"x_max":1111,"o":"m 1067 571 l 1111 571 l 1111 526 l 1111 482 l 1111 439 l 1111 394 l 1111 351 l 1111 307 l 1111 263 l 1067 263 l 1024 263 l 979 263 l 979 219 l 936 219 l 892 219 l 849 219 l 804 219 l 804 175 l 760 175 l 717 175 l 672 175 l 629 175 l 629 132 l 585 132 l 540 132 l 497 132 l 453 132 l 453 88 l 410 88 l 365 88 l 322 88 l 278 88 l 278 132 l 278 175 l 278 219 l 278 263 l 278 307 l 322 307 l 365 307 l 365 351 l 410 351 l 453 351 l 497 351 l 540 351 l 540 394 l 585 394 l 629 394 l 672 394 l 717 394 l 717 439 l 672 439 l 629 439 l 585 439 l 540 439 l 540 482 l 497 482 l 453 482 l 410 482 l 365 482 l 365 526 l 322 526 l 278 526 l 278 571 l 278 614 l 278 658 l 278 701 l 278 746 l 322 746 l 365 746 l 410 746 l 453 746 l 453 701 l 497 701 l 540 701 l 585 701 l 629 701 l 629 658 l 672 658 l 717 658 l 760 658 l 804 658 l 804 614 l 849 614 l 892 614 l 936 614 l 979 614 l 979 571 l 1024 571 l 1067 571 z "},"?":{"ha":1389,"x_min":278,"x_max":1111,"o":"m 694 -131 l 694 -104 l 721 -104 l 721 -131 l 694 -131 m 668 -131 l 668 -104 l 694 -104 l 694 -131 l 668 -131 m 642 -131 l 642 -104 l 668 -104 l 668 -131 l 642 -131 m 617 -131 l 617 -104 l 642 -104 l 642 -131 l 617 -131 m 590 -131 l 590 -104 l 617 -104 l 617 -131 l 590 -131 m 564 -131 l 564 -104 l 590 -104 l 590 -131 l 564 -131 m 539 -131 l 539 -104 l 564 -104 l 564 -131 l 539 -131 m 513 -131 l 513 -104 l 539 -104 l 539 -131 l 513 -131 m 694 -104 l 694 -78 l 721 -78 l 721 -104 l 694 -104 m 668 -104 l 668 -78 l 694 -78 l 694 -104 l 668 -104 m 642 -104 l 642 -78 l 668 -78 l 668 -104 l 642 -104 m 617 -104 l 617 -78 l 642 -78 l 642 -104 l 617 -104 m 590 -104 l 590 -78 l 617 -78 l 617 -104 l 590 -104 m 564 -104 l 564 -78 l 590 -78 l 590 -104 l 564 -104 m 539 -104 l 539 -78 l 564 -78 l 564 -104 l 539 -104 m 513 -104 l 513 -78 l 539 -78 l 539 -104 l 513 -104 m 694 -78 l 694 -53 l 721 -53 l 721 -78 l 694 -78 m 668 -78 l 668 -53 l 694 -53 l 694 -78 l 668 -78 m 642 -78 l 642 -53 l 668 -53 l 668 -78 l 642 -78 m 617 -78 l 617 -53 l 642 -53 l 642 -78 l 617 -78 m 590 -78 l 590 -53 l 617 -53 l 617 -78 l 590 -78 m 564 -78 l 564 -53 l 590 -53 l 590 -78 l 564 -78 m 539 -78 l 539 -53 l 564 -53 l 564 -78 l 539 -78 m 513 -78 l 513 -53 l 539 -53 l 539 -78 l 513 -78 m 694 -53 l 694 -26 l 721 -26 l 721 -53 l 694 -53 m 668 -53 l 668 -26 l 694 -26 l 694 -53 l 668 -53 m 642 -53 l 642 -26 l 668 -26 l 668 -53 l 642 -53 m 617 -53 l 617 -26 l 642 -26 l 642 -53 l 617 -53 m 590 -53 l 590 -26 l 617 -26 l 617 -53 l 590 -53 m 564 -53 l 564 -26 l 590 -26 l 590 -53 l 564 -53 m 539 -53 l 539 -26 l 564 -26 l 564 -53 l 539 -53 m 513 -53 l 513 -26 l 539 -26 l 539 -53 l 513 -53 m 694 -26 l 694 0 l 721 0 l 721 -26 l 694 -26 m 668 -26 l 668 0 l 694 0 l 694 -26 l 668 -26 m 642 -26 l 642 0 l 668 0 l 668 -26 l 642 -26 m 617 -26 l 617 0 l 642 0 l 642 -26 l 617 -26 m 590 -26 l 590 0 l 617 0 l 617 -26 l 590 -26 m 564 -26 l 564 0 l 590 0 l 590 -26 l 564 -26 m 539 -26 l 539 0 l 564 0 l 564 -26 l 539 -26 m 513 -26 l 513 0 l 539 0 l 539 -26 l 513 -26 m 694 0 l 694 26 l 721 26 l 721 0 l 694 0 m 668 0 l 668 26 l 694 26 l 694 0 l 668 0 m 642 0 l 642 26 l 668 26 l 668 0 l 642 0 m 617 0 l 617 26 l 642 26 l 642 0 l 617 0 m 590 0 l 590 26 l 617 26 l 617 0 l 590 0 m 564 0 l 564 26 l 590 26 l 590 0 l 564 0 m 539 0 l 539 26 l 564 26 l 564 0 l 539 0 m 513 0 l 513 26 l 539 26 l 539 0 l 513 0 m 694 26 l 694 53 l 721 53 l 721 26 l 694 26 m 668 26 l 668 53 l 694 53 l 694 26 l 668 26 m 642 26 l 642 53 l 668 53 l 668 26 l 642 26 m 617 26 l 617 53 l 642 53 l 642 26 l 617 26 m 590 26 l 590 53 l 617 53 l 617 26 l 590 26 m 564 26 l 564 53 l 590 53 l 590 26 l 564 26 m 539 26 l 539 53 l 564 53 l 564 26 l 539 26 m 513 26 l 513 53 l 539 53 l 539 26 l 513 26 m 694 53 l 694 78 l 721 78 l 721 53 l 694 53 m 668 53 l 668 78 l 694 78 l 694 53 l 668 53 m 642 53 l 642 78 l 668 78 l 668 53 l 642 53 m 617 53 l 617 78 l 642 78 l 642 53 l 617 53 m 590 53 l 590 78 l 617 78 l 617 53 l 590 53 m 564 53 l 564 78 l 590 78 l 590 53 l 564 53 m 539 53 l 539 78 l 564 78 l 564 53 l 539 53 m 513 53 l 513 78 l 539 78 l 539 53 l 513 53 m 694 156 l 694 182 l 721 182 l 721 156 l 694 156 m 668 156 l 668 182 l 694 182 l 694 156 l 668 156 m 642 156 l 642 182 l 668 182 l 668 156 l 642 156 m 617 156 l 617 182 l 642 182 l 642 156 l 617 156 m 590 156 l 590 182 l 617 182 l 617 156 l 590 156 m 564 156 l 564 182 l 590 182 l 590 156 l 564 156 m 539 156 l 539 182 l 564 182 l 564 156 l 539 156 m 513 156 l 513 182 l 539 182 l 539 156 l 513 156 m 694 182 l 694 208 l 721 208 l 721 182 l 694 182 m 668 182 l 668 208 l 694 208 l 694 182 l 668 182 m 642 182 l 642 208 l 668 208 l 668 182 l 642 182 m 617 182 l 617 208 l 642 208 l 642 182 l 617 182 m 590 182 l 590 208 l 617 208 l 617 182 l 590 182 m 564 182 l 564 208 l 590 208 l 590 182 l 564 182 m 539 182 l 539 208 l 564 208 l 564 182 l 539 182 m 513 182 l 513 208 l 539 208 l 539 182 l 513 182 m 694 208 l 694 235 l 721 235 l 721 208 l 694 208 m 668 208 l 668 235 l 694 235 l 694 208 l 668 208 m 642 208 l 642 235 l 668 235 l 668 208 l 642 208 m 617 208 l 617 235 l 642 235 l 642 208 l 617 208 m 590 208 l 590 235 l 617 235 l 617 208 l 590 208 m 564 208 l 564 235 l 590 235 l 590 208 l 564 208 m 539 208 l 539 235 l 564 235 l 564 208 l 539 208 m 513 208 l 513 235 l 539 235 l 539 208 l 513 208 m 694 235 l 694 261 l 721 261 l 721 235 l 694 235 m 668 235 l 668 261 l 694 261 l 694 235 l 668 235 m 642 235 l 642 261 l 668 261 l 668 235 l 642 235 m 617 235 l 617 261 l 642 261 l 642 235 l 617 235 m 590 235 l 590 261 l 617 261 l 617 235 l 590 235 m 564 235 l 564 261 l 590 261 l 590 235 l 564 235 m 539 235 l 539 261 l 564 261 l 564 235 l 539 235 m 513 235 l 513 261 l 539 261 l 539 235 l 513 235 m 694 261 l 694 286 l 721 286 l 721 261 l 694 261 m 668 261 l 668 286 l 694 286 l 694 261 l 668 261 m 642 261 l 642 286 l 668 286 l 668 261 l 642 261 m 617 261 l 617 286 l 642 286 l 642 261 l 617 261 m 590 261 l 590 286 l 617 286 l 617 261 l 590 261 m 564 261 l 564 286 l 590 286 l 590 261 l 564 261 m 539 261 l 539 286 l 564 286 l 564 261 l 539 261 m 513 261 l 513 286 l 539 286 l 539 261 l 513 261 m 694 286 l 694 313 l 721 313 l 721 286 l 694 286 m 668 286 l 668 313 l 694 313 l 694 286 l 668 286 m 642 286 l 642 313 l 668 313 l 668 286 l 642 286 m 617 286 l 617 313 l 642 313 l 642 286 l 617 286 m 590 286 l 590 313 l 617 313 l 617 286 l 590 286 m 564 286 l 564 313 l 590 313 l 590 286 l 564 286 m 539 286 l 539 313 l 564 313 l 564 286 l 539 286 m 513 286 l 513 313 l 539 313 l 539 286 l 513 286 m 1085 313 l 1085 339 l 1111 339 l 1111 313 l 1085 313 m 1058 313 l 1058 339 l 1085 339 l 1085 313 l 1058 313 m 1033 313 l 1033 339 l 1058 339 l 1058 313 l 1033 313 m 1007 313 l 1007 339 l 1033 339 l 1033 313 l 1007 313 m 981 313 l 981 339 l 1007 339 l 1007 313 l 981 313 m 956 313 l 956 339 l 981 339 l 981 313 l 956 313 m 929 313 l 929 339 l 956 339 l 956 313 l 929 313 m 903 313 l 903 339 l 929 339 l 929 313 l 903 313 m 876 313 l 876 339 l 903 339 l 903 313 l 876 313 m 850 313 l 850 339 l 876 339 l 876 313 l 850 313 m 825 313 l 825 339 l 850 339 l 850 313 l 825 313 m 799 313 l 799 339 l 825 339 l 825 313 l 799 313 m 772 313 l 772 339 l 799 339 l 799 313 l 772 313 m 747 313 l 747 339 l 772 339 l 772 313 l 747 313 m 721 313 l 721 339 l 747 339 l 747 313 l 721 313 m 694 313 l 694 339 l 721 339 l 721 313 l 694 313 m 668 313 l 668 339 l 694 339 l 694 313 l 668 313 m 642 313 l 642 339 l 668 339 l 668 313 l 642 313 m 617 313 l 617 339 l 642 339 l 642 313 l 617 313 m 590 313 l 590 339 l 617 339 l 617 313 l 590 313 m 564 313 l 564 339 l 590 339 l 590 313 l 564 313 m 694 313 l 694 339 l 721 339 l 721 313 l 694 313 m 668 313 l 668 339 l 694 339 l 694 313 l 668 313 m 642 313 l 642 339 l 668 339 l 668 313 l 642 313 m 617 313 l 617 339 l 642 339 l 642 313 l 617 313 m 590 313 l 590 339 l 617 339 l 617 313 l 590 313 m 564 313 l 564 339 l 590 339 l 590 313 l 564 313 m 539 313 l 539 339 l 564 339 l 564 313 l 539 313 m 513 313 l 513 339 l 539 339 l 539 313 l 513 313 m 1085 339 l 1085 364 l 1111 364 l 1111 339 l 1085 339 m 1058 339 l 1058 364 l 1085 364 l 1085 339 l 1058 339 m 1033 339 l 1033 364 l 1058 364 l 1058 339 l 1033 339 m 1007 339 l 1007 364 l 1033 364 l 1033 339 l 1007 339 m 981 339 l 981 364 l 1007 364 l 1007 339 l 981 339 m 956 339 l 956 364 l 981 364 l 981 339 l 956 339 m 929 339 l 929 364 l 956 364 l 956 339 l 929 339 m 903 339 l 903 364 l 929 364 l 929 339 l 903 339 m 876 339 l 876 364 l 903 364 l 903 339 l 876 339 m 850 339 l 850 364 l 876 364 l 876 339 l 850 339 m 825 339 l 825 364 l 850 364 l 850 339 l 825 339 m 799 339 l 799 364 l 825 364 l 825 339 l 799 339 m 772 339 l 772 364 l 799 364 l 799 339 l 772 339 m 747 339 l 747 364 l 772 364 l 772 339 l 747 339 m 721 339 l 721 364 l 747 364 l 747 339 l 721 339 m 694 339 l 694 364 l 721 364 l 721 339 l 694 339 m 668 339 l 668 364 l 694 364 l 694 339 l 668 339 m 642 339 l 642 364 l 668 364 l 668 339 l 642 339 m 617 339 l 617 364 l 642 364 l 642 339 l 617 339 m 590 339 l 590 364 l 617 364 l 617 339 l 590 339 m 564 339 l 564 364 l 590 364 l 590 339 l 564 339 m 694 339 l 694 364 l 721 364 l 721 339 l 694 339 m 668 339 l 668 364 l 694 364 l 694 339 l 668 339 m 642 339 l 642 364 l 668 364 l 668 339 l 642 339 m 617 339 l 617 364 l 642 364 l 642 339 l 617 339 m 590 339 l 590 364 l 617 364 l 617 339 l 590 339 m 564 339 l 564 364 l 590 364 l 590 339 l 564 339 m 539 339 l 539 364 l 564 364 l 564 339 l 539 339 m 513 339 l 513 364 l 539 364 l 539 339 l 513 339 m 1085 364 l 1085 390 l 1111 390 l 1111 364 l 1085 364 m 1058 364 l 1058 390 l 1085 390 l 1085 364 l 1058 364 m 1033 364 l 1033 390 l 1058 390 l 1058 364 l 1033 364 m 1007 364 l 1007 390 l 1033 390 l 1033 364 l 1007 364 m 981 364 l 981 390 l 1007 390 l 1007 364 l 981 364 m 956 364 l 956 390 l 981 390 l 981 364 l 956 364 m 929 364 l 929 390 l 956 390 l 956 364 l 929 364 m 903 364 l 903 390 l 929 390 l 929 364 l 903 364 m 876 364 l 876 390 l 903 390 l 903 364 l 876 364 m 850 364 l 850 390 l 876 390 l 876 364 l 850 364 m 825 364 l 825 390 l 850 390 l 850 364 l 825 364 m 799 364 l 799 390 l 825 390 l 825 364 l 799 364 m 772 364 l 772 390 l 799 390 l 799 364 l 772 364 m 747 364 l 747 390 l 772 390 l 772 364 l 747 364 m 721 364 l 721 390 l 747 390 l 747 364 l 721 364 m 694 364 l 694 390 l 721 390 l 721 364 l 694 364 m 668 364 l 668 390 l 694 390 l 694 364 l 668 364 m 642 364 l 642 390 l 668 390 l 668 364 l 642 364 m 617 364 l 617 390 l 642 390 l 642 364 l 617 364 m 590 364 l 590 390 l 617 390 l 617 364 l 590 364 m 564 364 l 564 390 l 590 390 l 590 364 l 564 364 m 694 364 l 694 390 l 721 390 l 721 364 l 694 364 m 668 364 l 668 390 l 694 390 l 694 364 l 668 364 m 642 364 l 642 390 l 668 390 l 668 364 l 642 364 m 617 364 l 617 390 l 642 390 l 642 364 l 617 364 m 590 364 l 590 390 l 617 390 l 617 364 l 590 364 m 564 364 l 564 390 l 590 390 l 590 364 l 564 364 m 539 364 l 539 390 l 564 390 l 564 364 l 539 364 m 513 364 l 513 390 l 539 390 l 539 364 l 513 364 m 1085 390 l 1085 417 l 1111 417 l 1111 390 l 1085 390 m 1058 390 l 1058 417 l 1085 417 l 1085 390 l 1058 390 m 1033 390 l 1033 417 l 1058 417 l 1058 390 l 1033 390 m 1007 390 l 1007 417 l 1033 417 l 1033 390 l 1007 390 m 981 390 l 981 417 l 1007 417 l 1007 390 l 981 390 m 956 390 l 956 417 l 981 417 l 981 390 l 956 390 m 929 390 l 929 417 l 956 417 l 956 390 l 929 390 m 903 390 l 903 417 l 929 417 l 929 390 l 903 390 m 876 390 l 876 417 l 903 417 l 903 390 l 876 390 m 850 390 l 850 417 l 876 417 l 876 390 l 850 390 m 825 390 l 825 417 l 850 417 l 850 390 l 825 390 m 799 390 l 799 417 l 825 417 l 825 390 l 799 390 m 772 390 l 772 417 l 799 417 l 799 390 l 772 390 m 747 390 l 747 417 l 772 417 l 772 390 l 747 390 m 721 390 l 721 417 l 747 417 l 747 390 l 721 390 m 694 390 l 694 417 l 721 417 l 721 390 l 694 390 m 668 390 l 668 417 l 694 417 l 694 390 l 668 390 m 642 390 l 642 417 l 668 417 l 668 390 l 642 390 m 617 390 l 617 417 l 642 417 l 642 390 l 617 390 m 590 390 l 590 417 l 617 417 l 617 390 l 590 390 m 564 390 l 564 417 l 590 417 l 590 390 l 564 390 m 694 390 l 694 417 l 721 417 l 721 390 l 694 390 m 668 390 l 668 417 l 694 417 l 694 390 l 668 390 m 642 390 l 642 417 l 668 417 l 668 390 l 642 390 m 617 390 l 617 417 l 642 417 l 642 390 l 617 390 m 590 390 l 590 417 l 617 417 l 617 390 l 590 390 m 564 390 l 564 417 l 590 417 l 590 390 l 564 390 m 539 390 l 539 417 l 564 417 l 564 390 l 539 390 m 513 390 l 513 417 l 539 417 l 539 390 l 513 390 m 1085 417 l 1085 443 l 1111 443 l 1111 417 l 1085 417 m 1058 417 l 1058 443 l 1085 443 l 1085 417 l 1058 417 m 1033 417 l 1033 443 l 1058 443 l 1058 417 l 1033 417 m 1007 417 l 1007 443 l 1033 443 l 1033 417 l 1007 417 m 981 417 l 981 443 l 1007 443 l 1007 417 l 981 417 m 956 417 l 956 443 l 981 443 l 981 417 l 956 417 m 929 417 l 929 443 l 956 443 l 956 417 l 929 417 m 903 417 l 903 443 l 929 443 l 929 417 l 903 417 m 876 417 l 876 443 l 903 443 l 903 417 l 876 417 m 850 417 l 850 443 l 876 443 l 876 417 l 850 417 m 825 417 l 825 443 l 850 443 l 850 417 l 825 417 m 799 417 l 799 443 l 825 443 l 825 417 l 799 417 m 772 417 l 772 443 l 799 443 l 799 417 l 772 417 m 747 417 l 747 443 l 772 443 l 772 417 l 747 417 m 721 417 l 721 443 l 747 443 l 747 417 l 721 417 m 694 417 l 694 443 l 721 443 l 721 417 l 694 417 m 668 417 l 668 443 l 694 443 l 694 417 l 668 417 m 642 417 l 642 443 l 668 443 l 668 417 l 642 417 m 617 417 l 617 443 l 642 443 l 642 417 l 617 417 m 590 417 l 590 443 l 617 443 l 617 417 l 590 417 m 564 417 l 564 443 l 590 443 l 590 417 l 564 417 m 694 417 l 694 443 l 721 443 l 721 417 l 694 417 m 668 417 l 668 443 l 694 443 l 694 417 l 668 417 m 642 417 l 642 443 l 668 443 l 668 417 l 642 417 m 617 417 l 617 443 l 642 443 l 642 417 l 617 417 m 590 417 l 590 443 l 617 443 l 617 417 l 590 417 m 564 417 l 564 443 l 590 443 l 590 417 l 564 417 m 539 417 l 539 443 l 564 443 l 564 417 l 539 417 m 513 417 l 513 443 l 539 443 l 539 417 l 513 417 m 1085 443 l 1085 469 l 1111 469 l 1111 443 l 1085 443 m 1058 443 l 1058 469 l 1085 469 l 1085 443 l 1058 443 m 1033 443 l 1033 469 l 1058 469 l 1058 443 l 1033 443 m 1007 443 l 1007 469 l 1033 469 l 1033 443 l 1007 443 m 981 443 l 981 469 l 1007 469 l 1007 443 l 981 443 m 956 443 l 956 469 l 981 469 l 981 443 l 956 443 m 929 443 l 929 469 l 956 469 l 956 443 l 929 443 m 903 443 l 903 469 l 929 469 l 929 443 l 903 443 m 876 443 l 876 469 l 903 469 l 903 443 l 876 443 m 850 443 l 850 469 l 876 469 l 876 443 l 850 443 m 825 443 l 825 469 l 850 469 l 850 443 l 825 443 m 799 443 l 799 469 l 825 469 l 825 443 l 799 443 m 772 443 l 772 469 l 799 469 l 799 443 l 772 443 m 747 443 l 747 469 l 772 469 l 772 443 l 747 443 m 721 443 l 721 469 l 747 469 l 747 443 l 721 443 m 694 443 l 694 469 l 721 469 l 721 443 l 694 443 m 668 443 l 668 469 l 694 469 l 694 443 l 668 443 m 642 443 l 642 469 l 668 469 l 668 443 l 642 443 m 617 443 l 617 469 l 642 469 l 642 443 l 617 443 m 590 443 l 590 469 l 617 469 l 617 443 l 590 443 m 564 443 l 564 469 l 590 469 l 590 443 l 564 443 m 694 443 l 694 469 l 721 469 l 721 443 l 694 443 m 668 443 l 668 469 l 694 469 l 694 443 l 668 443 m 642 443 l 642 469 l 668 469 l 668 443 l 642 443 m 617 443 l 617 469 l 642 469 l 642 443 l 617 443 m 590 443 l 590 469 l 617 469 l 617 443 l 590 443 m 564 443 l 564 469 l 590 469 l 590 443 l 564 443 m 539 443 l 539 469 l 564 469 l 564 443 l 539 443 m 513 443 l 513 469 l 539 469 l 539 443 l 513 443 m 1085 469 l 1085 494 l 1111 494 l 1111 469 l 1085 469 m 1058 469 l 1058 494 l 1085 494 l 1085 469 l 1058 469 m 1033 469 l 1033 494 l 1058 494 l 1058 469 l 1033 469 m 1007 469 l 1007 494 l 1033 494 l 1033 469 l 1007 469 m 981 469 l 981 494 l 1007 494 l 1007 469 l 981 469 m 956 469 l 956 494 l 981 494 l 981 469 l 956 469 m 929 469 l 929 494 l 956 494 l 956 469 l 929 469 m 903 469 l 903 494 l 929 494 l 929 469 l 903 469 m 876 469 l 876 494 l 903 494 l 903 469 l 876 469 m 850 469 l 850 494 l 876 494 l 876 469 l 850 469 m 825 469 l 825 494 l 850 494 l 850 469 l 825 469 m 799 469 l 799 494 l 825 494 l 825 469 l 799 469 m 772 469 l 772 494 l 799 494 l 799 469 l 772 469 m 747 469 l 747 494 l 772 494 l 772 469 l 747 469 m 721 469 l 721 494 l 747 494 l 747 469 l 721 469 m 694 469 l 694 494 l 721 494 l 721 469 l 694 469 m 668 469 l 668 494 l 694 494 l 694 469 l 668 469 m 642 469 l 642 494 l 668 494 l 668 469 l 642 469 m 617 469 l 617 494 l 642 494 l 642 469 l 617 469 m 590 469 l 590 494 l 617 494 l 617 469 l 590 469 m 564 469 l 564 494 l 590 494 l 590 469 l 564 469 m 694 469 l 694 494 l 721 494 l 721 469 l 694 469 m 668 469 l 668 494 l 694 494 l 694 469 l 668 469 m 642 469 l 642 494 l 668 494 l 668 469 l 642 469 m 617 469 l 617 494 l 642 494 l 642 469 l 617 469 m 590 469 l 590 494 l 617 494 l 617 469 l 590 469 m 564 469 l 564 494 l 590 494 l 590 469 l 564 469 m 539 469 l 539 494 l 564 494 l 564 469 l 539 469 m 513 469 l 513 494 l 539 494 l 539 469 l 513 469 m 1085 494 l 1085 521 l 1111 521 l 1111 494 l 1085 494 m 1058 494 l 1058 521 l 1085 521 l 1085 494 l 1058 494 m 1033 494 l 1033 521 l 1058 521 l 1058 494 l 1033 494 m 1007 494 l 1007 521 l 1033 521 l 1033 494 l 1007 494 m 981 494 l 981 521 l 1007 521 l 1007 494 l 981 494 m 956 494 l 956 521 l 981 521 l 981 494 l 956 494 m 929 494 l 929 521 l 956 521 l 956 494 l 929 494 m 903 494 l 903 521 l 929 521 l 929 494 l 903 494 m 876 494 l 876 521 l 903 521 l 903 494 l 876 494 m 850 494 l 850 521 l 876 521 l 876 494 l 850 494 m 825 494 l 825 521 l 850 521 l 850 494 l 825 494 m 799 494 l 799 521 l 825 521 l 825 494 l 799 494 m 772 494 l 772 521 l 799 521 l 799 494 l 772 494 m 747 494 l 747 521 l 772 521 l 772 494 l 747 494 m 721 494 l 721 521 l 747 521 l 747 494 l 721 494 m 694 494 l 694 521 l 721 521 l 721 494 l 694 494 m 668 494 l 668 521 l 694 521 l 694 494 l 668 494 m 642 494 l 642 521 l 668 521 l 668 494 l 642 494 m 617 494 l 617 521 l 642 521 l 642 494 l 617 494 m 590 494 l 590 521 l 617 521 l 617 494 l 590 494 m 564 494 l 564 521 l 590 521 l 590 494 l 564 494 m 694 494 l 694 521 l 721 521 l 721 494 l 694 494 m 668 494 l 668 521 l 694 521 l 694 494 l 668 494 m 642 494 l 642 521 l 668 521 l 668 494 l 642 494 m 617 494 l 617 521 l 642 521 l 642 494 l 617 494 m 590 494 l 590 521 l 617 521 l 617 494 l 590 494 m 564 494 l 564 521 l 590 521 l 590 494 l 564 494 m 539 494 l 539 521 l 564 521 l 564 494 l 539 494 m 513 494 l 513 521 l 539 521 l 539 494 l 513 494 m 1085 521 l 1085 547 l 1111 547 l 1111 521 l 1085 521 m 1058 521 l 1058 547 l 1085 547 l 1085 521 l 1058 521 m 1033 521 l 1033 547 l 1058 547 l 1058 521 l 1033 521 m 1007 521 l 1007 547 l 1033 547 l 1033 521 l 1007 521 m 981 521 l 981 547 l 1007 547 l 1007 521 l 981 521 m 956 521 l 956 547 l 981 547 l 981 521 l 956 521 m 929 521 l 929 547 l 956 547 l 956 521 l 929 521 m 903 521 l 903 547 l 929 547 l 929 521 l 903 521 m 1085 547 l 1085 572 l 1111 572 l 1111 547 l 1085 547 m 1058 547 l 1058 572 l 1085 572 l 1085 547 l 1058 547 m 1033 547 l 1033 572 l 1058 572 l 1058 547 l 1033 547 m 1007 547 l 1007 572 l 1033 572 l 1033 547 l 1007 547 m 981 547 l 981 572 l 1007 572 l 1007 547 l 981 547 m 956 547 l 956 572 l 981 572 l 981 547 l 956 547 m 929 547 l 929 572 l 956 572 l 956 547 l 929 547 m 903 547 l 903 572 l 929 572 l 929 547 l 903 547 m 1085 572 l 1085 599 l 1111 599 l 1111 572 l 1085 572 m 1058 572 l 1058 599 l 1085 599 l 1085 572 l 1058 572 m 1033 572 l 1033 599 l 1058 599 l 1058 572 l 1033 572 m 1007 572 l 1007 599 l 1033 599 l 1033 572 l 1007 572 m 981 572 l 981 599 l 1007 599 l 1007 572 l 981 572 m 956 572 l 956 599 l 981 599 l 981 572 l 956 572 m 929 572 l 929 599 l 956 599 l 956 572 l 929 572 m 903 572 l 903 599 l 929 599 l 929 572 l 903 572 m 1085 599 l 1085 625 l 1111 625 l 1111 599 l 1085 599 m 1058 599 l 1058 625 l 1085 625 l 1085 599 l 1058 599 m 1033 599 l 1033 625 l 1058 625 l 1058 599 l 1033 599 m 1007 599 l 1007 625 l 1033 625 l 1033 599 l 1007 599 m 981 599 l 981 625 l 1007 625 l 1007 599 l 981 599 m 956 599 l 956 625 l 981 625 l 981 599 l 956 599 m 929 599 l 929 625 l 956 625 l 956 599 l 929 599 m 903 599 l 903 625 l 929 625 l 929 599 l 903 599 m 1085 625 l 1085 651 l 1111 651 l 1111 625 l 1085 625 m 1058 625 l 1058 651 l 1085 651 l 1085 625 l 1058 625 m 1033 625 l 1033 651 l 1058 651 l 1058 625 l 1033 625 m 1007 625 l 1007 651 l 1033 651 l 1033 625 l 1007 625 m 981 625 l 981 651 l 1007 651 l 1007 625 l 981 625 m 956 625 l 956 651 l 981 651 l 981 625 l 956 625 m 929 625 l 929 651 l 956 651 l 956 625 l 929 625 m 903 625 l 903 651 l 929 651 l 929 625 l 903 625 m 1085 651 l 1085 678 l 1111 678 l 1111 651 l 1085 651 m 1058 651 l 1058 678 l 1085 678 l 1085 651 l 1058 651 m 1033 651 l 1033 678 l 1058 678 l 1058 651 l 1033 651 m 1007 651 l 1007 678 l 1033 678 l 1033 651 l 1007 651 m 981 651 l 981 678 l 1007 678 l 1007 651 l 981 651 m 956 651 l 956 678 l 981 678 l 981 651 l 956 651 m 929 651 l 929 678 l 956 678 l 956 651 l 929 651 m 903 651 l 903 678 l 929 678 l 929 651 l 903 651 m 1085 678 l 1085 703 l 1111 703 l 1111 678 l 1085 678 m 1058 678 l 1058 703 l 1085 703 l 1085 678 l 1058 678 m 1033 678 l 1033 703 l 1058 703 l 1058 678 l 1033 678 m 1007 678 l 1007 703 l 1033 703 l 1033 678 l 1007 678 m 981 678 l 981 703 l 1007 703 l 1007 678 l 981 678 m 956 678 l 956 703 l 981 703 l 981 678 l 956 678 m 929 678 l 929 703 l 956 703 l 956 678 l 929 678 m 903 678 l 903 703 l 929 703 l 929 678 l 903 678 m 1085 703 l 1085 729 l 1111 729 l 1111 703 l 1085 703 m 1058 703 l 1058 729 l 1085 729 l 1085 703 l 1058 703 m 1033 703 l 1033 729 l 1058 729 l 1058 703 l 1033 703 m 1007 703 l 1007 729 l 1033 729 l 1033 703 l 1007 703 m 981 703 l 981 729 l 1007 729 l 1007 703 l 981 703 m 956 703 l 956 729 l 981 729 l 981 703 l 956 703 m 929 703 l 929 729 l 956 729 l 956 703 l 929 703 m 903 703 l 903 729 l 929 729 l 929 703 l 903 703 m 1085 729 l 1085 756 l 1111 756 l 1111 729 l 1085 729 m 1058 729 l 1058 756 l 1085 756 l 1085 729 l 1058 729 m 1033 729 l 1033 756 l 1058 756 l 1058 729 l 1033 729 m 1007 729 l 1007 756 l 1033 756 l 1033 729 l 1007 729 m 981 729 l 981 756 l 1007 756 l 1007 729 l 981 729 m 956 729 l 956 756 l 981 756 l 981 729 l 956 729 m 929 729 l 929 756 l 956 756 l 956 729 l 929 729 m 903 729 l 903 756 l 929 756 l 929 729 l 903 729 m 1085 756 l 1085 781 l 1111 781 l 1111 756 l 1085 756 m 1058 756 l 1058 781 l 1085 781 l 1085 756 l 1058 756 m 1033 756 l 1033 781 l 1058 781 l 1058 756 l 1033 756 m 1007 756 l 1007 781 l 1033 781 l 1033 756 l 1007 756 m 981 756 l 981 781 l 1007 781 l 1007 756 l 981 756 m 956 756 l 956 781 l 981 781 l 981 756 l 956 756 m 929 756 l 929 781 l 956 781 l 956 756 l 929 756 m 903 756 l 903 781 l 929 781 l 929 756 l 903 756 m 876 756 l 876 781 l 903 781 l 903 756 l 876 756 m 850 756 l 850 781 l 876 781 l 876 756 l 850 756 m 486 756 l 486 781 l 513 781 l 513 756 l 486 756 m 460 756 l 460 781 l 486 781 l 486 756 l 460 756 m 433 756 l 433 781 l 460 781 l 460 756 l 433 756 m 408 756 l 408 781 l 433 781 l 433 756 l 408 756 m 382 756 l 382 781 l 408 781 l 408 756 l 382 756 m 356 756 l 356 781 l 382 781 l 382 756 l 356 756 m 331 756 l 331 781 l 356 781 l 356 756 l 331 756 m 304 756 l 304 781 l 331 781 l 331 756 l 304 756 m 278 756 l 278 781 l 304 781 l 304 756 l 278 756 m 1085 781 l 1085 807 l 1111 807 l 1111 781 l 1085 781 m 1058 781 l 1058 807 l 1085 807 l 1085 781 l 1058 781 m 1033 781 l 1033 807 l 1058 807 l 1058 781 l 1033 781 m 1007 781 l 1007 807 l 1033 807 l 1033 781 l 1007 781 m 981 781 l 981 807 l 1007 807 l 1007 781 l 981 781 m 956 781 l 956 807 l 981 807 l 981 781 l 956 781 m 929 781 l 929 807 l 956 807 l 956 781 l 929 781 m 903 781 l 903 807 l 929 807 l 929 781 l 903 781 m 876 781 l 876 807 l 903 807 l 903 781 l 876 781 m 850 781 l 850 807 l 876 807 l 876 781 l 850 781 m 486 781 l 486 807 l 513 807 l 513 781 l 486 781 m 460 781 l 460 807 l 486 807 l 486 781 l 460 781 m 433 781 l 433 807 l 460 807 l 460 781 l 433 781 m 408 781 l 408 807 l 433 807 l 433 781 l 408 781 m 382 781 l 382 807 l 408 807 l 408 781 l 382 781 m 356 781 l 356 807 l 382 807 l 382 781 l 356 781 m 331 781 l 331 807 l 356 807 l 356 781 l 331 781 m 304 781 l 304 807 l 331 807 l 331 781 l 304 781 m 278 781 l 278 807 l 304 807 l 304 781 l 278 781 m 1085 807 l 1085 833 l 1111 833 l 1111 807 l 1085 807 m 1058 807 l 1058 833 l 1085 833 l 1085 807 l 1058 807 m 1033 807 l 1033 833 l 1058 833 l 1058 807 l 1033 807 m 1007 807 l 1007 833 l 1033 833 l 1033 807 l 1007 807 m 981 807 l 981 833 l 1007 833 l 1007 807 l 981 807 m 956 807 l 956 833 l 981 833 l 981 807 l 956 807 m 929 807 l 929 833 l 956 833 l 956 807 l 929 807 m 903 807 l 903 833 l 929 833 l 929 807 l 903 807 m 876 807 l 876 833 l 903 833 l 903 807 l 876 807 m 850 807 l 850 833 l 876 833 l 876 807 l 850 807 m 486 807 l 486 833 l 513 833 l 513 807 l 486 807 m 460 807 l 460 833 l 486 833 l 486 807 l 460 807 m 433 807 l 433 833 l 460 833 l 460 807 l 433 807 m 408 807 l 408 833 l 433 833 l 433 807 l 408 807 m 382 807 l 382 833 l 408 833 l 408 807 l 382 807 m 356 807 l 356 833 l 382 833 l 382 807 l 356 807 m 331 807 l 331 833 l 356 833 l 356 807 l 331 807 m 304 807 l 304 833 l 331 833 l 331 807 l 304 807 m 278 807 l 278 833 l 304 833 l 304 807 l 278 807 m 1085 833 l 1085 860 l 1111 860 l 1111 833 l 1085 833 m 1058 833 l 1058 860 l 1085 860 l 1085 833 l 1058 833 m 1033 833 l 1033 860 l 1058 860 l 1058 833 l 1033 833 m 1007 833 l 1007 860 l 1033 860 l 1033 833 l 1007 833 m 981 833 l 981 860 l 1007 860 l 1007 833 l 981 833 m 956 833 l 956 860 l 981 860 l 981 833 l 956 833 m 929 833 l 929 860 l 956 860 l 956 833 l 929 833 m 903 833 l 903 860 l 929 860 l 929 833 l 903 833 m 876 833 l 876 860 l 903 860 l 903 833 l 876 833 m 850 833 l 850 860 l 876 860 l 876 833 l 850 833 m 486 833 l 486 860 l 513 860 l 513 833 l 486 833 m 460 833 l 460 860 l 486 860 l 486 833 l 460 833 m 433 833 l 433 860 l 460 860 l 460 833 l 433 833 m 408 833 l 408 860 l 433 860 l 433 833 l 408 833 m 382 833 l 382 860 l 408 860 l 408 833 l 382 833 m 356 833 l 356 860 l 382 860 l 382 833 l 356 833 m 331 833 l 331 860 l 356 860 l 356 833 l 331 833 m 304 833 l 304 860 l 331 860 l 331 833 l 304 833 m 278 833 l 278 860 l 304 860 l 304 833 l 278 833 m 1085 860 l 1085 886 l 1111 886 l 1111 860 l 1085 860 m 1058 860 l 1058 886 l 1085 886 l 1085 860 l 1058 860 m 1033 860 l 1033 886 l 1058 886 l 1058 860 l 1033 860 m 1007 860 l 1007 886 l 1033 886 l 1033 860 l 1007 860 m 981 860 l 981 886 l 1007 886 l 1007 860 l 981 860 m 956 860 l 956 886 l 981 886 l 981 860 l 956 860 m 929 860 l 929 886 l 956 886 l 956 860 l 929 860 m 903 860 l 903 886 l 929 886 l 929 860 l 903 860 m 876 860 l 876 886 l 903 886 l 903 860 l 876 860 m 850 860 l 850 886 l 876 886 l 876 860 l 850 860 m 486 860 l 486 886 l 513 886 l 513 860 l 486 860 m 460 860 l 460 886 l 486 886 l 486 860 l 460 860 m 433 860 l 433 886 l 460 886 l 460 860 l 433 860 m 408 860 l 408 886 l 433 886 l 433 860 l 408 860 m 382 860 l 382 886 l 408 886 l 408 860 l 382 860 m 356 860 l 356 886 l 382 886 l 382 860 l 356 860 m 331 860 l 331 886 l 356 886 l 356 860 l 331 860 m 304 860 l 304 886 l 331 886 l 331 860 l 304 860 m 278 860 l 278 886 l 304 886 l 304 860 l 278 860 m 1085 886 l 1085 911 l 1111 911 l 1111 886 l 1085 886 m 1058 886 l 1058 911 l 1085 911 l 1085 886 l 1058 886 m 1033 886 l 1033 911 l 1058 911 l 1058 886 l 1033 886 m 1007 886 l 1007 911 l 1033 911 l 1033 886 l 1007 886 m 981 886 l 981 911 l 1007 911 l 1007 886 l 981 886 m 956 886 l 956 911 l 981 911 l 981 886 l 956 886 m 929 886 l 929 911 l 956 911 l 956 886 l 929 886 m 903 886 l 903 911 l 929 911 l 929 886 l 903 886 m 876 886 l 876 911 l 903 911 l 903 886 l 876 886 m 850 886 l 850 911 l 876 911 l 876 886 l 850 886 m 486 886 l 486 911 l 513 911 l 513 886 l 486 886 m 460 886 l 460 911 l 486 911 l 486 886 l 460 886 m 433 886 l 433 911 l 460 911 l 460 886 l 433 886 m 408 886 l 408 911 l 433 911 l 433 886 l 408 886 m 382 886 l 382 911 l 408 911 l 408 886 l 382 886 m 356 886 l 356 911 l 382 911 l 382 886 l 356 886 m 331 886 l 331 911 l 356 911 l 356 886 l 331 886 m 304 886 l 304 911 l 331 911 l 331 886 l 304 886 m 278 886 l 278 911 l 304 911 l 304 886 l 278 886 m 1085 911 l 1085 938 l 1111 938 l 1111 911 l 1085 911 m 1058 911 l 1058 938 l 1085 938 l 1085 911 l 1058 911 m 1033 911 l 1033 938 l 1058 938 l 1058 911 l 1033 911 m 1007 911 l 1007 938 l 1033 938 l 1033 911 l 1007 911 m 981 911 l 981 938 l 1007 938 l 1007 911 l 981 911 m 956 911 l 956 938 l 981 938 l 981 911 l 956 911 m 929 911 l 929 938 l 956 938 l 956 911 l 929 911 m 903 911 l 903 938 l 929 938 l 929 911 l 903 911 m 876 911 l 876 938 l 903 938 l 903 911 l 876 911 m 850 911 l 850 938 l 876 938 l 876 911 l 850 911 m 486 911 l 486 938 l 513 938 l 513 911 l 486 911 m 460 911 l 460 938 l 486 938 l 486 911 l 460 911 m 433 911 l 433 938 l 460 938 l 460 911 l 433 911 m 408 911 l 408 938 l 433 938 l 433 911 l 408 911 m 382 911 l 382 938 l 408 938 l 408 911 l 382 911 m 356 911 l 356 938 l 382 938 l 382 911 l 356 911 m 331 911 l 331 938 l 356 938 l 356 911 l 331 911 m 304 911 l 304 938 l 331 938 l 331 911 l 304 911 m 278 911 l 278 938 l 304 938 l 304 911 l 278 911 m 1085 938 l 1085 964 l 1111 964 l 1111 938 l 1085 938 m 1058 938 l 1058 964 l 1085 964 l 1085 938 l 1058 938 m 1033 938 l 1033 964 l 1058 964 l 1058 938 l 1033 938 m 1007 938 l 1007 964 l 1033 964 l 1033 938 l 1007 938 m 981 938 l 981 964 l 1007 964 l 1007 938 l 981 938 m 956 938 l 956 964 l 981 964 l 981 938 l 956 938 m 929 938 l 929 964 l 956 964 l 956 938 l 929 938 m 903 938 l 903 964 l 929 964 l 929 938 l 903 938 m 876 938 l 876 964 l 903 964 l 903 938 l 876 938 m 850 938 l 850 964 l 876 964 l 876 938 l 850 938 m 486 938 l 486 964 l 513 964 l 513 938 l 486 938 m 460 938 l 460 964 l 486 964 l 486 938 l 460 938 m 433 938 l 433 964 l 460 964 l 460 938 l 433 938 m 408 938 l 408 964 l 433 964 l 433 938 l 408 938 m 382 938 l 382 964 l 408 964 l 408 938 l 382 938 m 356 938 l 356 964 l 382 964 l 382 938 l 356 938 m 331 938 l 331 964 l 356 964 l 356 938 l 331 938 m 304 938 l 304 964 l 331 964 l 331 938 l 304 938 m 278 938 l 278 964 l 304 964 l 304 938 l 278 938 m 539 313 l 539 339 l 564 339 l 564 313 l 539 313 m 513 313 l 513 339 l 539 339 l 539 313 l 513 313 m 539 339 l 539 364 l 564 364 l 564 339 l 539 339 m 513 339 l 513 364 l 539 364 l 539 339 l 513 339 m 539 364 l 539 390 l 564 390 l 564 364 l 539 364 m 513 364 l 513 390 l 539 390 l 539 364 l 513 364 m 539 390 l 539 417 l 564 417 l 564 390 l 539 390 m 513 390 l 513 417 l 539 417 l 539 390 l 513 390 m 539 417 l 539 443 l 564 443 l 564 417 l 539 417 m 513 417 l 513 443 l 539 443 l 539 417 l 513 417 m 539 443 l 539 469 l 564 469 l 564 443 l 539 443 m 513 443 l 513 469 l 539 469 l 539 443 l 513 443 m 539 469 l 539 494 l 564 494 l 564 469 l 539 469 m 513 469 l 513 494 l 539 494 l 539 469 l 513 469 m 539 494 l 539 521 l 564 521 l 564 494 l 539 494 m 513 494 l 513 521 l 539 521 l 539 494 l 513 494 m 825 756 l 825 781 l 850 781 l 850 756 l 825 756 m 799 756 l 799 781 l 825 781 l 825 756 l 799 756 m 772 756 l 772 781 l 799 781 l 799 756 l 772 756 m 747 756 l 747 781 l 772 781 l 772 756 l 747 756 m 721 756 l 721 781 l 747 781 l 747 756 l 721 756 m 694 756 l 694 781 l 721 781 l 721 756 l 694 756 m 668 756 l 668 781 l 694 781 l 694 756 l 668 756 m 642 756 l 642 781 l 668 781 l 668 756 l 642 756 m 617 756 l 617 781 l 642 781 l 642 756 l 617 756 m 590 756 l 590 781 l 617 781 l 617 756 l 590 756 m 564 756 l 564 781 l 590 781 l 590 756 l 564 756 m 825 781 l 825 807 l 850 807 l 850 781 l 825 781 m 799 781 l 799 807 l 825 807 l 825 781 l 799 781 m 772 781 l 772 807 l 799 807 l 799 781 l 772 781 m 747 781 l 747 807 l 772 807 l 772 781 l 747 781 m 721 781 l 721 807 l 747 807 l 747 781 l 721 781 m 694 781 l 694 807 l 721 807 l 721 781 l 694 781 m 668 781 l 668 807 l 694 807 l 694 781 l 668 781 m 642 781 l 642 807 l 668 807 l 668 781 l 642 781 m 617 781 l 617 807 l 642 807 l 642 781 l 617 781 m 590 781 l 590 807 l 617 807 l 617 781 l 590 781 m 564 781 l 564 807 l 590 807 l 590 781 l 564 781 m 825 807 l 825 833 l 850 833 l 850 807 l 825 807 m 799 807 l 799 833 l 825 833 l 825 807 l 799 807 m 772 807 l 772 833 l 799 833 l 799 807 l 772 807 m 747 807 l 747 833 l 772 833 l 772 807 l 747 807 m 721 807 l 721 833 l 747 833 l 747 807 l 721 807 m 694 807 l 694 833 l 721 833 l 721 807 l 694 807 m 668 807 l 668 833 l 694 833 l 694 807 l 668 807 m 642 807 l 642 833 l 668 833 l 668 807 l 642 807 m 617 807 l 617 833 l 642 833 l 642 807 l 617 807 m 590 807 l 590 833 l 617 833 l 617 807 l 590 807 m 564 807 l 564 833 l 590 833 l 590 807 l 564 807 m 825 833 l 825 860 l 850 860 l 850 833 l 825 833 m 799 833 l 799 860 l 825 860 l 825 833 l 799 833 m 772 833 l 772 860 l 799 860 l 799 833 l 772 833 m 747 833 l 747 860 l 772 860 l 772 833 l 747 833 m 721 833 l 721 860 l 747 860 l 747 833 l 721 833 m 694 833 l 694 860 l 721 860 l 721 833 l 694 833 m 668 833 l 668 860 l 694 860 l 694 833 l 668 833 m 642 833 l 642 860 l 668 860 l 668 833 l 642 833 m 617 833 l 617 860 l 642 860 l 642 833 l 617 833 m 590 833 l 590 860 l 617 860 l 617 833 l 590 833 m 564 833 l 564 860 l 590 860 l 590 833 l 564 833 m 825 860 l 825 886 l 850 886 l 850 860 l 825 860 m 799 860 l 799 886 l 825 886 l 825 860 l 799 860 m 772 860 l 772 886 l 799 886 l 799 860 l 772 860 m 747 860 l 747 886 l 772 886 l 772 860 l 747 860 m 721 860 l 721 886 l 747 886 l 747 860 l 721 860 m 694 860 l 694 886 l 721 886 l 721 860 l 694 860 m 668 860 l 668 886 l 694 886 l 694 860 l 668 860 m 642 860 l 642 886 l 668 886 l 668 860 l 642 860 m 617 860 l 617 886 l 642 886 l 642 860 l 617 860 m 590 860 l 590 886 l 617 886 l 617 860 l 590 860 m 564 860 l 564 886 l 590 886 l 590 860 l 564 860 m 825 886 l 825 911 l 850 911 l 850 886 l 825 886 m 799 886 l 799 911 l 825 911 l 825 886 l 799 886 m 772 886 l 772 911 l 799 911 l 799 886 l 772 886 m 747 886 l 747 911 l 772 911 l 772 886 l 747 886 m 721 886 l 721 911 l 747 911 l 747 886 l 721 886 m 694 886 l 694 911 l 721 911 l 721 886 l 694 886 m 668 886 l 668 911 l 694 911 l 694 886 l 668 886 m 642 886 l 642 911 l 668 911 l 668 886 l 642 886 m 617 886 l 617 911 l 642 911 l 642 886 l 617 886 m 590 886 l 590 911 l 617 911 l 617 886 l 590 886 m 564 886 l 564 911 l 590 911 l 590 886 l 564 886 m 825 911 l 825 938 l 850 938 l 850 911 l 825 911 m 799 911 l 799 938 l 825 938 l 825 911 l 799 911 m 772 911 l 772 938 l 799 938 l 799 911 l 772 911 m 747 911 l 747 938 l 772 938 l 772 911 l 747 911 m 721 911 l 721 938 l 747 938 l 747 911 l 721 911 m 694 911 l 694 938 l 721 938 l 721 911 l 694 911 m 668 911 l 668 938 l 694 938 l 694 911 l 668 911 m 642 911 l 642 938 l 668 938 l 668 911 l 642 911 m 617 911 l 617 938 l 642 938 l 642 911 l 617 911 m 590 911 l 590 938 l 617 938 l 617 911 l 590 911 m 564 911 l 564 938 l 590 938 l 590 911 l 564 911 m 825 938 l 825 964 l 850 964 l 850 938 l 825 938 m 799 938 l 799 964 l 825 964 l 825 938 l 799 938 m 772 938 l 772 964 l 799 964 l 799 938 l 772 938 m 747 938 l 747 964 l 772 964 l 772 938 l 747 938 m 721 938 l 721 964 l 747 964 l 747 938 l 721 938 m 694 938 l 694 964 l 721 964 l 721 938 l 694 938 m 668 938 l 668 964 l 694 964 l 694 938 l 668 938 m 642 938 l 642 964 l 668 964 l 668 938 l 642 938 m 617 938 l 617 964 l 642 964 l 642 938 l 617 938 m 590 938 l 590 964 l 617 964 l 617 938 l 590 938 m 564 938 l 564 964 l 590 964 l 590 938 l 564 938 m 539 756 l 539 781 l 564 781 l 564 756 l 539 756 m 513 756 l 513 781 l 539 781 l 539 756 l 513 756 m 539 781 l 539 807 l 564 807 l 564 781 l 539 781 m 513 781 l 513 807 l 539 807 l 539 781 l 513 781 m 539 807 l 539 833 l 564 833 l 564 807 l 539 807 m 513 807 l 513 833 l 539 833 l 539 807 l 513 807 m 539 833 l 539 860 l 564 860 l 564 833 l 539 833 m 513 833 l 513 860 l 539 860 l 539 833 l 513 833 m 539 860 l 539 886 l 564 886 l 564 860 l 539 860 m 513 860 l 513 886 l 539 886 l 539 860 l 513 860 m 539 886 l 539 911 l 564 911 l 564 886 l 539 886 m 513 886 l 513 911 l 539 911 l 539 886 l 513 886 m 539 911 l 539 938 l 564 938 l 564 911 l 539 911 m 513 911 l 513 938 l 539 938 l 539 911 l 513 911 m 539 938 l 539 964 l 564 964 l 564 938 l 539 938 m 513 938 l 513 964 l 539 964 l 539 938 l 513 938 m 460 678 l 460 703 l 486 703 l 486 678 l 460 678 m 433 678 l 433 703 l 460 703 l 460 678 l 433 678 m 408 678 l 408 703 l 433 703 l 433 678 l 408 678 m 382 678 l 382 703 l 408 703 l 408 678 l 382 678 m 356 678 l 356 703 l 382 703 l 382 678 l 356 678 m 331 678 l 331 703 l 356 703 l 356 678 l 331 678 m 304 678 l 304 703 l 331 703 l 331 678 l 304 678 m 278 678 l 278 703 l 304 703 l 304 678 l 278 678 m 460 703 l 460 729 l 486 729 l 486 703 l 460 703 m 433 703 l 433 729 l 460 729 l 460 703 l 433 703 m 408 703 l 408 729 l 433 729 l 433 703 l 408 703 m 382 703 l 382 729 l 408 729 l 408 703 l 382 703 m 356 703 l 356 729 l 382 729 l 382 703 l 356 703 m 331 703 l 331 729 l 356 729 l 356 703 l 331 703 m 304 703 l 304 729 l 331 729 l 331 703 l 304 703 m 278 703 l 278 729 l 304 729 l 304 703 l 278 703 m 460 729 l 460 756 l 486 756 l 486 729 l 460 729 m 433 729 l 433 756 l 460 756 l 460 729 l 433 729 m 408 729 l 408 756 l 433 756 l 433 729 l 408 729 m 382 729 l 382 756 l 408 756 l 408 729 l 382 729 m 356 729 l 356 756 l 382 756 l 382 729 l 356 729 m 331 729 l 331 756 l 356 756 l 356 729 l 331 729 m 304 729 l 304 756 l 331 756 l 331 729 l 304 729 m 278 729 l 278 756 l 304 756 l 304 729 l 278 729 z "},"A":{"ha":1389,"x_min":278,"x_max":1111,"o":"m 590 131 l 539 131 l 539 26 l 513 26 l 513 -78 l 486 -78 l 486 -131 l 278 -131 l 278 -26 l 304 -26 l 304 78 l 331 78 l 331 182 l 356 182 l 356 235 l 356 286 l 382 286 l 382 390 l 408 390 l 408 469 l 408 494 l 433 494 l 433 599 l 460 599 l 460 678 l 460 703 l 486 703 l 486 807 l 513 807 l 513 886 l 513 911 l 539 911 l 539 964 l 850 964 l 850 911 l 876 911 l 876 886 l 876 807 l 903 807 l 903 703 l 929 703 l 929 678 l 929 599 l 956 599 l 956 494 l 981 494 l 981 469 l 981 390 l 1007 390 l 1007 286 l 1033 286 l 1033 235 l 1033 182 l 1058 182 l 1058 78 l 1085 78 l 1085 -26 l 1111 -26 l 1111 -131 l 903 -131 l 903 -78 l 876 -78 l 876 26 l 850 26 l 850 131 l 590 131 m 617 443 l 617 390 l 617 339 l 772 339 l 772 390 l 772 417 l 772 443 l 747 443 l 747 547 l 721 547 l 721 651 l 668 651 l 668 547 l 642 547 l 642 443 l 617 443 z "},"B":{"ha":1389,"x_min":278,"x_max":1111,"o":"m 460 964 l 486 964 l 513 964 l 513 938 l 513 911 l 513 886 l 513 860 l 513 833 l 513 807 l 513 781 l 513 756 l 513 729 l 513 703 l 513 678 l 513 651 l 513 625 l 513 599 l 513 572 l 513 547 l 513 521 l 513 494 l 513 469 l 513 443 l 513 417 l 513 390 l 513 364 l 513 339 l 513 313 l 513 286 l 513 261 l 513 235 l 513 208 l 513 182 l 513 156 l 513 131 l 513 104 l 513 78 l 513 53 l 513 26 l 513 0 l 513 -26 l 513 -53 l 513 -78 l 513 -104 l 513 -131 l 486 -131 l 460 -131 l 433 -131 l 408 -131 l 382 -131 l 356 -131 l 331 -131 l 304 -131 l 278 -131 l 278 -104 l 278 -78 l 278 -53 l 278 -26 l 278 0 l 278 26 l 278 53 l 278 78 l 278 104 l 278 131 l 278 156 l 278 182 l 278 208 l 278 235 l 278 261 l 278 286 l 278 313 l 278 339 l 278 364 l 278 390 l 278 417 l 278 443 l 278 469 l 278 494 l 278 521 l 278 547 l 278 572 l 278 599 l 278 625 l 278 651 l 278 678 l 278 703 l 278 729 l 278 756 l 278 781 l 278 807 l 278 833 l 278 860 l 278 886 l 278 911 l 278 938 l 278 964 l 304 964 l 331 964 l 356 964 l 382 964 l 408 964 l 433 964 l 460 964 m 1085 286 l 1111 286 l 1111 261 l 1111 235 l 1111 208 l 1111 182 l 1111 156 l 1111 131 l 1111 104 l 1111 78 l 1085 78 l 1085 53 l 1085 26 l 1058 26 l 1058 0 l 1058 -26 l 1033 -26 l 1033 -53 l 1007 -53 l 1007 -78 l 981 -78 l 956 -78 l 956 -104 l 929 -104 l 903 -104 l 876 -104 l 876 -131 l 850 -131 l 825 -131 l 799 -131 l 772 -131 l 747 -131 l 721 -131 l 694 -131 l 668 -131 l 642 -131 l 617 -131 l 590 -131 l 564 -131 l 564 -104 l 564 -78 l 564 -53 l 564 -26 l 564 0 l 564 26 l 564 53 l 590 53 l 617 53 l 642 53 l 668 53 l 694 53 l 721 53 l 747 53 l 772 53 l 772 78 l 799 78 l 825 78 l 825 104 l 825 131 l 850 131 l 850 156 l 850 182 l 850 208 l 850 235 l 825 235 l 825 261 l 825 286 l 799 286 l 772 286 l 772 313 l 747 313 l 721 313 l 694 313 l 668 313 l 642 313 l 617 313 l 590 313 l 564 313 l 564 339 l 564 364 l 564 390 l 564 417 l 564 443 l 564 469 l 564 494 l 564 521 l 564 547 l 590 547 l 617 547 l 642 547 l 668 547 l 694 547 l 721 547 l 747 547 l 747 572 l 772 572 l 772 599 l 799 599 l 799 625 l 799 651 l 799 678 l 799 703 l 799 729 l 772 729 l 772 756 l 747 756 l 747 781 l 721 781 l 694 781 l 668 781 l 642 781 l 617 781 l 590 781 l 564 781 l 564 807 l 564 833 l 564 860 l 564 886 l 564 911 l 564 938 l 564 964 l 590 964 l 617 964 l 642 964 l 668 964 l 694 964 l 721 964 l 747 964 l 772 964 l 799 964 l 825 964 l 825 938 l 850 938 l 876 938 l 903 938 l 903 911 l 929 911 l 956 911 l 956 886 l 981 886 l 981 860 l 1007 860 l 1007 833 l 1033 833 l 1033 807 l 1033 781 l 1058 781 l 1058 756 l 1058 729 l 1058 703 l 1058 678 l 1058 651 l 1058 625 l 1058 599 l 1058 572 l 1058 547 l 1033 547 l 1033 521 l 1033 494 l 1007 494 l 1007 469 l 981 469 l 981 443 l 1007 443 l 1007 417 l 1033 417 l 1033 390 l 1058 390 l 1058 364 l 1058 339 l 1085 339 l 1085 313 l 1085 286 z "},"C":{"ha":1389,"x_min":278,"x_max":1111,"o":"m 1085 703 l 1111 703 l 1111 678 l 1111 651 l 1085 651 l 1058 651 l 1058 625 l 1033 625 l 1007 625 l 1007 599 l 981 599 l 956 599 l 956 572 l 929 572 l 903 572 l 903 599 l 903 625 l 876 625 l 876 651 l 876 678 l 850 678 l 850 703 l 825 703 l 825 729 l 799 729 l 799 756 l 772 756 l 747 756 l 747 781 l 721 781 l 694 781 l 668 781 l 642 781 l 642 756 l 617 756 l 590 756 l 590 729 l 590 703 l 564 703 l 564 678 l 564 651 l 539 651 l 539 625 l 539 599 l 539 572 l 539 547 l 539 521 l 513 521 l 513 494 l 513 469 l 513 443 l 513 417 l 513 390 l 513 364 l 513 339 l 513 313 l 539 313 l 539 286 l 539 261 l 539 235 l 539 208 l 539 182 l 564 182 l 564 156 l 564 131 l 590 131 l 590 104 l 590 78 l 617 78 l 642 78 l 642 53 l 668 53 l 694 53 l 721 53 l 747 53 l 747 78 l 772 78 l 799 78 l 799 104 l 825 104 l 825 131 l 850 131 l 850 156 l 876 156 l 876 182 l 876 208 l 903 208 l 903 235 l 903 261 l 929 261 l 956 261 l 956 235 l 981 235 l 1007 235 l 1007 208 l 1033 208 l 1058 208 l 1058 182 l 1085 182 l 1111 182 l 1111 156 l 1111 131 l 1085 131 l 1085 104 l 1085 78 l 1058 78 l 1058 53 l 1058 26 l 1033 26 l 1033 0 l 1007 0 l 1007 -26 l 981 -26 l 981 -53 l 956 -53 l 956 -78 l 929 -78 l 903 -78 l 903 -104 l 876 -104 l 850 -104 l 825 -104 l 799 -104 l 799 -131 l 772 -131 l 747 -131 l 721 -131 l 694 -131 l 668 -131 l 642 -131 l 617 -131 l 617 -104 l 590 -104 l 564 -104 l 539 -104 l 539 -78 l 513 -78 l 486 -78 l 460 -78 l 460 -53 l 433 -53 l 433 -26 l 408 -26 l 408 0 l 382 0 l 382 26 l 356 26 l 356 53 l 356 78 l 331 78 l 331 104 l 331 131 l 331 156 l 304 156 l 304 182 l 304 208 l 304 235 l 304 261 l 304 286 l 278 286 l 278 313 l 278 339 l 278 364 l 278 390 l 278 417 l 278 443 l 278 469 l 278 494 l 278 521 l 278 547 l 304 547 l 304 572 l 304 599 l 304 625 l 304 651 l 304 678 l 331 678 l 331 703 l 331 729 l 331 756 l 356 756 l 356 781 l 356 807 l 382 807 l 382 833 l 408 833 l 408 860 l 433 860 l 433 886 l 460 886 l 460 911 l 486 911 l 513 911 l 539 911 l 539 938 l 564 938 l 590 938 l 617 938 l 617 964 l 642 964 l 668 964 l 694 964 l 721 964 l 747 964 l 772 964 l 799 964 l 799 938 l 825 938 l 850 938 l 876 938 l 903 938 l 903 911 l 929 911 l 956 911 l 956 886 l 981 886 l 981 860 l 1007 860 l 1007 833 l 1033 833 l 1033 807 l 1058 807 l 1058 781 l 1058 756 l 1085 756 l 1085 729 l 1085 703 z "},"D":{"ha":1389,"x_min":278,"x_max":1111,"o":"m 1085 625 l 1111 625 l 1111 599 l 1111 572 l 1111 547 l 1111 521 l 1111 494 l 1111 469 l 1111 443 l 1111 417 l 1111 390 l 1111 364 l 1111 339 l 1111 313 l 1111 286 l 1111 261 l 1111 235 l 1111 208 l 1085 208 l 1085 182 l 1085 156 l 1085 131 l 1058 131 l 1058 104 l 1058 78 l 1033 78 l 1033 53 l 1033 26 l 1007 26 l 1007 0 l 981 0 l 981 -26 l 956 -26 l 956 -53 l 929 -53 l 929 -78 l 903 -78 l 876 -78 l 876 -104 l 850 -104 l 825 -104 l 799 -104 l 772 -104 l 772 -131 l 747 -131 l 721 -131 l 694 -131 l 668 -131 l 642 -131 l 617 -131 l 590 -131 l 564 -131 l 564 -104 l 564 -78 l 564 -53 l 564 -26 l 564 0 l 564 26 l 564 53 l 590 53 l 617 53 l 642 53 l 668 53 l 694 53 l 694 78 l 721 78 l 747 78 l 747 104 l 772 104 l 799 104 l 799 131 l 799 156 l 825 156 l 825 182 l 825 208 l 850 208 l 850 235 l 850 261 l 876 261 l 876 286 l 876 313 l 876 339 l 876 364 l 876 390 l 876 417 l 876 443 l 876 469 l 876 494 l 876 521 l 876 547 l 876 572 l 850 572 l 850 599 l 850 625 l 825 625 l 825 651 l 825 678 l 799 678 l 799 703 l 799 729 l 772 729 l 747 729 l 747 756 l 721 756 l 694 756 l 694 781 l 668 781 l 642 781 l 617 781 l 590 781 l 564 781 l 564 807 l 564 833 l 564 860 l 564 886 l 564 911 l 564 938 l 564 964 l 590 964 l 617 964 l 642 964 l 668 964 l 694 964 l 721 964 l 747 964 l 772 964 l 772 938 l 799 938 l 825 938 l 850 938 l 876 938 l 876 911 l 903 911 l 929 911 l 929 886 l 956 886 l 956 860 l 981 860 l 981 833 l 1007 833 l 1007 807 l 1033 807 l 1033 781 l 1033 756 l 1058 756 l 1058 729 l 1058 703 l 1085 703 l 1085 678 l 1085 651 l 1085 625 m 460 964 l 486 964 l 513 964 l 513 938 l 513 911 l 513 886 l 513 860 l 513 833 l 513 807 l 513 781 l 513 756 l 513 729 l 513 703 l 513 678 l 513 651 l 513 625 l 513 599 l 513 572 l 513 547 l 513 521 l 513 494 l 513 469 l 513 443 l 513 417 l 513 390 l 513 364 l 513 339 l 513 313 l 513 286 l 513 261 l 513 235 l 513 208 l 513 182 l 513 156 l 513 131 l 513 104 l 513 78 l 513 53 l 513 26 l 513 0 l 513 -26 l 513 -53 l 513 -78 l 513 -104 l 513 -131 l 486 -131 l 460 -131 l 433 -131 l 408 -131 l 382 -131 l 356 -131 l 331 -131 l 304 -131 l 278 -131 l 278 -104 l 278 -78 l 278 -53 l 278 -26 l 278 0 l 278 26 l 278 53 l 278 78 l 278 104 l 278 131 l 278 156 l 278 182 l 278 208 l 278 235 l 278 261 l 278 286 l 278 313 l 278 339 l 278 364 l 278 390 l 278 417 l 278 443 l 278 469 l 278 494 l 278 521 l 278 547 l 278 572 l 278 599 l 278 625 l 278 651 l 278 678 l 278 703 l 278 729 l 278 756 l 278 781 l 278 807 l 278 833 l 278 860 l 278 886 l 278 911 l 278 938 l 278 964 l 304 964 l 331 964 l 356 964 l 382 964 l 408 964 l 433 964 l 460 964 z "},"E":{"ha":1389,"x_min":278,"x_max":1111,"o":"m 1058 78 l 1085 78 l 1111 78 l 1111 53 l 1111 26 l 1111 0 l 1111 -26 l 1111 -53 l 1111 -78 l 1111 -104 l 1111 -131 l 1085 -131 l 1058 -131 l 1033 -131 l 1007 -131 l 981 -131 l 956 -131 l 929 -131 l 903 -131 l 876 -131 l 850 -131 l 825 -131 l 799 -131 l 772 -131 l 747 -131 l 721 -131 l 694 -131 l 668 -131 l 642 -131 l 617 -131 l 590 -131 l 564 -131 l 564 -104 l 564 -78 l 564 -53 l 564 -26 l 564 0 l 564 26 l 564 53 l 564 78 l 590 78 l 617 78 l 642 78 l 668 78 l 694 78 l 721 78 l 747 78 l 772 78 l 799 78 l 825 78 l 850 78 l 876 78 l 903 78 l 929 78 l 956 78 l 981 78 l 1007 78 l 1033 78 l 1058 78 m 617 313 l 590 313 l 564 313 l 564 339 l 564 364 l 564 390 l 564 417 l 564 443 l 564 469 l 564 494 l 564 521 l 590 521 l 617 521 l 642 521 l 668 521 l 694 521 l 721 521 l 747 521 l 772 521 l 799 521 l 825 521 l 850 521 l 876 521 l 903 521 l 929 521 l 956 521 l 981 521 l 1007 521 l 1033 521 l 1033 494 l 1033 469 l 1033 443 l 1033 417 l 1033 390 l 1033 364 l 1033 339 l 1033 313 l 1007 313 l 981 313 l 956 313 l 929 313 l 903 313 l 876 313 l 850 313 l 825 313 l 799 313 l 772 313 l 747 313 l 721 313 l 694 313 l 668 313 l 642 313 l 617 313 m 1085 964 l 1111 964 l 1111 938 l 1111 911 l 1111 886 l 1111 860 l 1111 833 l 1111 807 l 1111 781 l 1111 756 l 1085 756 l 1058 756 l 1033 756 l 1007 756 l 981 756 l 956 756 l 929 756 l 903 756 l 876 756 l 850 756 l 825 756 l 799 756 l 772 756 l 747 756 l 721 756 l 694 756 l 668 756 l 642 756 l 617 756 l 590 756 l 564 756 l 564 781 l 564 807 l 564 833 l 564 860 l 564 886 l 564 911 l 564 938 l 564 964 l 590 964 l 617 964 l 642 964 l 668 964 l 694 964 l 721 964 l 747 964 l 772 964 l 799 964 l 825 964 l 850 964 l 876 964 l 903 964 l 929 964 l 956 964 l 981 964 l 1007 964 l 1033 964 l 1058 964 l 1085 964 m 460 964 l 486 964 l 513 964 l 513 938 l 513 911 l 513 886 l 513 860 l 513 833 l 513 807 l 513 781 l 513 756 l 513 729 l 513 703 l 513 678 l 513 651 l 513 625 l 513 599 l 513 572 l 513 547 l 513 521 l 513 494 l 513 469 l 513 443 l 513 417 l 513 390 l 513 364 l 513 339 l 513 313 l 513 286 l 513 261 l 513 235 l 513 208 l 513 182 l 513 156 l 513 131 l 513 104 l 513 78 l 513 53 l 513 26 l 513 0 l 513 -26 l 513 -53 l 513 -78 l 513 -104 l 513 -131 l 486 -131 l 460 -131 l 433 -131 l 408 -131 l 382 -131 l 356 -131 l 331 -131 l 304 -131 l 278 -131 l 278 -104 l 278 -78 l 278 -53 l 278 -26 l 278 0 l 278 26 l 278 53 l 278 78 l 278 104 l 278 131 l 278 156 l 278 182 l 278 208 l 278 235 l 278 261 l 278 286 l 278 313 l 278 339 l 278 364 l 278 390 l 278 417 l 278 443 l 278 469 l 278 494 l 278 521 l 278 547 l 278 572 l 278 599 l 278 625 l 278 651 l 278 678 l 278 703 l 278 729 l 278 756 l 278 781 l 278 807 l 278 833 l 278 860 l 278 886 l 278 911 l 278 938 l 278 964 l 304 964 l 331 964 l 356 964 l 382 964 l 408 964 l 433 964 l 460 964 z "},"F":{"ha":1389,"x_min":278,"x_max":1111,"o":"m 981 521 l 1007 521 l 1033 521 l 1033 494 l 1033 469 l 1033 443 l 1033 417 l 1033 390 l 1033 364 l 1033 339 l 1033 313 l 1007 313 l 981 313 l 956 313 l 929 313 l 903 313 l 876 313 l 850 313 l 825 313 l 799 313 l 772 313 l 747 313 l 721 313 l 694 313 l 668 313 l 642 313 l 617 313 l 590 313 l 564 313 l 564 339 l 564 364 l 564 390 l 564 417 l 564 443 l 564 469 l 564 494 l 564 521 l 590 521 l 617 521 l 642 521 l 668 521 l 694 521 l 721 521 l 747 521 l 772 521 l 799 521 l 825 521 l 850 521 l 876 521 l 903 521 l 929 521 l 956 521 l 981 521 m 1085 964 l 1111 964 l 1111 938 l 1111 911 l 1111 886 l 1111 860 l 1111 833 l 1111 807 l 1111 781 l 1111 756 l 1085 756 l 1058 756 l 1033 756 l 1007 756 l 981 756 l 956 756 l 929 756 l 903 756 l 876 756 l 850 756 l 825 756 l 799 756 l 772 756 l 747 756 l 721 756 l 694 756 l 668 756 l 642 756 l 617 756 l 590 756 l 564 756 l 564 781 l 564 807 l 564 833 l 564 860 l 564 886 l 564 911 l 564 938 l 564 964 l 590 964 l 617 964 l 642 964 l 668 964 l 694 964 l 721 964 l 747 964 l 772 964 l 799 964 l 825 964 l 850 964 l 876 964 l 903 964 l 929 964 l 956 964 l 981 964 l 1007 964 l 1033 964 l 1058 964 l 1085 964 m 460 964 l 486 964 l 513 964 l 513 938 l 513 911 l 513 886 l 513 860 l 513 833 l 513 807 l 513 781 l 513 756 l 513 729 l 513 703 l 513 678 l 513 651 l 513 625 l 513 599 l 513 572 l 513 547 l 513 521 l 513 494 l 513 469 l 513 443 l 513 417 l 513 390 l 513 364 l 513 339 l 513 313 l 513 286 l 513 261 l 513 235 l 513 208 l 513 182 l 513 156 l 513 131 l 513 104 l 513 78 l 513 53 l 513 26 l 513 0 l 513 -26 l 513 -53 l 513 -78 l 513 -104 l 513 -131 l 486 -131 l 460 -131 l 433 -131 l 408 -131 l 382 -131 l 356 -131 l 331 -131 l 304 -131 l 278 -131 l 278 -104 l 278 -78 l 278 -53 l 278 -26 l 278 0 l 278 26 l 278 53 l 278 78 l 278 104 l 278 131 l 278 156 l 278 182 l 278 208 l 278 235 l 278 261 l 278 286 l 278 313 l 278 339 l 278 364 l 278 390 l 278 417 l 278 443 l 278 469 l 278 494 l 278 521 l 278 547 l 278 572 l 278 599 l 278 625 l 278 651 l 278 678 l 278 703 l 278 729 l 278 756 l 278 781 l 278 807 l 278 833 l 278 860 l 278 886 l 278 911 l 278 938 l 278 964 l 304 964 l 331 964 l 356 964 l 382 964 l 408 964 l 433 964 l 460 964 z "},"G":{"ha":1389,"x_min":278,"x_max":1111,"o":"m 1085 703 l 1111 703 l 1111 678 l 1111 651 l 1085 651 l 1058 651 l 1033 651 l 1033 625 l 1007 625 l 981 625 l 956 625 l 929 625 l 929 599 l 903 599 l 876 599 l 876 625 l 876 651 l 850 651 l 850 678 l 850 703 l 825 703 l 825 729 l 799 729 l 799 756 l 772 756 l 747 756 l 747 781 l 721 781 l 694 781 l 668 781 l 668 756 l 642 756 l 617 756 l 617 729 l 590 729 l 590 703 l 564 703 l 564 678 l 564 651 l 564 625 l 539 625 l 539 599 l 539 572 l 539 547 l 539 521 l 539 494 l 539 469 l 539 443 l 539 417 l 539 390 l 539 364 l 539 339 l 539 313 l 539 286 l 539 261 l 539 235 l 564 235 l 564 208 l 564 182 l 564 156 l 590 156 l 590 131 l 590 104 l 617 104 l 617 78 l 642 78 l 668 78 l 668 53 l 694 53 l 721 53 l 747 53 l 772 53 l 772 78 l 799 78 l 825 78 l 825 104 l 850 104 l 850 131 l 850 156 l 876 156 l 876 182 l 876 208 l 876 235 l 876 261 l 850 261 l 825 261 l 799 261 l 772 261 l 747 261 l 721 261 l 694 261 l 694 286 l 694 313 l 694 339 l 694 364 l 694 390 l 694 417 l 694 443 l 694 469 l 721 469 l 747 469 l 772 469 l 799 469 l 825 469 l 850 469 l 876 469 l 903 469 l 929 469 l 956 469 l 981 469 l 1007 469 l 1033 469 l 1058 469 l 1085 469 l 1111 469 l 1111 443 l 1111 417 l 1111 390 l 1111 364 l 1111 339 l 1111 313 l 1111 286 l 1111 261 l 1111 235 l 1111 208 l 1111 182 l 1111 156 l 1111 131 l 1111 104 l 1111 78 l 1111 53 l 1111 26 l 1111 0 l 1111 -26 l 1111 -53 l 1111 -78 l 1111 -104 l 1111 -131 l 1085 -131 l 1058 -131 l 1033 -131 l 1007 -131 l 981 -131 l 956 -131 l 929 -131 l 903 -131 l 876 -131 l 876 -104 l 876 -78 l 876 -53 l 876 -26 l 876 0 l 876 26 l 850 26 l 850 0 l 850 -26 l 825 -26 l 825 -53 l 799 -53 l 799 -78 l 772 -78 l 772 -104 l 747 -104 l 721 -104 l 721 -131 l 694 -131 l 668 -131 l 642 -131 l 617 -131 l 590 -131 l 564 -131 l 539 -131 l 513 -131 l 513 -104 l 486 -104 l 460 -104 l 460 -78 l 433 -78 l 433 -53 l 408 -53 l 408 -26 l 382 -26 l 382 0 l 356 0 l 356 26 l 356 53 l 331 53 l 331 78 l 331 104 l 304 104 l 304 131 l 304 156 l 304 182 l 304 208 l 304 235 l 304 261 l 278 261 l 278 286 l 278 313 l 278 339 l 278 364 l 278 390 l 278 417 l 278 443 l 278 469 l 278 494 l 278 521 l 278 547 l 278 572 l 304 572 l 304 599 l 304 625 l 304 651 l 304 678 l 304 703 l 331 703 l 331 729 l 331 756 l 356 756 l 356 781 l 356 807 l 382 807 l 382 833 l 408 833 l 408 860 l 433 860 l 433 886 l 460 886 l 460 911 l 486 911 l 513 911 l 513 938 l 539 938 l 564 938 l 590 938 l 590 964 l 617 964 l 642 964 l 668 964 l 694 964 l 721 964 l 747 964 l 772 964 l 799 964 l 825 964 l 825 938 l 850 938 l 876 938 l 903 938 l 903 911 l 929 911 l 956 911 l 956 886 l 981 886 l 981 860 l 1007 860 l 1007 833 l 1033 833 l 1033 807 l 1058 807 l 1058 781 l 1058 756 l 1085 756 l 1085 729 l 1085 703 z "},"H":{"ha":1389,"x_min":278,"x_max":1111,"o":"m 1085 964 l 1111 964 l 1111 938 l 1111 911 l 1111 886 l 1111 860 l 1111 833 l 1111 807 l 1111 781 l 1111 756 l 1111 729 l 1111 703 l 1111 678 l 1111 651 l 1111 625 l 1111 599 l 1111 572 l 1111 547 l 1111 521 l 1111 494 l 1111 469 l 1111 443 l 1111 417 l 1111 390 l 1111 364 l 1111 339 l 1111 313 l 1111 286 l 1111 261 l 1111 235 l 1111 208 l 1111 182 l 1111 156 l 1111 131 l 1111 104 l 1111 78 l 1111 53 l 1111 26 l 1111 0 l 1111 -26 l 1111 -53 l 1111 -78 l 1111 -104 l 1111 -131 l 1085 -131 l 1058 -131 l 1033 -131 l 1007 -131 l 981 -131 l 956 -131 l 929 -131 l 903 -131 l 876 -131 l 850 -131 l 850 -104 l 850 -78 l 850 -53 l 850 -26 l 850 0 l 850 26 l 850 53 l 850 78 l 850 104 l 850 131 l 850 156 l 850 182 l 850 208 l 850 235 l 850 261 l 850 286 l 850 313 l 825 313 l 799 313 l 772 313 l 747 313 l 721 313 l 694 313 l 668 313 l 642 313 l 617 313 l 590 313 l 564 313 l 564 339 l 564 364 l 564 390 l 564 417 l 564 443 l 564 469 l 564 494 l 564 521 l 590 521 l 617 521 l 642 521 l 668 521 l 694 521 l 721 521 l 747 521 l 772 521 l 799 521 l 825 521 l 850 521 l 850 547 l 850 572 l 850 599 l 850 625 l 850 651 l 850 678 l 850 703 l 850 729 l 850 756 l 850 781 l 850 807 l 850 833 l 850 860 l 850 886 l 850 911 l 850 938 l 850 964 l 876 964 l 903 964 l 929 964 l 956 964 l 981 964 l 1007 964 l 1033 964 l 1058 964 l 1085 964 m 460 964 l 486 964 l 513 964 l 513 938 l 513 911 l 513 886 l 513 860 l 513 833 l 513 807 l 513 781 l 513 756 l 513 729 l 513 703 l 513 678 l 513 651 l 513 625 l 513 599 l 513 572 l 513 547 l 513 521 l 513 494 l 513 469 l 513 443 l 513 417 l 513 390 l 513 364 l 513 339 l 513 313 l 513 286 l 513 261 l 513 235 l 513 208 l 513 182 l 513 156 l 513 131 l 513 104 l 513 78 l 513 53 l 513 26 l 513 0 l 513 -26 l 513 -53 l 513 -78 l 513 -104 l 513 -131 l 486 -131 l 460 -131 l 433 -131 l 408 -131 l 382 -131 l 356 -131 l 331 -131 l 304 -131 l 278 -131 l 278 -104 l 278 -78 l 278 -53 l 278 -26 l 278 0 l 278 26 l 278 53 l 278 78 l 278 104 l 278 131 l 278 156 l 278 182 l 278 208 l 278 235 l 278 261 l 278 286 l 278 313 l 278 339 l 278 364 l 278 390 l 278 417 l 278 443 l 278 469 l 278 494 l 278 521 l 278 547 l 278 572 l 278 599 l 278 625 l 278 651 l 278 678 l 278 703 l 278 729 l 278 756 l 278 781 l 278 807 l 278 833 l 278 860 l 278 886 l 278 911 l 278 938 l 278 964 l 304 964 l 331 964 l 356 964 l 382 964 l 408 964 l 433 964 l 460 964 z "},"I":{"ha":1389,"x_min":278,"x_max":1111,"o":"m 278 754 l 278 807 l 278 833 l 278 860 l 278 886 l 278 911 l 278 938 l 278 964 l 304 964 l 331 964 l 356 964 l 382 964 l 408 964 l 433 964 l 460 964 l 486 964 l 513 964 l 539 964 l 564 964 l 590 964 l 617 964 l 642 964 l 668 964 l 694 964 l 721 964 l 747 964 l 772 964 l 799 964 l 825 964 l 850 964 l 876 964 l 903 964 l 929 964 l 956 964 l 981 964 l 1007 964 l 1033 964 l 1058 964 l 1085 964 l 1111 964 l 1111 938 l 1111 911 l 1111 886 l 1111 860 l 1111 833 l 1111 807 l 1111 754 l 1085 754 l 1058 754 l 1033 754 l 1007 754 l 981 754 l 956 754 l 929 754 l 903 754 l 876 754 l 850 754 l 825 754 l 825 729 l 825 703 l 825 678 l 825 651 l 825 625 l 825 599 l 825 572 l 825 547 l 825 521 l 825 494 l 825 469 l 825 443 l 825 417 l 825 390 l 825 364 l 825 339 l 825 313 l 825 286 l 825 261 l 825 235 l 825 208 l 825 182 l 825 156 l 825 131 l 825 104 l 825 78 l 850 78 l 876 78 l 903 78 l 929 78 l 956 78 l 981 78 l 1007 78 l 1033 78 l 1058 78 l 1085 78 l 1111 78 l 1111 53 l 1111 51 l 1111 26 l 1111 0 l 1111 -26 l 1111 -53 l 1111 -78 l 1111 -104 l 1111 -131 l 1085 -131 l 1058 -131 l 1033 -131 l 1007 -131 l 981 -131 l 956 -131 l 929 -131 l 903 -131 l 876 -131 l 850 -131 l 825 -131 l 799 -131 l 772 -131 l 747 -131 l 721 -131 l 694 -131 l 668 -131 l 642 -131 l 617 -131 l 590 -131 l 564 -131 l 539 -131 l 513 -131 l 486 -131 l 460 -131 l 433 -131 l 408 -131 l 382 -131 l 356 -131 l 331 -131 l 304 -131 l 278 -131 l 278 -104 l 278 -78 l 278 -53 l 278 -26 l 278 0 l 278 26 l 278 51 l 278 53 l 278 78 l 304 78 l 331 78 l 356 78 l 382 78 l 408 78 l 433 78 l 460 78 l 486 78 l 513 78 l 539 78 l 564 78 l 564 104 l 564 131 l 564 156 l 564 182 l 564 208 l 564 235 l 564 261 l 564 286 l 564 313 l 564 339 l 564 364 l 564 390 l 564 417 l 564 443 l 564 469 l 564 494 l 564 521 l 564 547 l 564 572 l 564 599 l 564 625 l 564 651 l 564 678 l 564 703 l 564 729 l 564 754 l 539 754 l 513 754 l 486 754 l 460 754 l 433 754 l 408 754 l 382 754 l 356 754 l 331 754 l 304 754 l 278 754 z "},"J":{"ha":1389,"x_min":278,"x_max":1111,"o":"m 1085 964 l 1111 964 l 1111 938 l 1111 911 l 1111 886 l 1111 860 l 1111 833 l 1111 807 l 1111 781 l 1111 756 l 1111 729 l 1111 703 l 1111 678 l 1111 651 l 1111 625 l 1111 599 l 1111 572 l 1111 547 l 1111 521 l 1111 494 l 1111 469 l 1111 443 l 1111 417 l 1111 390 l 1111 364 l 1111 339 l 1111 313 l 1111 286 l 1111 261 l 1111 235 l 1111 208 l 1111 182 l 1111 156 l 1111 131 l 1111 104 l 1111 78 l 1085 78 l 1085 53 l 1085 26 l 1058 26 l 1058 0 l 1033 0 l 1033 -26 l 1007 -26 l 1007 -53 l 981 -53 l 956 -53 l 956 -78 l 929 -78 l 903 -78 l 903 -104 l 876 -104 l 850 -104 l 825 -104 l 799 -104 l 799 -131 l 772 -131 l 747 -131 l 721 -131 l 694 -131 l 668 -131 l 642 -131 l 617 -131 l 590 -131 l 590 -104 l 564 -104 l 539 -104 l 513 -104 l 486 -104 l 486 -78 l 460 -78 l 433 -78 l 433 -53 l 408 -53 l 408 -26 l 382 -26 l 382 0 l 356 0 l 356 26 l 331 26 l 331 53 l 331 78 l 304 78 l 304 104 l 304 131 l 278 131 l 278 156 l 278 182 l 304 182 l 331 182 l 356 182 l 356 208 l 382 208 l 408 208 l 433 208 l 460 208 l 460 235 l 486 235 l 513 235 l 539 235 l 539 208 l 539 182 l 539 156 l 564 156 l 564 131 l 590 131 l 590 104 l 617 104 l 617 78 l 642 78 l 668 78 l 694 78 l 721 78 l 747 78 l 772 78 l 799 78 l 799 104 l 825 104 l 825 131 l 825 156 l 850 156 l 850 182 l 850 208 l 850 235 l 850 261 l 850 286 l 850 313 l 850 339 l 850 364 l 850 390 l 850 417 l 850 443 l 850 469 l 850 494 l 850 521 l 850 547 l 850 572 l 850 599 l 850 625 l 850 651 l 850 678 l 850 703 l 850 729 l 850 756 l 825 756 l 799 756 l 772 756 l 747 756 l 721 756 l 694 756 l 668 756 l 642 756 l 617 756 l 590 756 l 564 756 l 539 756 l 513 756 l 486 756 l 460 756 l 433 756 l 433 781 l 433 807 l 433 833 l 433 860 l 433 886 l 433 911 l 433 938 l 433 964 l 460 964 l 486 964 l 513 964 l 539 964 l 564 964 l 590 964 l 617 964 l 642 964 l 668 964 l 694 964 l 721 964 l 747 964 l 772 964 l 799 964 l 825 964 l 850 964 l 876 964 l 903 964 l 929 964 l 956 964 l 981 964 l 1007 964 l 1033 964 l 1058 964 l 1085 964 z "},"K":{"ha":1389,"x_min":278,"x_max":1111,"o":"m 460 964 l 486 964 l 513 964 l 513 938 l 513 911 l 513 886 l 513 860 l 513 833 l 513 807 l 513 781 l 513 756 l 513 729 l 513 703 l 513 678 l 513 651 l 513 625 l 513 599 l 513 572 l 513 547 l 513 521 l 513 494 l 513 469 l 513 443 l 513 417 l 513 390 l 513 364 l 513 339 l 513 313 l 513 286 l 513 261 l 513 235 l 513 208 l 513 182 l 513 156 l 513 131 l 513 104 l 513 78 l 513 53 l 513 26 l 513 0 l 513 -26 l 513 -53 l 513 -78 l 513 -104 l 513 -131 l 486 -131 l 460 -131 l 433 -131 l 408 -131 l 382 -131 l 356 -131 l 331 -131 l 304 -131 l 278 -131 l 278 -104 l 278 -78 l 278 -53 l 278 -26 l 278 0 l 278 26 l 278 53 l 278 78 l 278 104 l 278 131 l 278 156 l 278 182 l 278 208 l 278 235 l 278 261 l 278 286 l 278 313 l 278 339 l 278 364 l 278 390 l 278 417 l 278 443 l 278 469 l 278 494 l 278 521 l 278 547 l 278 572 l 278 599 l 278 625 l 278 651 l 278 678 l 278 703 l 278 729 l 278 756 l 278 781 l 278 807 l 278 833 l 278 860 l 278 886 l 278 911 l 278 938 l 278 964 l 304 964 l 331 964 l 356 964 l 382 964 l 408 964 l 433 964 l 460 964 m 850 443 l 850 417 l 850 390 l 876 390 l 876 364 l 876 339 l 903 339 l 903 313 l 903 286 l 929 286 l 929 261 l 929 235 l 956 235 l 956 208 l 956 182 l 981 182 l 981 156 l 981 131 l 1007 131 l 1007 104 l 1007 78 l 1033 78 l 1033 53 l 1033 26 l 1058 26 l 1058 0 l 1058 -26 l 1085 -26 l 1085 -53 l 1085 -78 l 1111 -78 l 1111 -104 l 1111 -131 l 1085 -131 l 1058 -131 l 1033 -131 l 1007 -131 l 981 -131 l 956 -131 l 929 -131 l 903 -131 l 876 -131 l 876 -104 l 876 -78 l 850 -78 l 850 -53 l 850 -26 l 825 -26 l 825 0 l 825 26 l 799 26 l 799 53 l 799 78 l 772 78 l 772 104 l 772 131 l 747 131 l 747 156 l 747 182 l 721 182 l 694 182 l 668 182 l 642 182 l 617 182 l 590 182 l 564 182 l 564 208 l 564 235 l 564 261 l 564 286 l 564 313 l 564 339 l 564 364 l 564 390 l 564 417 l 590 417 l 590 443 l 590 469 l 617 469 l 617 494 l 617 521 l 642 521 l 642 547 l 642 572 l 668 572 l 668 599 l 668 625 l 694 625 l 694 651 l 694 678 l 721 678 l 721 703 l 721 729 l 747 729 l 747 756 l 747 781 l 772 781 l 772 807 l 772 833 l 799 833 l 799 860 l 799 886 l 825 886 l 825 911 l 825 938 l 850 938 l 850 964 l 876 964 l 903 964 l 929 964 l 956 964 l 981 964 l 1007 964 l 1033 964 l 1058 964 l 1085 964 l 1111 964 l 1111 938 l 1085 938 l 1085 911 l 1085 886 l 1058 886 l 1058 860 l 1058 833 l 1033 833 l 1033 807 l 1033 781 l 1007 781 l 1007 756 l 1007 729 l 981 729 l 981 703 l 981 678 l 956 678 l 956 651 l 956 625 l 929 625 l 929 599 l 929 572 l 903 572 l 903 547 l 903 521 l 876 521 l 876 494 l 876 469 l 850 469 l 850 443 z "},"L":{"ha":1389,"x_min":278,"x_max":1111,"o":"m 1085 78 l 1111 78 l 1111 53 l 1111 26 l 1111 0 l 1111 -26 l 1111 -53 l 1111 -78 l 1111 -104 l 1111 -131 l 1085 -131 l 1058 -131 l 1033 -131 l 1007 -131 l 981 -131 l 956 -131 l 929 -131 l 903 -131 l 876 -131 l 850 -131 l 825 -131 l 799 -131 l 772 -131 l 747 -131 l 721 -131 l 694 -131 l 668 -131 l 642 -131 l 617 -131 l 590 -131 l 564 -131 l 539 -131 l 513 -131 l 486 -131 l 460 -131 l 433 -131 l 408 -131 l 382 -131 l 356 -131 l 331 -131 l 304 -131 l 278 -131 l 278 -104 l 278 -78 l 278 -53 l 278 -26 l 278 0 l 278 26 l 278 53 l 278 78 l 278 104 l 278 131 l 278 156 l 278 182 l 278 208 l 278 235 l 278 261 l 278 286 l 278 313 l 278 339 l 278 364 l 278 390 l 278 417 l 278 443 l 278 469 l 278 494 l 278 521 l 278 547 l 278 572 l 278 599 l 278 625 l 278 651 l 278 678 l 278 703 l 278 729 l 278 756 l 278 781 l 278 807 l 278 833 l 278 860 l 278 886 l 278 911 l 278 938 l 278 964 l 304 964 l 331 964 l 356 964 l 382 964 l 408 964 l 433 964 l 460 964 l 486 964 l 513 964 l 513 938 l 513 911 l 513 886 l 513 860 l 513 833 l 513 807 l 513 781 l 513 756 l 513 729 l 513 703 l 513 678 l 513 651 l 513 625 l 513 599 l 513 572 l 513 547 l 513 521 l 513 494 l 513 469 l 513 443 l 513 417 l 513 390 l 513 364 l 513 339 l 513 313 l 513 286 l 513 261 l 513 235 l 513 208 l 513 182 l 513 156 l 513 131 l 513 104 l 513 78 l 539 78 l 564 78 l 590 78 l 617 78 l 642 78 l 668 78 l 694 78 l 721 78 l 747 78 l 772 78 l 799 78 l 825 78 l 850 78 l 876 78 l 903 78 l 929 78 l 956 78 l 981 78 l 1007 78 l 1033 78 l 1058 78 l 1085 78 z "},"M":{"ha":1389,"x_min":278,"x_max":1111,"o":"m 460 964 l 486 964 l 513 964 l 513 938 l 513 911 l 513 886 l 513 860 l 513 833 l 513 807 l 513 781 l 513 756 l 513 729 l 513 703 l 513 678 l 513 651 l 513 625 l 513 599 l 513 572 l 513 547 l 513 521 l 513 494 l 513 469 l 513 443 l 513 417 l 513 390 l 513 364 l 513 339 l 513 313 l 513 286 l 513 261 l 513 235 l 513 208 l 513 182 l 513 156 l 513 131 l 513 104 l 513 78 l 513 53 l 513 26 l 513 0 l 513 -26 l 513 -53 l 513 -78 l 513 -104 l 513 -131 l 486 -131 l 460 -131 l 433 -131 l 408 -131 l 382 -131 l 356 -131 l 331 -131 l 304 -131 l 278 -131 l 278 -104 l 278 -78 l 278 -53 l 278 -26 l 278 0 l 278 26 l 278 53 l 278 78 l 278 104 l 278 131 l 278 156 l 278 182 l 278 208 l 278 235 l 278 261 l 278 286 l 278 313 l 278 339 l 278 364 l 278 390 l 278 417 l 278 443 l 278 469 l 278 494 l 278 521 l 278 547 l 278 572 l 278 599 l 278 625 l 278 651 l 278 678 l 278 703 l 278 729 l 278 756 l 278 781 l 278 807 l 278 833 l 278 860 l 278 886 l 278 911 l 278 938 l 278 964 l 304 964 l 331 964 l 356 964 l 382 964 l 408 964 l 433 964 l 460 964 m 1085 964 l 1111 964 l 1111 938 l 1111 911 l 1111 886 l 1111 860 l 1111 833 l 1111 807 l 1111 781 l 1111 756 l 1111 729 l 1111 703 l 1111 678 l 1111 651 l 1111 625 l 1111 599 l 1111 572 l 1111 547 l 1111 521 l 1111 494 l 1111 469 l 1111 443 l 1111 417 l 1111 390 l 1111 364 l 1111 339 l 1111 313 l 1111 286 l 1111 261 l 1111 235 l 1111 208 l 1111 182 l 1111 156 l 1111 131 l 1111 104 l 1111 78 l 1111 53 l 1111 26 l 1111 0 l 1111 -26 l 1111 -53 l 1111 -78 l 1111 -104 l 1111 -131 l 1085 -131 l 1058 -131 l 1033 -131 l 1007 -131 l 981 -131 l 956 -131 l 929 -131 l 903 -131 l 876 -131 l 876 -104 l 876 -78 l 876 -53 l 876 -26 l 876 0 l 876 26 l 876 53 l 876 78 l 876 104 l 876 131 l 876 156 l 876 182 l 876 208 l 876 235 l 876 261 l 876 286 l 876 313 l 876 339 l 850 339 l 850 313 l 850 286 l 850 261 l 825 261 l 825 235 l 825 208 l 825 182 l 799 182 l 799 156 l 799 131 l 799 104 l 772 104 l 772 78 l 772 53 l 772 26 l 747 26 l 721 26 l 694 26 l 668 26 l 642 26 l 617 26 l 617 53 l 617 78 l 617 104 l 590 104 l 590 131 l 590 156 l 590 182 l 564 182 l 564 208 l 564 235 l 564 261 l 564 286 l 564 313 l 564 339 l 564 364 l 564 390 l 564 417 l 564 443 l 564 469 l 564 494 l 564 521 l 564 547 l 564 572 l 564 599 l 564 625 l 564 651 l 564 678 l 564 703 l 564 729 l 590 729 l 590 703 l 590 678 l 590 651 l 617 651 l 617 625 l 617 599 l 617 572 l 642 572 l 642 547 l 642 521 l 642 494 l 668 494 l 668 469 l 668 443 l 668 417 l 694 417 l 721 417 l 721 443 l 721 469 l 721 494 l 747 494 l 747 521 l 747 547 l 747 572 l 772 572 l 772 599 l 772 625 l 772 651 l 799 651 l 799 678 l 799 703 l 799 729 l 825 729 l 825 756 l 825 781 l 825 807 l 850 807 l 850 833 l 850 860 l 850 886 l 876 886 l 876 911 l 876 938 l 876 964 l 903 964 l 929 964 l 956 964 l 981 964 l 1007 964 l 1033 964 l 1058 964 l 1085 964 z "},"N":{"ha":1389,"x_min":278,"x_max":1111,"o":"m 1085 964 l 1111 964 l 1111 938 l 1111 911 l 1111 886 l 1111 860 l 1111 833 l 1111 807 l 1111 781 l 1111 756 l 1111 729 l 1111 703 l 1111 678 l 1111 651 l 1111 625 l 1111 599 l 1111 572 l 1111 547 l 1111 521 l 1111 494 l 1111 469 l 1111 443 l 1111 417 l 1111 390 l 1111 364 l 1111 339 l 1111 313 l 1111 286 l 1111 261 l 1111 235 l 1111 208 l 1111 182 l 1111 156 l 1111 131 l 1111 104 l 1111 78 l 1111 53 l 1111 26 l 1111 0 l 1111 -26 l 1111 -53 l 1111 -78 l 1111 -104 l 1111 -131 l 1085 -131 l 1058 -131 l 1033 -131 l 1007 -131 l 981 -131 l 956 -131 l 929 -131 l 903 -131 l 876 -131 l 850 -131 l 825 -131 l 799 -131 l 799 -104 l 799 -78 l 799 -53 l 772 -53 l 772 -26 l 772 0 l 772 26 l 747 26 l 747 53 l 747 78 l 747 104 l 721 104 l 721 131 l 721 156 l 721 182 l 694 182 l 694 208 l 694 235 l 694 261 l 668 261 l 668 286 l 668 313 l 668 339 l 642 339 l 642 364 l 642 390 l 642 417 l 617 417 l 617 443 l 617 469 l 617 494 l 590 494 l 590 521 l 590 547 l 590 572 l 564 572 l 564 599 l 564 625 l 564 651 l 564 678 l 564 703 l 564 729 l 564 756 l 564 781 l 564 807 l 564 833 l 564 860 l 564 886 l 564 911 l 564 938 l 564 964 l 590 964 l 617 964 l 642 964 l 668 964 l 668 938 l 668 911 l 668 886 l 694 886 l 694 860 l 694 833 l 694 807 l 721 807 l 721 781 l 721 756 l 721 729 l 747 729 l 747 703 l 747 678 l 747 651 l 772 651 l 772 625 l 772 599 l 772 572 l 799 572 l 799 547 l 799 521 l 799 494 l 825 494 l 825 469 l 825 443 l 825 417 l 850 417 l 850 390 l 850 364 l 850 339 l 876 339 l 876 364 l 876 390 l 876 417 l 876 443 l 876 469 l 876 494 l 876 521 l 876 547 l 876 572 l 876 599 l 876 625 l 876 651 l 876 678 l 876 703 l 876 729 l 876 756 l 876 781 l 876 807 l 876 833 l 876 860 l 876 886 l 876 911 l 876 938 l 876 964 l 903 964 l 929 964 l 956 964 l 981 964 l 1007 964 l 1033 964 l 1058 964 l 1085 964 m 486 964 l 513 964 l 513 938 l 513 911 l 513 886 l 513 860 l 513 833 l 513 807 l 513 781 l 513 756 l 513 729 l 513 703 l 513 678 l 513 651 l 513 625 l 513 599 l 513 572 l 513 547 l 513 521 l 513 494 l 513 469 l 513 443 l 513 417 l 513 390 l 513 364 l 513 339 l 513 313 l 513 286 l 513 261 l 513 235 l 513 208 l 513 182 l 513 156 l 513 131 l 513 104 l 513 78 l 513 53 l 513 26 l 513 0 l 513 -26 l 513 -53 l 513 -78 l 513 -104 l 513 -131 l 486 -131 l 460 -131 l 433 -131 l 408 -131 l 382 -131 l 356 -131 l 331 -131 l 304 -131 l 278 -131 l 278 -104 l 278 -78 l 278 -53 l 278 -26 l 278 0 l 278 26 l 278 53 l 278 78 l 278 104 l 278 131 l 278 156 l 278 182 l 278 208 l 278 235 l 278 261 l 278 286 l 278 313 l 278 339 l 278 364 l 278 390 l 278 417 l 278 443 l 278 469 l 278 494 l 278 521 l 278 547 l 278 572 l 278 599 l 278 625 l 278 651 l 278 678 l 278 703 l 278 729 l 278 756 l 278 781 l 278 807 l 278 833 l 278 860 l 278 886 l 278 911 l 278 938 l 278 964 l 304 964 l 331 964 l 356 964 l 382 964 l 408 964 l 433 964 l 460 964 l 486 964 z "},"O":{"ha":1389,"x_min":278,"x_max":1111,"o":"m 1085 572 l 1111 572 l 1111 261 l 1085 261 l 1085 156 l 1058 156 l 1058 104 l 1033 104 l 1033 53 l 1007 53 l 1007 0 l 981 0 l 981 -26 l 956 -26 l 956 -53 l 929 -53 l 929 -78 l 876 -78 l 876 -104 l 772 -104 l 772 -131 l 617 -131 l 617 -104 l 513 -104 l 513 -78 l 460 -78 l 460 -53 l 433 -53 l 433 -26 l 408 -26 l 408 0 l 382 0 l 382 53 l 356 53 l 356 104 l 331 104 l 331 156 l 304 156 l 304 261 l 278 261 l 278 572 l 304 572 l 304 678 l 331 678 l 331 729 l 356 729 l 356 781 l 382 781 l 382 833 l 408 833 l 408 860 l 433 860 l 433 886 l 460 886 l 460 911 l 513 911 l 513 938 l 617 938 l 617 964 l 772 964 l 772 938 l 876 938 l 876 911 l 929 911 l 929 886 l 956 886 l 956 860 l 981 860 l 981 833 l 1007 833 l 1007 781 l 1033 781 l 1033 729 l 1058 729 l 1058 678 l 1085 678 l 1085 572 m 850 235 l 876 235 l 876 599 l 850 599 l 850 678 l 825 678 l 825 729 l 799 729 l 799 756 l 747 756 l 747 781 l 642 781 l 642 756 l 590 756 l 590 729 l 564 729 l 564 678 l 539 678 l 539 599 l 513 599 l 513 235 l 539 235 l 539 156 l 564 156 l 564 104 l 590 104 l 590 78 l 642 78 l 642 53 l 747 53 l 747 78 l 799 78 l 799 104 l 825 104 l 825 156 l 850 156 l 850 235 z "},"P":{"ha":1389,"x_min":278,"x_max":1111,"o":"m 1085 756 l 1111 756 l 1111 729 l 1111 703 l 1111 678 l 1111 651 l 1111 625 l 1111 599 l 1111 572 l 1111 547 l 1111 521 l 1111 494 l 1111 469 l 1085 469 l 1085 443 l 1085 417 l 1058 417 l 1058 390 l 1058 364 l 1033 364 l 1033 339 l 1007 339 l 981 339 l 981 313 l 956 313 l 929 313 l 929 286 l 903 286 l 876 286 l 850 286 l 850 261 l 825 261 l 799 261 l 772 261 l 747 261 l 721 261 l 694 261 l 668 261 l 642 261 l 617 261 l 590 261 l 564 261 l 564 286 l 564 313 l 564 339 l 564 364 l 564 390 l 564 417 l 564 443 l 590 443 l 617 443 l 642 443 l 668 443 l 694 443 l 721 443 l 747 443 l 747 469 l 772 469 l 799 469 l 799 494 l 825 494 l 825 521 l 850 521 l 850 547 l 850 572 l 850 599 l 850 625 l 850 651 l 850 678 l 850 703 l 825 703 l 825 729 l 799 729 l 799 756 l 772 756 l 747 756 l 747 781 l 721 781 l 694 781 l 668 781 l 642 781 l 617 781 l 590 781 l 564 781 l 564 807 l 564 833 l 564 860 l 564 886 l 564 911 l 564 938 l 564 964 l 590 964 l 617 964 l 642 964 l 668 964 l 694 964 l 721 964 l 747 964 l 772 964 l 799 964 l 825 964 l 850 964 l 850 938 l 876 938 l 903 938 l 929 938 l 929 911 l 956 911 l 981 911 l 981 886 l 1007 886 l 1033 886 l 1033 860 l 1058 860 l 1058 833 l 1058 807 l 1085 807 l 1085 781 l 1085 756 m 460 964 l 486 964 l 513 964 l 513 938 l 513 911 l 513 886 l 513 860 l 513 833 l 513 807 l 513 781 l 513 756 l 513 729 l 513 703 l 513 678 l 513 651 l 513 625 l 513 599 l 513 572 l 513 547 l 513 521 l 513 494 l 513 469 l 513 443 l 513 417 l 513 390 l 513 364 l 513 339 l 513 313 l 513 286 l 513 261 l 513 235 l 513 208 l 513 182 l 513 156 l 513 131 l 513 104 l 513 78 l 513 53 l 513 26 l 513 0 l 513 -26 l 513 -53 l 513 -78 l 513 -104 l 513 -131 l 486 -131 l 460 -131 l 433 -131 l 408 -131 l 382 -131 l 356 -131 l 331 -131 l 304 -131 l 278 -131 l 278 -104 l 278 -78 l 278 -53 l 278 -26 l 278 0 l 278 26 l 278 53 l 278 78 l 278 104 l 278 131 l 278 156 l 278 182 l 278 208 l 278 235 l 278 261 l 278 286 l 278 313 l 278 339 l 278 364 l 278 390 l 278 417 l 278 443 l 278 469 l 278 494 l 278 521 l 278 547 l 278 572 l 278 599 l 278 625 l 278 651 l 278 678 l 278 703 l 278 729 l 278 756 l 278 781 l 278 807 l 278 833 l 278 860 l 278 886 l 278 911 l 278 938 l 278 964 l 304 964 l 331 964 l 356 964 l 382 964 l 408 964 l 433 964 l 460 964 z "},"Q":{"ha":1389,"x_min":278,"x_max":1111,"o":"m 1085 572 l 1111 572 l 1111 261 l 1085 261 l 1085 156 l 1058 156 l 1058 104 l 1033 104 l 1033 26 l 1058 26 l 1058 -26 l 1085 -26 l 1085 -78 l 1111 -78 l 1111 -131 l 956 -131 l 956 -78 l 876 -78 l 876 -104 l 772 -104 l 772 -131 l 617 -131 l 617 -104 l 513 -104 l 513 -78 l 460 -78 l 460 -53 l 433 -53 l 433 -26 l 408 -26 l 408 0 l 382 0 l 382 53 l 356 53 l 356 104 l 331 104 l 331 156 l 304 156 l 304 261 l 278 261 l 278 572 l 304 572 l 304 678 l 331 678 l 331 729 l 356 729 l 356 781 l 382 781 l 382 833 l 408 833 l 408 860 l 433 860 l 433 886 l 460 886 l 460 911 l 513 911 l 513 938 l 617 938 l 617 964 l 772 964 l 772 938 l 876 938 l 876 911 l 929 911 l 929 886 l 956 886 l 956 860 l 981 860 l 981 833 l 1007 833 l 1007 781 l 1033 781 l 1033 729 l 1058 729 l 1058 678 l 1085 678 l 1085 572 m 850 235 l 876 235 l 876 599 l 850 599 l 850 678 l 825 678 l 825 729 l 799 729 l 799 756 l 747 756 l 747 781 l 642 781 l 642 756 l 590 756 l 590 729 l 564 729 l 564 678 l 539 678 l 539 599 l 513 599 l 513 235 l 539 235 l 539 156 l 564 156 l 564 104 l 590 104 l 590 78 l 642 78 l 642 53 l 747 53 l 747 78 l 772 78 l 772 131 l 747 131 l 747 182 l 721 182 l 721 235 l 694 235 l 694 286 l 668 286 l 668 339 l 825 339 l 825 286 l 850 286 l 850 235 z "},"R":{"ha":1389,"x_min":278,"x_max":1111,"o":"m 1085 -78 l 1111 -78 l 1111 -104 l 1111 -131 l 1085 -131 l 1058 -131 l 1033 -131 l 1007 -131 l 981 -131 l 956 -131 l 929 -131 l 903 -131 l 876 -131 l 850 -131 l 850 -104 l 850 -78 l 825 -78 l 825 -53 l 825 -26 l 799 -26 l 799 0 l 799 26 l 772 26 l 772 53 l 772 78 l 747 78 l 747 104 l 747 131 l 721 131 l 721 156 l 721 182 l 694 182 l 694 208 l 694 235 l 668 235 l 668 261 l 642 261 l 617 261 l 590 261 l 564 261 l 564 286 l 564 313 l 564 339 l 564 364 l 564 390 l 564 417 l 564 443 l 564 469 l 590 469 l 617 469 l 642 469 l 668 469 l 694 469 l 721 469 l 721 494 l 747 494 l 772 494 l 799 494 l 799 521 l 799 547 l 825 547 l 825 572 l 825 599 l 825 625 l 825 651 l 825 678 l 825 703 l 799 703 l 799 729 l 799 756 l 772 756 l 747 756 l 721 756 l 721 781 l 694 781 l 668 781 l 642 781 l 617 781 l 590 781 l 564 781 l 564 807 l 564 833 l 564 860 l 564 886 l 564 911 l 564 938 l 564 964 l 590 964 l 617 964 l 642 964 l 668 964 l 694 964 l 721 964 l 747 964 l 772 964 l 799 964 l 825 964 l 825 938 l 850 938 l 876 938 l 903 938 l 903 911 l 929 911 l 956 911 l 956 886 l 981 886 l 981 860 l 1007 860 l 1033 860 l 1033 833 l 1033 807 l 1058 807 l 1058 781 l 1058 756 l 1085 756 l 1085 729 l 1085 703 l 1085 678 l 1085 651 l 1085 625 l 1085 599 l 1085 572 l 1085 547 l 1085 521 l 1085 494 l 1058 494 l 1058 469 l 1058 443 l 1033 443 l 1033 417 l 1033 390 l 1007 390 l 981 390 l 981 364 l 956 364 l 956 339 l 929 339 l 903 339 l 903 313 l 903 286 l 929 286 l 929 261 l 929 235 l 956 235 l 956 208 l 956 182 l 981 182 l 981 156 l 981 131 l 1007 131 l 1007 104 l 1007 78 l 1033 78 l 1033 53 l 1033 26 l 1058 26 l 1058 0 l 1058 -26 l 1085 -26 l 1085 -53 l 1085 -78 m 460 964 l 486 964 l 513 964 l 513 938 l 513 911 l 513 886 l 513 860 l 513 833 l 513 807 l 513 781 l 513 756 l 513 729 l 513 703 l 513 678 l 513 651 l 513 625 l 513 599 l 513 572 l 513 547 l 513 521 l 513 494 l 513 469 l 513 443 l 513 417 l 513 390 l 513 364 l 513 339 l 513 313 l 513 286 l 513 261 l 513 235 l 513 208 l 513 182 l 513 156 l 513 131 l 513 104 l 513 78 l 513 53 l 513 26 l 513 0 l 513 -26 l 513 -53 l 513 -78 l 513 -104 l 513 -131 l 486 -131 l 460 -131 l 433 -131 l 408 -131 l 382 -131 l 356 -131 l 331 -131 l 304 -131 l 278 -131 l 278 -104 l 278 -78 l 278 -53 l 278 -26 l 278 0 l 278 26 l 278 53 l 278 78 l 278 104 l 278 131 l 278 156 l 278 182 l 278 208 l 278 235 l 278 261 l 278 286 l 278 313 l 278 339 l 278 364 l 278 390 l 278 417 l 278 443 l 278 469 l 278 494 l 278 521 l 278 547 l 278 572 l 278 599 l 278 625 l 278 651 l 278 678 l 278 703 l 278 729 l 278 756 l 278 781 l 278 807 l 278 833 l 278 860 l 278 886 l 278 911 l 278 938 l 278 964 l 304 964 l 331 964 l 356 964 l 382 964 l 408 964 l 433 964 l 460 964 z "},"S":{"ha":1389,"x_min":278,"x_max":1111,"o":"m 981 678 l 956 678 l 956 703 l 929 703 l 929 729 l 903 729 l 876 729 l 876 756 l 850 756 l 825 756 l 799 756 l 799 781 l 772 781 l 747 781 l 721 781 l 694 781 l 668 781 l 642 781 l 642 756 l 617 756 l 590 756 l 590 729 l 590 703 l 564 703 l 564 678 l 564 651 l 564 625 l 564 599 l 590 599 l 590 572 l 617 572 l 617 547 l 642 547 l 668 547 l 668 521 l 694 521 l 721 521 l 747 521 l 772 521 l 799 521 l 825 521 l 825 494 l 850 494 l 876 494 l 903 494 l 929 494 l 929 469 l 956 469 l 981 469 l 981 443 l 1007 443 l 1007 417 l 1033 417 l 1033 390 l 1058 390 l 1058 364 l 1085 364 l 1085 339 l 1085 313 l 1111 313 l 1111 286 l 1111 261 l 1111 235 l 1111 208 l 1111 182 l 1111 156 l 1111 131 l 1111 104 l 1085 104 l 1085 78 l 1085 53 l 1058 53 l 1058 26 l 1058 0 l 1033 0 l 1033 -26 l 1007 -26 l 1007 -53 l 981 -53 l 981 -78 l 956 -78 l 929 -78 l 929 -104 l 903 -104 l 876 -104 l 850 -104 l 850 -131 l 825 -131 l 799 -131 l 772 -131 l 747 -131 l 721 -131 l 694 -131 l 668 -131 l 642 -131 l 617 -131 l 590 -131 l 564 -131 l 539 -131 l 513 -131 l 513 -104 l 486 -104 l 460 -104 l 433 -104 l 433 -78 l 408 -78 l 382 -78 l 382 -53 l 356 -53 l 356 -26 l 331 -26 l 331 0 l 304 0 l 304 26 l 278 26 l 278 53 l 304 53 l 304 78 l 331 78 l 331 104 l 356 104 l 356 131 l 382 131 l 382 156 l 408 156 l 408 182 l 433 182 l 433 156 l 460 156 l 460 131 l 486 131 l 486 104 l 513 104 l 539 104 l 539 78 l 564 78 l 590 78 l 590 53 l 617 53 l 642 53 l 668 53 l 694 53 l 721 53 l 747 53 l 772 53 l 799 53 l 799 78 l 825 78 l 825 104 l 850 104 l 850 131 l 876 131 l 876 156 l 876 182 l 876 208 l 876 235 l 850 235 l 850 261 l 825 261 l 825 286 l 799 286 l 772 286 l 772 313 l 747 313 l 721 313 l 694 313 l 694 339 l 668 339 l 642 339 l 617 339 l 590 339 l 564 339 l 539 339 l 539 364 l 513 364 l 486 364 l 460 364 l 460 390 l 433 390 l 433 417 l 408 417 l 408 443 l 382 443 l 382 469 l 356 469 l 356 494 l 356 521 l 331 521 l 331 547 l 331 572 l 331 599 l 331 625 l 331 651 l 331 678 l 331 703 l 331 729 l 331 756 l 356 756 l 356 781 l 356 807 l 382 807 l 382 833 l 408 833 l 408 860 l 433 860 l 433 886 l 460 886 l 460 911 l 486 911 l 513 911 l 513 938 l 539 938 l 564 938 l 590 938 l 617 938 l 617 964 l 642 964 l 668 964 l 694 964 l 721 964 l 747 964 l 772 964 l 799 964 l 825 964 l 850 964 l 850 938 l 876 938 l 903 938 l 929 938 l 929 911 l 956 911 l 981 911 l 1007 911 l 1007 886 l 1033 886 l 1033 860 l 1058 860 l 1085 860 l 1085 833 l 1111 833 l 1111 807 l 1085 807 l 1085 781 l 1058 781 l 1058 756 l 1033 756 l 1033 729 l 1007 729 l 1007 703 l 981 703 l 981 678 z "},"T":{"ha":1389,"x_min":278,"x_max":1111,"o":"m 1085 964 l 1111 964 l 1111 938 l 1111 911 l 1111 886 l 1111 860 l 1111 833 l 1111 807 l 1111 781 l 1111 756 l 1085 756 l 1058 756 l 1033 756 l 1007 756 l 981 756 l 956 756 l 929 756 l 903 756 l 876 756 l 850 756 l 825 756 l 799 756 l 799 729 l 799 703 l 799 678 l 799 651 l 799 625 l 799 599 l 799 572 l 799 547 l 799 521 l 799 494 l 799 469 l 799 443 l 799 417 l 799 390 l 799 364 l 799 339 l 799 313 l 799 286 l 799 261 l 799 235 l 799 208 l 799 182 l 799 156 l 799 131 l 799 104 l 799 78 l 799 53 l 799 26 l 799 0 l 799 -26 l 799 -53 l 799 -78 l 799 -104 l 799 -131 l 772 -131 l 747 -131 l 721 -131 l 694 -131 l 668 -131 l 642 -131 l 617 -131 l 590 -131 l 590 -104 l 590 -78 l 590 -53 l 590 -26 l 590 0 l 590 26 l 590 53 l 590 78 l 590 104 l 590 131 l 590 156 l 590 182 l 590 208 l 590 235 l 590 261 l 590 286 l 590 313 l 590 339 l 590 364 l 590 390 l 590 417 l 590 443 l 590 469 l 590 494 l 590 521 l 590 547 l 590 572 l 590 599 l 590 625 l 590 651 l 590 678 l 590 703 l 590 729 l 590 756 l 564 756 l 539 756 l 513 756 l 486 756 l 460 756 l 433 756 l 408 756 l 382 756 l 356 756 l 331 756 l 304 756 l 278 756 l 278 781 l 278 807 l 278 833 l 278 860 l 278 886 l 278 911 l 278 938 l 278 964 l 304 964 l 331 964 l 356 964 l 382 964 l 408 964 l 433 964 l 460 964 l 486 964 l 513 964 l 539 964 l 564 964 l 590 964 l 617 964 l 642 964 l 668 964 l 694 964 l 721 964 l 747 964 l 772 964 l 799 964 l 825 964 l 850 964 l 876 964 l 903 964 l 929 964 l 956 964 l 981 964 l 1007 964 l 1033 964 l 1058 964 l 1085 964 z "},"U":{"ha":1389,"x_min":278,"x_max":1111,"o":"m 1085 964 l 1111 964 l 1111 938 l 1111 911 l 1111 886 l 1111 860 l 1111 833 l 1111 807 l 1111 781 l 1111 756 l 1111 729 l 1111 703 l 1111 678 l 1111 651 l 1111 625 l 1111 599 l 1111 572 l 1111 547 l 1111 521 l 1111 494 l 1111 469 l 1111 443 l 1111 417 l 1111 390 l 1111 364 l 1111 339 l 1111 313 l 1111 286 l 1111 261 l 1111 235 l 1111 208 l 1111 182 l 1111 156 l 1111 131 l 1111 104 l 1085 104 l 1085 78 l 1085 53 l 1085 26 l 1058 26 l 1058 0 l 1058 -26 l 1033 -26 l 1033 -53 l 1007 -53 l 981 -53 l 981 -78 l 956 -78 l 956 -104 l 929 -104 l 903 -104 l 876 -104 l 876 -131 l 850 -131 l 825 -131 l 799 -131 l 772 -131 l 747 -131 l 721 -131 l 694 -131 l 668 -131 l 642 -131 l 617 -131 l 590 -131 l 564 -131 l 539 -131 l 513 -131 l 513 -104 l 486 -104 l 460 -104 l 433 -104 l 433 -78 l 408 -78 l 408 -53 l 382 -53 l 356 -53 l 356 -26 l 331 -26 l 331 0 l 331 26 l 304 26 l 304 53 l 304 78 l 304 104 l 278 104 l 278 131 l 278 156 l 278 182 l 278 208 l 278 235 l 278 261 l 278 286 l 278 313 l 278 339 l 278 364 l 278 390 l 278 417 l 278 443 l 278 469 l 278 494 l 278 521 l 278 547 l 278 572 l 278 599 l 278 625 l 278 651 l 278 678 l 278 703 l 278 729 l 278 756 l 278 781 l 278 807 l 278 833 l 278 860 l 278 886 l 278 911 l 278 938 l 278 964 l 304 964 l 331 964 l 356 964 l 382 964 l 408 964 l 433 964 l 460 964 l 486 964 l 513 964 l 539 964 l 539 938 l 539 911 l 539 886 l 539 860 l 539 833 l 539 807 l 539 781 l 539 756 l 539 729 l 539 703 l 539 678 l 539 651 l 539 625 l 539 599 l 539 572 l 539 547 l 539 521 l 539 494 l 539 469 l 539 443 l 539 417 l 539 390 l 539 364 l 539 339 l 539 313 l 539 286 l 539 261 l 539 235 l 539 208 l 539 182 l 539 156 l 539 131 l 564 131 l 564 104 l 564 78 l 590 78 l 617 78 l 617 53 l 642 53 l 668 53 l 694 53 l 721 53 l 747 53 l 772 53 l 772 78 l 799 78 l 825 78 l 825 104 l 825 131 l 850 131 l 850 156 l 850 182 l 850 208 l 850 235 l 850 261 l 850 286 l 850 313 l 850 339 l 850 364 l 850 390 l 850 417 l 850 443 l 850 469 l 850 494 l 850 521 l 850 547 l 850 572 l 850 599 l 850 625 l 850 651 l 850 678 l 850 703 l 850 729 l 850 756 l 850 781 l 850 807 l 850 833 l 850 860 l 850 886 l 850 911 l 850 938 l 850 964 l 876 964 l 903 964 l 929 964 l 956 964 l 981 964 l 1007 964 l 1033 964 l 1058 964 l 1085 964 z "},"V":{"ha":1389,"x_min":278,"x_max":1111,"o":"m 1085 964 l 1111 964 l 1111 938 l 1111 911 l 1111 886 l 1085 886 l 1085 860 l 1085 833 l 1085 807 l 1085 781 l 1085 756 l 1058 756 l 1058 729 l 1058 703 l 1058 678 l 1058 651 l 1058 625 l 1033 625 l 1033 599 l 1033 572 l 1033 547 l 1033 521 l 1033 494 l 1007 494 l 1007 469 l 1007 443 l 1007 417 l 1007 390 l 1007 364 l 981 364 l 981 339 l 981 313 l 981 286 l 981 261 l 981 235 l 956 235 l 956 208 l 956 182 l 956 156 l 956 131 l 956 104 l 929 104 l 929 78 l 929 53 l 929 26 l 929 0 l 929 -26 l 903 -26 l 903 -53 l 903 -78 l 903 -104 l 903 -131 l 876 -131 l 850 -131 l 825 -131 l 799 -131 l 772 -131 l 747 -131 l 721 -131 l 694 -131 l 668 -131 l 642 -131 l 617 -131 l 590 -131 l 564 -131 l 539 -131 l 513 -131 l 486 -131 l 486 -104 l 486 -78 l 486 -53 l 486 -26 l 460 -26 l 460 0 l 460 26 l 460 53 l 460 78 l 460 104 l 433 104 l 433 131 l 433 156 l 433 182 l 433 208 l 433 235 l 408 235 l 408 261 l 408 286 l 408 313 l 408 339 l 408 364 l 382 364 l 382 390 l 382 417 l 382 443 l 382 469 l 382 494 l 356 494 l 356 521 l 356 547 l 356 572 l 356 599 l 356 625 l 331 625 l 331 651 l 331 678 l 331 703 l 331 729 l 331 756 l 304 756 l 304 781 l 304 807 l 304 833 l 304 860 l 304 886 l 278 886 l 278 911 l 278 938 l 278 964 l 304 964 l 331 964 l 356 964 l 382 964 l 408 964 l 433 964 l 460 964 l 486 964 l 513 964 l 539 964 l 539 938 l 539 911 l 539 886 l 539 860 l 539 833 l 564 833 l 564 807 l 564 781 l 564 756 l 564 729 l 564 703 l 590 703 l 590 678 l 590 651 l 590 625 l 590 599 l 590 572 l 617 572 l 617 547 l 617 521 l 617 494 l 617 469 l 617 443 l 642 443 l 642 417 l 642 390 l 642 364 l 642 339 l 642 313 l 668 313 l 668 286 l 668 261 l 668 235 l 668 208 l 668 182 l 668 156 l 694 156 l 721 156 l 721 182 l 721 208 l 721 235 l 721 261 l 721 286 l 721 313 l 747 313 l 747 339 l 747 364 l 747 390 l 747 417 l 747 443 l 772 443 l 772 469 l 772 494 l 772 521 l 772 547 l 772 572 l 799 572 l 799 599 l 799 625 l 799 651 l 799 678 l 799 703 l 825 703 l 825 729 l 825 756 l 825 781 l 825 807 l 825 833 l 850 833 l 850 860 l 850 886 l 850 911 l 850 938 l 850 964 l 876 964 l 903 964 l 929 964 l 956 964 l 981 964 l 1007 964 l 1033 964 l 1058 964 l 1085 964 z "},"W":{"ha":1389,"x_min":278,"x_max":1111,"o":"m 876 -78 l 876 -53 l 850 -53 l 850 -26 l 850 0 l 850 26 l 825 26 l 825 53 l 825 78 l 825 104 l 799 104 l 799 131 l 799 156 l 799 182 l 772 182 l 772 208 l 772 235 l 772 261 l 747 261 l 747 286 l 747 313 l 747 339 l 721 339 l 721 364 l 721 390 l 721 417 l 694 417 l 668 417 l 668 390 l 668 364 l 668 339 l 642 339 l 642 313 l 642 286 l 642 261 l 617 261 l 617 235 l 617 208 l 617 182 l 590 182 l 590 156 l 590 131 l 590 104 l 564 104 l 564 78 l 564 53 l 564 26 l 539 26 l 539 0 l 539 -26 l 539 -53 l 513 -53 l 513 -78 l 513 -104 l 513 -131 l 486 -131 l 460 -131 l 433 -131 l 408 -131 l 382 -131 l 356 -131 l 331 -131 l 304 -131 l 278 -131 l 278 -104 l 278 -78 l 278 -53 l 278 -26 l 278 0 l 278 26 l 278 53 l 278 78 l 278 104 l 278 131 l 278 156 l 278 182 l 278 208 l 278 235 l 278 261 l 278 286 l 278 313 l 278 339 l 278 364 l 278 390 l 278 417 l 278 443 l 278 469 l 278 494 l 278 521 l 278 547 l 278 572 l 278 599 l 278 625 l 278 651 l 278 678 l 278 703 l 278 729 l 278 756 l 278 781 l 278 807 l 278 833 l 278 860 l 278 886 l 278 911 l 278 938 l 278 964 l 304 964 l 331 964 l 356 964 l 382 964 l 408 964 l 433 964 l 460 964 l 486 964 l 513 964 l 513 938 l 513 911 l 513 886 l 513 860 l 513 833 l 513 807 l 513 781 l 513 756 l 513 729 l 513 703 l 513 678 l 513 651 l 513 625 l 513 599 l 513 572 l 513 547 l 513 521 l 513 494 l 539 494 l 539 521 l 539 547 l 539 572 l 564 572 l 564 599 l 564 625 l 564 651 l 590 651 l 590 678 l 590 703 l 590 729 l 617 729 l 617 756 l 617 781 l 617 807 l 642 807 l 747 807 l 772 807 l 772 781 l 772 756 l 772 729 l 799 729 l 799 703 l 799 678 l 799 651 l 825 651 l 825 625 l 825 599 l 825 572 l 850 572 l 850 547 l 850 521 l 850 494 l 876 494 l 876 521 l 876 547 l 876 572 l 876 599 l 876 625 l 876 651 l 876 678 l 876 703 l 876 729 l 876 756 l 876 781 l 876 807 l 876 833 l 876 860 l 876 886 l 876 911 l 876 938 l 876 964 l 903 964 l 929 964 l 956 964 l 981 964 l 1007 964 l 1033 964 l 1058 964 l 1085 964 l 1111 964 l 1111 938 l 1111 911 l 1111 886 l 1111 860 l 1111 833 l 1111 807 l 1111 781 l 1111 756 l 1111 729 l 1111 703 l 1111 678 l 1111 651 l 1111 625 l 1111 599 l 1111 572 l 1111 547 l 1111 521 l 1111 494 l 1111 469 l 1111 443 l 1111 417 l 1111 390 l 1111 364 l 1111 339 l 1111 313 l 1111 286 l 1111 261 l 1111 235 l 1111 208 l 1111 182 l 1111 156 l 1111 131 l 1111 104 l 1111 78 l 1111 53 l 1111 26 l 1111 0 l 1111 -26 l 1111 -53 l 1111 -78 l 1111 -104 l 1111 -131 l 1085 -131 l 1058 -131 l 1033 -131 l 1007 -131 l 981 -131 l 956 -131 l 929 -131 l 903 -131 l 876 -131 l 876 -104 l 876 -78 z "},"X":{"ha":1389,"x_min":278,"x_max":1111,"o":"m 1085 964 l 1111 964 l 1111 938 l 1111 911 l 1085 911 l 1085 886 l 1085 860 l 1058 860 l 1058 833 l 1058 807 l 1033 807 l 1033 781 l 1033 756 l 1007 756 l 1007 729 l 1007 703 l 981 703 l 981 678 l 981 651 l 956 651 l 956 625 l 956 599 l 929 599 l 929 572 l 929 547 l 903 547 l 903 521 l 903 494 l 876 494 l 876 469 l 876 443 l 850 443 l 850 417 l 850 390 l 850 364 l 876 364 l 876 339 l 876 313 l 903 313 l 903 286 l 903 261 l 929 261 l 929 235 l 929 208 l 956 208 l 956 182 l 956 156 l 981 156 l 981 131 l 981 104 l 1007 104 l 1007 78 l 1007 53 l 1033 53 l 1033 26 l 1033 0 l 1058 0 l 1058 -26 l 1058 -53 l 1085 -53 l 1085 -78 l 1085 -104 l 1111 -104 l 1111 -131 l 1085 -131 l 1058 -131 l 1033 -131 l 1007 -131 l 981 -131 l 956 -131 l 929 -131 l 903 -131 l 876 -131 l 850 -131 l 850 -104 l 850 -78 l 825 -78 l 825 -53 l 825 -26 l 799 -26 l 799 0 l 799 26 l 772 26 l 772 53 l 772 78 l 747 78 l 747 104 l 747 131 l 721 131 l 721 156 l 721 182 l 694 182 l 694 208 l 694 235 l 668 235 l 668 208 l 668 182 l 642 182 l 642 156 l 642 131 l 617 131 l 617 104 l 617 78 l 590 78 l 590 53 l 590 26 l 564 26 l 564 0 l 564 -26 l 539 -26 l 539 -53 l 539 -78 l 513 -78 l 513 -104 l 513 -131 l 486 -131 l 460 -131 l 433 -131 l 408 -131 l 382 -131 l 356 -131 l 331 -131 l 304 -131 l 278 -131 l 278 -104 l 304 -104 l 304 -78 l 304 -53 l 331 -53 l 331 -26 l 331 0 l 356 0 l 356 26 l 356 53 l 382 53 l 382 78 l 382 104 l 408 104 l 408 131 l 408 156 l 433 156 l 433 182 l 433 208 l 460 208 l 460 235 l 460 261 l 486 261 l 486 286 l 486 313 l 513 313 l 513 339 l 513 364 l 539 364 l 539 390 l 539 417 l 539 443 l 513 443 l 513 469 l 513 494 l 486 494 l 486 521 l 486 547 l 460 547 l 460 572 l 460 599 l 433 599 l 433 625 l 433 651 l 408 651 l 408 678 l 408 703 l 382 703 l 382 729 l 382 756 l 356 756 l 356 781 l 356 807 l 331 807 l 331 833 l 331 860 l 304 860 l 304 886 l 304 911 l 278 911 l 278 938 l 278 964 l 304 964 l 331 964 l 356 964 l 382 964 l 408 964 l 433 964 l 460 964 l 486 964 l 513 964 l 513 938 l 513 911 l 539 911 l 539 886 l 539 860 l 564 860 l 564 833 l 564 807 l 590 807 l 590 781 l 590 756 l 617 756 l 617 729 l 617 703 l 642 703 l 642 678 l 642 651 l 668 651 l 668 625 l 668 599 l 694 599 l 721 599 l 721 625 l 721 651 l 747 651 l 747 678 l 747 703 l 772 703 l 772 729 l 772 756 l 799 756 l 799 781 l 799 807 l 825 807 l 825 833 l 825 860 l 850 860 l 850 886 l 850 911 l 876 911 l 876 938 l 876 964 l 903 964 l 929 964 l 956 964 l 981 964 l 1007 964 l 1033 964 l 1058 964 l 1085 964 z "},"Y":{"ha":1389,"x_min":278,"x_max":1111,"o":"m 1085 964 l 1111 964 l 1111 938 l 1111 911 l 1085 911 l 1085 886 l 1085 860 l 1058 860 l 1058 833 l 1058 807 l 1033 807 l 1033 781 l 1033 756 l 1007 756 l 1007 729 l 1007 703 l 981 703 l 981 678 l 981 651 l 956 651 l 956 625 l 956 599 l 929 599 l 929 572 l 929 547 l 903 547 l 903 521 l 903 494 l 876 494 l 876 469 l 876 443 l 850 443 l 850 417 l 850 390 l 825 390 l 825 364 l 825 339 l 799 339 l 799 313 l 799 286 l 799 261 l 799 235 l 799 208 l 799 182 l 799 156 l 799 131 l 799 104 l 799 78 l 799 53 l 799 26 l 799 0 l 799 -26 l 799 -53 l 799 -78 l 799 -104 l 799 -131 l 772 -131 l 747 -131 l 721 -131 l 694 -131 l 668 -131 l 642 -131 l 617 -131 l 590 -131 l 590 -104 l 590 -78 l 590 -53 l 590 -26 l 590 0 l 590 26 l 590 53 l 590 78 l 590 104 l 590 131 l 590 156 l 590 182 l 590 208 l 590 235 l 590 261 l 590 286 l 590 313 l 590 339 l 564 339 l 564 364 l 564 390 l 539 390 l 539 417 l 539 443 l 513 443 l 513 469 l 513 494 l 486 494 l 486 521 l 486 547 l 460 547 l 460 572 l 460 599 l 433 599 l 433 625 l 433 651 l 408 651 l 408 678 l 408 703 l 382 703 l 382 729 l 382 756 l 356 756 l 356 781 l 356 807 l 331 807 l 331 833 l 331 860 l 304 860 l 304 886 l 304 911 l 278 911 l 278 938 l 278 964 l 304 964 l 331 964 l 356 964 l 382 964 l 408 964 l 433 964 l 460 964 l 486 964 l 513 964 l 513 938 l 513 911 l 539 911 l 539 886 l 539 860 l 564 860 l 564 833 l 564 807 l 590 807 l 590 781 l 590 756 l 617 756 l 617 729 l 617 703 l 642 703 l 642 678 l 642 651 l 668 651 l 668 625 l 668 599 l 694 599 l 721 599 l 721 625 l 721 651 l 747 651 l 747 678 l 747 703 l 772 703 l 772 729 l 772 756 l 799 756 l 799 781 l 799 807 l 825 807 l 825 833 l 825 860 l 850 860 l 850 886 l 850 911 l 876 911 l 876 938 l 876 964 l 903 964 l 929 964 l 956 964 l 981 964 l 1007 964 l 1033 964 l 1058 964 l 1085 964 z "},"Z":{"ha":1389,"x_min":278,"x_max":1111,"o":"m 1085 964 l 1111 964 l 1111 938 l 1111 911 l 1111 886 l 1111 860 l 1111 833 l 1111 807 l 1111 781 l 1111 756 l 1085 756 l 1085 729 l 1058 729 l 1058 703 l 1033 703 l 1033 678 l 1033 651 l 1007 651 l 1007 625 l 981 625 l 981 599 l 956 599 l 956 572 l 956 547 l 929 547 l 929 521 l 903 521 l 903 494 l 876 494 l 876 469 l 876 443 l 850 443 l 850 417 l 825 417 l 825 390 l 799 390 l 799 364 l 799 339 l 772 339 l 772 313 l 747 313 l 747 286 l 721 286 l 721 261 l 721 235 l 694 235 l 694 208 l 668 208 l 668 182 l 642 182 l 642 156 l 642 131 l 617 131 l 617 104 l 590 104 l 590 78 l 617 78 l 642 78 l 668 78 l 694 78 l 721 78 l 747 78 l 772 78 l 799 78 l 825 78 l 850 78 l 876 78 l 903 78 l 929 78 l 956 78 l 981 78 l 1007 78 l 1033 78 l 1058 78 l 1085 78 l 1111 78 l 1111 53 l 1111 26 l 1111 0 l 1111 -26 l 1111 -53 l 1111 -78 l 1111 -104 l 1111 -131 l 1085 -131 l 1058 -131 l 1033 -131 l 1007 -131 l 981 -131 l 956 -131 l 929 -131 l 903 -131 l 876 -131 l 850 -131 l 825 -131 l 799 -131 l 772 -131 l 747 -131 l 721 -131 l 694 -131 l 668 -131 l 642 -131 l 617 -131 l 590 -131 l 564 -131 l 539 -131 l 513 -131 l 486 -131 l 460 -131 l 433 -131 l 408 -131 l 382 -131 l 356 -131 l 331 -131 l 304 -131 l 278 -131 l 278 -104 l 278 -78 l 278 -53 l 278 -26 l 278 0 l 278 26 l 278 53 l 278 78 l 304 78 l 304 104 l 331 104 l 331 131 l 356 131 l 356 156 l 356 182 l 382 182 l 382 208 l 408 208 l 408 235 l 433 235 l 433 261 l 433 286 l 460 286 l 460 313 l 486 313 l 486 339 l 513 339 l 513 364 l 513 390 l 539 390 l 539 417 l 564 417 l 564 443 l 590 443 l 590 469 l 590 494 l 617 494 l 617 521 l 642 521 l 642 547 l 668 547 l 668 572 l 668 599 l 694 599 l 694 625 l 721 625 l 721 651 l 747 651 l 747 678 l 747 703 l 772 703 l 772 729 l 799 729 l 799 756 l 772 756 l 747 756 l 721 756 l 694 756 l 668 756 l 642 756 l 617 756 l 590 756 l 564 756 l 539 756 l 513 756 l 486 756 l 460 756 l 433 756 l 408 756 l 382 756 l 356 756 l 331 756 l 304 756 l 278 756 l 278 781 l 278 807 l 278 833 l 278 860 l 278 886 l 278 911 l 278 938 l 278 964 l 304 964 l 331 964 l 356 964 l 382 964 l 408 964 l 433 964 l 460 964 l 486 964 l 513 964 l 539 964 l 564 964 l 590 964 l 617 964 l 642 964 l 668 964 l 694 964 l 721 964 l 747 964 l 772 964 l 799 964 l 825 964 l 850 964 l 876 964 l 903 964 l 929 964 l 956 964 l 981 964 l 1007 964 l 1033 964 l 1058 964 l 1085 964 z "},"[":{"ha":1389,"x_min":486,"x_max":903,"o":"m 876 964 l 903 964 l 903 938 l 903 911 l 903 886 l 903 860 l 903 833 l 903 807 l 903 781 l 903 756 l 876 756 l 850 756 l 825 756 l 799 756 l 772 756 l 747 756 l 721 756 l 694 756 l 694 729 l 694 703 l 694 678 l 694 651 l 694 625 l 694 599 l 694 572 l 694 547 l 694 521 l 694 494 l 694 469 l 694 443 l 694 417 l 694 390 l 694 364 l 694 339 l 694 313 l 694 286 l 694 261 l 694 235 l 694 208 l 694 182 l 694 156 l 694 131 l 694 104 l 694 78 l 721 78 l 747 78 l 772 78 l 799 78 l 825 78 l 850 78 l 876 78 l 903 78 l 903 53 l 903 26 l 903 0 l 903 -26 l 903 -53 l 903 -78 l 903 -104 l 903 -131 l 876 -131 l 850 -131 l 825 -131 l 799 -131 l 772 -131 l 747 -131 l 721 -131 l 694 -131 l 668 -131 l 642 -131 l 617 -131 l 590 -131 l 564 -131 l 539 -131 l 513 -131 l 486 -131 l 486 -104 l 486 -78 l 486 -53 l 486 -26 l 486 0 l 486 26 l 486 53 l 486 78 l 486 104 l 486 131 l 486 156 l 486 182 l 486 208 l 486 235 l 486 261 l 486 286 l 486 313 l 486 339 l 486 364 l 486 390 l 486 417 l 486 443 l 486 469 l 486 494 l 486 521 l 486 547 l 486 572 l 486 599 l 486 625 l 486 651 l 486 678 l 486 703 l 486 729 l 486 756 l 486 781 l 486 807 l 486 833 l 486 860 l 486 886 l 486 911 l 486 938 l 486 964 l 513 964 l 539 964 l 564 964 l 590 964 l 617 964 l 642 964 l 668 964 l 694 964 l 721 964 l 747 964 l 772 964 l 799 964 l 825 964 l 850 964 l 876 964 z "}}}
